<?xml version="1.0" encoding="UTF-8" standalone="no"?>
<!DOCTYPE svg PUBLIC "-//W3C//DTD SVG 1.1//EN"
 "http://www.w3.org/Graphics/SVG/1.1/DTD/svg11.dtd">
<!-- Generated by graphviz version 2.43.0 (0)
 -->
<!-- Title: G Pages: 1 -->
<svg width="5765pt" height="367pt"
 viewBox="0.00 0.00 5765.37 367.00" xmlns="http://www.w3.org/2000/svg" xmlns:xlink="http://www.w3.org/1999/xlink">
<g id="graph0" class="graph" transform="scale(1 1) rotate(0) translate(4 363)">
<title>G</title>
<polygon fill="white" stroke="transparent" points="-4,4 -4,-363 5761.37,-363 5761.37,4 -4,4"/>
<!-- module.spoke_shared[0].google_compute_subnetwork.lakehouse -->
<g id="node1" class="node">
<title>module.spoke_shared[0].google_compute_subnetwork.lakehouse</title>
<ellipse fill="none" stroke="black" cx="309.37" cy="-91" rx="309.25" ry="18"/>
<text text-anchor="middle" x="309.37" y="-87.3" font-family="Times,serif" font-size="14.00">module.spoke_shared[0].google_compute_subnetwork.lakehouse</text>
</g>
<!-- module.vpn_poc.google_compute_network.poc -->
<g id="node2" class="node">
<title>module.vpn_poc.google_compute_network.poc</title>
<ellipse fill="none" stroke="black" cx="2460.37" cy="-18" rx="224.76" ry="18"/>
<text text-anchor="middle" x="2460.37" y="-14.3" font-family="Times,serif" font-size="14.00">module.vpn_poc.google_compute_network.poc</text>
</g>
<!-- module.spoke_shared[0].google_compute_subnetwork.lakehouse&#45;&gt;module.vpn_poc.google_compute_network.poc -->
<g id="edge1" class="edge">
<title>module.spoke_shared[0].google_compute_subnetwork.lakehouse&#45;&gt;module.vpn_poc.google_compute_network.poc</title>
<path fill="none" stroke="black" d="M524.02,-78.01C558.58,-76.23 593.96,-74.49 627.37,-73 1206.48,-47.14 1889.07,-30.75 2234.99,-23.44"/>
<polygon fill="black" stroke="black" points="2235.2,-26.94 2245.13,-23.23 2235.06,-19.94 2235.2,-26.94"/>
</g>
<!-- module.vpn_poc.google_compute_ha_vpn_gateway.gw -->
<g id="node3" class="node">
<title>module.vpn_poc.google_compute_ha_vpn_gateway.gw</title>
<ellipse fill="none" stroke="black" cx="895.37" cy="-91" rx="258.85" ry="18"/>
<text text-anchor="middle" x="895.37" y="-87.3" font-family="Times,serif" font-size="14.00">module.vpn_poc.google_compute_ha_vpn_gateway.gw</text>
</g>
<!-- module.vpn_poc.google_compute_ha_vpn_gateway.gw&#45;&gt;module.vpn_poc.google_compute_network.poc -->
<g id="edge2" class="edge">
<title>module.vpn_poc.google_compute_ha_vpn_gateway.gw&#45;&gt;module.vpn_poc.google_compute_network.poc</title>
<path fill="none" stroke="black" d="M994.95,-74.34C1046.57,-66.86 1110.71,-58.57 1168.37,-54 1367.94,-38.18 1917.01,-27.41 2231.4,-22.34"/>
<polygon fill="black" stroke="black" points="2231.61,-25.83 2241.55,-22.17 2231.5,-18.83 2231.61,-25.83"/>
</g>
<!-- module.vpn_poc.google_compute_router.cr -->
<g id="node4" class="node">
<title>module.vpn_poc.google_compute_router.cr</title>
<ellipse fill="none" stroke="black" cx="1418.37" cy="-91" rx="207.96" ry="18"/>
<text text-anchor="middle" x="1418.37" y="-87.3" font-family="Times,serif" font-size="14.00">module.vpn_poc.google_compute_router.cr</text>
</g>
<!-- module.vpn_poc.google_compute_router.cr&#45;&gt;module.vpn_poc.google_compute_network.poc -->
<g id="edge3" class="edge">
<title>module.vpn_poc.google_compute_router.cr&#45;&gt;module.vpn_poc.google_compute_network.poc</title>
<path fill="none" stroke="black" d="M1499.78,-74.43C1541.64,-67.03 1593.57,-58.78 1640.37,-54 1838.4,-33.79 2064.49,-25.21 2229.04,-21.59"/>
<polygon fill="black" stroke="black" points="2229.37,-25.09 2239.3,-21.37 2229.22,-18.09 2229.37,-25.09"/>
</g>
<!-- module.vpn_poc.google_compute_router_interface.if0 -->
<g id="node5" class="node">
<title>module.vpn_poc.google_compute_router_interface.if0</title>
<ellipse fill="none" stroke="black" cx="1293.37" cy="-268" rx="258.05" ry="18"/>
<text text-anchor="middle" x="1293.37" y="-264.3" font-family="Times,serif" font-size="14.00">module.vpn_poc.google_compute_router_interface.if0</text>
</g>
<!-- module.vpn_poc.google_compute_router_interface.if0&#45;&gt;module.vpn_poc.google_compute_network.poc -->
<g id="edge6" class="edge">
<title>module.vpn_poc.google_compute_router_interface.if0&#45;&gt;module.vpn_poc.google_compute_network.poc</title>
<path fill="none" stroke="black" d="M1273.49,-249.85C1233.29,-213.22 1150.35,-126.33 1201.37,-73 1236.21,-36.58 1873.35,-24.61 2227.56,-20.77"/>
<polygon fill="black" stroke="black" points="2227.73,-24.26 2237.69,-20.66 2227.66,-17.26 2227.73,-24.26"/>
</g>
<!-- module.vpn_poc.google_compute_router_interface.if0&#45;&gt;module.vpn_poc.google_compute_ha_vpn_gateway.gw -->
<g id="edge5" class="edge">
<title>module.vpn_poc.google_compute_router_interface.if0&#45;&gt;module.vpn_poc.google_compute_ha_vpn_gateway.gw</title>
<path fill="none" stroke="black" d="M1223.63,-250.58C1205.36,-245.44 1185.88,-239.2 1168.37,-232 1079.5,-195.46 1065.86,-168.88 979.37,-127 969.36,-122.15 958.49,-117.32 948.01,-112.86"/>
<polygon fill="black" stroke="black" points="949.09,-109.53 938.52,-108.89 946.39,-115.98 949.09,-109.53"/>
</g>
<!-- module.vpn_poc.google_compute_router_interface.if0&#45;&gt;module.vpn_poc.google_compute_router.cr -->
<g id="edge7" class="edge">
<title>module.vpn_poc.google_compute_router_interface.if0&#45;&gt;module.vpn_poc.google_compute_router.cr</title>
<path fill="none" stroke="black" d="M1280.46,-249.75C1265.47,-227.44 1245.01,-188.1 1263.37,-160 1278.62,-136.67 1303.84,-121.29 1329.56,-111.17"/>
<polygon fill="black" stroke="black" points="1330.87,-114.42 1339.04,-107.68 1328.45,-107.85 1330.87,-114.42"/>
</g>
<!-- module.vpn_poc.google_compute_external_vpn_gateway.peer -->
<g id="node6" class="node">
<title>module.vpn_poc.google_compute_external_vpn_gateway.peer</title>
<ellipse fill="none" stroke="black" cx="2362.37" cy="-91" rx="293.55" ry="18"/>
<text text-anchor="middle" x="2362.37" y="-87.3" font-family="Times,serif" font-size="14.00">module.vpn_poc.google_compute_external_vpn_gateway.peer</text>
</g>
<!-- module.vpn_poc.google_compute_router_interface.if0&#45;&gt;module.vpn_poc.google_compute_external_vpn_gateway.peer -->
<g id="edge4" class="edge">
<title>module.vpn_poc.google_compute_router_interface.if0&#45;&gt;module.vpn_poc.google_compute_external_vpn_gateway.peer</title>
<path fill="none" stroke="black" d="M1433.6,-252.86C1522.57,-243.22 1640,-229.28 1743.37,-213 1935.38,-182.76 2158.73,-136.28 2277.64,-110.62"/>
<polygon fill="black" stroke="black" points="2278.38,-114.04 2287.41,-108.51 2276.9,-107.2 2278.38,-114.04"/>
</g>
<!-- module.vpn_poc.google_compute_vpn_tunnel.t0 -->
<g id="node7" class="node">
<title>module.vpn_poc.google_compute_vpn_tunnel.t0</title>
<ellipse fill="none" stroke="black" cx="1503.37" cy="-186.5" rx="231.26" ry="18"/>
<text text-anchor="middle" x="1503.37" y="-182.8" font-family="Times,serif" font-size="14.00">module.vpn_poc.google_compute_vpn_tunnel.t0</text>
</g>
<!-- module.vpn_poc.google_compute_router_interface.if0&#45;&gt;module.vpn_poc.google_compute_vpn_tunnel.t0 -->
<g id="edge8" class="edge">
<title>module.vpn_poc.google_compute_router_interface.if0&#45;&gt;module.vpn_poc.google_compute_vpn_tunnel.t0</title>
<path fill="none" stroke="black" d="M1337.65,-250.24C1370.32,-237.87 1414.94,-220.98 1449.65,-207.84"/>
<polygon fill="black" stroke="black" points="1451.04,-211.05 1459.15,-204.24 1448.56,-204.51 1451.04,-211.05"/>
</g>
<!-- module.vpn_poc.google_compute_vpn_tunnel.t0&#45;&gt;module.vpn_poc.google_compute_network.poc -->
<g id="edge23" class="edge">
<title>module.vpn_poc.google_compute_vpn_tunnel.t0&#45;&gt;module.vpn_poc.google_compute_network.poc</title>
<path fill="none" stroke="black" d="M1537.26,-168.67C1564.76,-154.37 1603.97,-132.47 1635.37,-109 1654.01,-95.07 1652.07,-82.35 1673.37,-73 1724.72,-50.47 2032.47,-34.67 2247.54,-26.2"/>
<polygon fill="black" stroke="black" points="2247.86,-29.69 2257.71,-25.81 2247.58,-22.7 2247.86,-29.69"/>
</g>
<!-- module.vpn_poc.google_compute_vpn_tunnel.t0&#45;&gt;module.vpn_poc.google_compute_ha_vpn_gateway.gw -->
<g id="edge22" class="edge">
<title>module.vpn_poc.google_compute_vpn_tunnel.t0&#45;&gt;module.vpn_poc.google_compute_ha_vpn_gateway.gw</title>
<path fill="none" stroke="black" d="M1403.99,-170.22C1295,-153.46 1120.5,-126.62 1006.9,-109.15"/>
<polygon fill="black" stroke="black" points="1007.2,-105.66 996.78,-107.6 1006.14,-112.57 1007.2,-105.66"/>
</g>
<!-- module.vpn_poc.google_compute_vpn_tunnel.t0&#45;&gt;module.vpn_poc.google_compute_router.cr -->
<g id="edge24" class="edge">
<title>module.vpn_poc.google_compute_vpn_tunnel.t0&#45;&gt;module.vpn_poc.google_compute_router.cr</title>
<path fill="none" stroke="black" d="M1487.78,-168.35C1474.6,-153.85 1455.56,-132.9 1440.75,-116.61"/>
<polygon fill="black" stroke="black" points="1443.18,-114.09 1433.86,-109.04 1438,-118.79 1443.18,-114.09"/>
</g>
<!-- module.vpn_poc.google_compute_vpn_tunnel.t0&#45;&gt;module.vpn_poc.google_compute_external_vpn_gateway.peer -->
<g id="edge21" class="edge">
<title>module.vpn_poc.google_compute_vpn_tunnel.t0&#45;&gt;module.vpn_poc.google_compute_external_vpn_gateway.peer</title>
<path fill="none" stroke="black" d="M1566.29,-169.13C1626.71,-153.66 1713.76,-132.08 1748.37,-127 1750.89,-126.63 1968.75,-114.26 2144.23,-104.32"/>
<polygon fill="black" stroke="black" points="2144.61,-107.81 2154.4,-103.75 2144.22,-100.82 2144.61,-107.81"/>
</g>
<!-- module.vpn_poc.google_compute_firewall.iap_ssh -->
<g id="node8" class="node">
<title>module.vpn_poc.google_compute_firewall.iap_ssh</title>
<polygon fill="none" stroke="black" points="2050.37,-109 1682.37,-109 1682.37,-73 2050.37,-73 2050.37,-109"/>
<text text-anchor="middle" x="1866.37" y="-87.3" font-family="Times,serif" font-size="14.00">module.vpn_poc.google_compute_firewall.iap_ssh</text>
</g>
<!-- module.vpn_poc.google_compute_firewall.iap_ssh&#45;&gt;module.vpn_poc.google_compute_network.poc -->
<g id="edge9" class="edge">
<title>module.vpn_poc.google_compute_firewall.iap_ssh&#45;&gt;module.vpn_poc.google_compute_network.poc</title>
<path fill="none" stroke="black" d="M2008.65,-72.99C2106.61,-61.29 2235.71,-45.85 2330.81,-34.49"/>
<polygon fill="black" stroke="black" points="2331.26,-37.96 2340.77,-33.3 2330.43,-31.01 2331.26,-37.96"/>
</g>
<!-- module.vpn_poc.google_compute_router_peer.peer0 -->
<g id="node9" class="node">
<title>module.vpn_poc.google_compute_router_peer.peer0</title>
<ellipse fill="none" stroke="black" cx="1806.37" cy="-341" rx="250.76" ry="18"/>
<text text-anchor="middle" x="1806.37" y="-337.3" font-family="Times,serif" font-size="14.00">module.vpn_poc.google_compute_router_peer.peer0</text>
</g>
<!-- module.vpn_poc.google_compute_router_peer.peer0&#45;&gt;module.vpn_poc.google_compute_network.poc -->
<g id="edge12" class="edge">
<title>module.vpn_poc.google_compute_router_peer.peer0&#45;&gt;module.vpn_poc.google_compute_network.poc</title>
<path fill="none" stroke="black" d="M2055.4,-338.79C2922.58,-334.16 5757.37,-315.49 5757.37,-269 5757.37,-269 5757.37,-269 5757.37,-90 5757.37,21.29 4867.65,-55.92 4756.37,-54 3999.89,-40.92 3103.16,-28 2689.89,-22.19"/>
<polygon fill="black" stroke="black" points="2689.66,-18.68 2679.61,-22.04 2689.56,-25.68 2689.66,-18.68"/>
</g>
<!-- module.vpn_poc.google_compute_router_peer.peer0&#45;&gt;module.vpn_poc.google_compute_ha_vpn_gateway.gw -->
<g id="edge11" class="edge">
<title>module.vpn_poc.google_compute_router_peer.peer0&#45;&gt;module.vpn_poc.google_compute_ha_vpn_gateway.gw</title>
<path fill="none" stroke="black" d="M1574.16,-334.18C1361.55,-327.2 1073.03,-312.9 1026.37,-286 960.69,-248.13 921.17,-162.44 904.56,-118.73"/>
<polygon fill="black" stroke="black" points="907.75,-117.25 901.01,-109.07 901.18,-119.67 907.75,-117.25"/>
</g>
<!-- module.vpn_poc.google_compute_router_peer.peer0&#45;&gt;module.vpn_poc.google_compute_router.cr -->
<g id="edge13" class="edge">
<title>module.vpn_poc.google_compute_router_peer.peer0&#45;&gt;module.vpn_poc.google_compute_router.cr</title>
<path fill="none" stroke="black" d="M1805.71,-322.85C1803.33,-286.84 1792.52,-203.13 1743.37,-160 1714.86,-134.99 1629.79,-117.72 1553.84,-106.85"/>
<polygon fill="black" stroke="black" points="1554.05,-103.34 1543.67,-105.42 1553.08,-110.28 1554.05,-103.34"/>
</g>
<!-- module.vpn_poc.google_compute_router_peer.peer0&#45;&gt;module.vpn_poc.google_compute_router_interface.if0 -->
<g id="edge14" class="edge">
<title>module.vpn_poc.google_compute_router_peer.peer0&#45;&gt;module.vpn_poc.google_compute_router_interface.if0</title>
<path fill="none" stroke="black" d="M1696.64,-324.81C1613.54,-313.31 1499.47,-297.52 1413.85,-285.67"/>
<polygon fill="black" stroke="black" points="1414.2,-282.19 1403.82,-284.29 1413.24,-289.12 1414.2,-282.19"/>
</g>
<!-- module.vpn_poc.google_compute_router_peer.peer0&#45;&gt;module.vpn_poc.google_compute_external_vpn_gateway.peer -->
<g id="edge10" class="edge">
<title>module.vpn_poc.google_compute_router_peer.peer0&#45;&gt;module.vpn_poc.google_compute_external_vpn_gateway.peer</title>
<path fill="none" stroke="black" d="M1938.15,-325.66C2078.95,-307.52 2289.26,-271.42 2343.37,-213 2366.59,-187.94 2368.15,-146.67 2366.09,-119.41"/>
<polygon fill="black" stroke="black" points="2369.56,-118.99 2365.12,-109.37 2362.6,-119.66 2369.56,-118.99"/>
</g>
<!-- module.vpn_poc.google_compute_router_peer.peer0&#45;&gt;module.vpn_poc.google_compute_vpn_tunnel.t0 -->
<g id="edge15" class="edge">
<title>module.vpn_poc.google_compute_router_peer.peer0&#45;&gt;module.vpn_poc.google_compute_vpn_tunnel.t0</title>
<path fill="none" stroke="black" d="M1772.79,-323.1C1717.39,-295.21 1606.94,-239.63 1546.07,-208.99"/>
<polygon fill="black" stroke="black" points="1547.61,-205.85 1537.11,-204.48 1544.47,-212.1 1547.61,-205.85"/>
</g>
<!-- module.spoke_shared[0].google_compute_subnetwork_iam_member.compute_sa -->
<g id="node10" class="node">
<title>module.spoke_shared[0].google_compute_subnetwork_iam_member.compute_sa</title>
<ellipse fill="none" stroke="black" cx="3055.37" cy="-91" rx="381.53" ry="18"/>
<text text-anchor="middle" x="3055.37" y="-87.3" font-family="Times,serif" font-size="14.00">module.spoke_shared[0].google_compute_subnetwork_iam_member.compute_sa</text>
</g>
<!-- module.spoke_shared[0].google_compute_subnetwork_iam_member.compute_sa&#45;&gt;module.vpn_poc.google_compute_network.poc -->
<g id="edge16" class="edge">
<title>module.spoke_shared[0].google_compute_subnetwork_iam_member.compute_sa&#45;&gt;module.vpn_poc.google_compute_network.poc</title>
<path fill="none" stroke="black" d="M2922.21,-74.11C2823.02,-62.27 2688.31,-46.2 2589.98,-34.47"/>
<polygon fill="black" stroke="black" points="2590.33,-30.98 2579.98,-33.27 2589.5,-37.93 2590.33,-30.98"/>
</g>
<!-- module.spoke_shared[0].google_compute_subnetwork_iam_member.cloudservices_sa -->
<g id="node11" class="node">
<title>module.spoke_shared[0].google_compute_subnetwork_iam_member.cloudservices_sa</title>
<ellipse fill="none" stroke="black" cx="3859.37" cy="-91" rx="404.03" ry="18"/>
<text text-anchor="middle" x="3859.37" y="-87.3" font-family="Times,serif" font-size="14.00">module.spoke_shared[0].google_compute_subnetwork_iam_member.cloudservices_sa</text>
</g>
<!-- module.spoke_shared[0].google_compute_subnetwork_iam_member.cloudservices_sa&#45;&gt;module.vpn_poc.google_compute_network.poc -->
<g id="edge17" class="edge">
<title>module.spoke_shared[0].google_compute_subnetwork_iam_member.cloudservices_sa&#45;&gt;module.vpn_poc.google_compute_network.poc</title>
<path fill="none" stroke="black" d="M3603.99,-77.04C3330.4,-63.15 2902.24,-41.42 2654.77,-28.87"/>
<polygon fill="black" stroke="black" points="2654.75,-25.36 2644.59,-28.35 2654.39,-32.35 2654.75,-25.36"/>
</g>
<!-- module.vpn_poc.google_compute_firewall.from_lan -->
<g id="node12" class="node">
<title>module.vpn_poc.google_compute_firewall.from_lan</title>
<polygon fill="none" stroke="black" points="4659.37,-109 4281.37,-109 4281.37,-73 4659.37,-73 4659.37,-109"/>
<text text-anchor="middle" x="4470.37" y="-87.3" font-family="Times,serif" font-size="14.00">module.vpn_poc.google_compute_firewall.from_lan</text>
</g>
<!-- module.vpn_poc.google_compute_firewall.from_lan&#45;&gt;module.vpn_poc.google_compute_network.poc -->
<g id="edge18" class="edge">
<title>module.vpn_poc.google_compute_firewall.from_lan&#45;&gt;module.vpn_poc.google_compute_network.poc</title>
<path fill="none" stroke="black" d="M4281.22,-73.53C4278.25,-73.35 4275.3,-73.17 4272.37,-73 3704.56,-40.19 3035.43,-26.79 2691,-21.75"/>
<polygon fill="black" stroke="black" points="2690.95,-18.25 2680.9,-21.6 2690.85,-25.25 2690.95,-18.25"/>
</g>
<!-- module.vpn_poc.google_compute_subnetwork.crosscloud -->
<g id="node13" class="node">
<title>module.vpn_poc.google_compute_subnetwork.crosscloud</title>
<ellipse fill="none" stroke="black" cx="4951.37" cy="-91" rx="274.05" ry="18"/>
<text text-anchor="middle" x="4951.37" y="-87.3" font-family="Times,serif" font-size="14.00">module.vpn_poc.google_compute_subnetwork.crosscloud</text>
</g>
<!-- module.vpn_poc.google_compute_subnetwork.crosscloud&#45;&gt;module.vpn_poc.google_compute_network.poc -->
<g id="edge19" class="edge">
<title>module.vpn_poc.google_compute_subnetwork.crosscloud&#45;&gt;module.vpn_poc.google_compute_network.poc</title>
<path fill="none" stroke="black" d="M4764.18,-77.83C4732.22,-76.02 4699.35,-74.32 4668.37,-73 3947.18,-42.25 3092.67,-27.52 2690.91,-21.88"/>
<polygon fill="black" stroke="black" points="2690.67,-18.38 2680.62,-21.74 2690.57,-25.38 2690.67,-18.38"/>
</g>
<!-- module.vpn_poc.google_compute_subnetwork.hub -->
<g id="node14" class="node">
<title>module.vpn_poc.google_compute_subnetwork.hub</title>
<ellipse fill="none" stroke="black" cx="5486.37" cy="-91" rx="243.16" ry="18"/>
<text text-anchor="middle" x="5486.37" y="-87.3" font-family="Times,serif" font-size="14.00">module.vpn_poc.google_compute_subnetwork.hub</text>
</g>
<!-- module.vpn_poc.google_compute_subnetwork.hub&#45;&gt;module.vpn_poc.google_compute_network.poc -->
<g id="edge20" class="edge">
<title>module.vpn_poc.google_compute_subnetwork.hub&#45;&gt;module.vpn_poc.google_compute_network.poc</title>
<path fill="none" stroke="black" d="M5321.74,-77.75C5292.64,-75.92 5262.63,-74.23 5234.37,-73 4293.65,-32.14 3172.13,-22.19 2694.44,-19.78"/>
<polygon fill="black" stroke="black" points="2694.34,-16.28 2684.32,-19.73 2694.3,-23.28 2694.34,-16.28"/>
</g>
<!-- onprem -->
<g id="node15" class="node">
<title>onprem</title>
<path fill="#faece7" stroke="black" d="M2322.37,-213C2322.37,-213 2108.37,-213 2108.37,-213 2102.37,-213 2096.37,-207 2096.37,-201 2096.37,-201 2096.37,-172 2096.37,-172 2096.37,-166 2102.37,-160 2108.37,-160 2108.37,-160 2322.37,-160 2322.37,-160 2328.37,-160 2334.37,-166 2334.37,-172 2334.37,-172 2334.37,-201 2334.37,-201 2334.37,-207 2328.37,-213 2322.37,-213"/>
<text text-anchor="middle" x="2215.37" y="-197.8" font-family="Times,serif" font-size="14.00">On&#45;prem LAN</text>
<text text-anchor="middle" x="2215.37" y="-182.8" font-family="Times,serif" font-size="14.00">192.168.1.0/24</text>
<text text-anchor="middle" x="2215.37" y="-167.8" font-family="Times,serif" font-size="14.00">strongSwan + FRR (AS 65000)</text>
</g>
<!-- onprem&#45;&gt;module.vpn_poc.google_compute_external_vpn_gateway.peer -->
<g id="edge25" class="edge">
<title>onprem&#45;&gt;module.vpn_poc.google_compute_external_vpn_gateway.peer</title>
<path fill="none" stroke="#993c1d" stroke-width="2" d="M2228.84,-159.87C2235.98,-148.42 2245.7,-135.6 2257.37,-127 2265.07,-121.33 2273.73,-116.55 2282.7,-112.51"/>
<polygon fill="#993c1d" stroke="#993c1d" stroke-width="2" points="2284.25,-115.66 2292.13,-108.58 2281.56,-109.2 2284.25,-115.66"/>
<text text-anchor="middle" x="2302.87" y="-130.8" font-family="Times,serif" font-size="14.00">IPsec + BGP</text>
</g>
</g>
</svg>
