<?xml version="1.0" encoding="UTF-8" standalone="no"?>
<!DOCTYPE svg PUBLIC "-//W3C//DTD SVG 1.1//EN"
 "http://www.w3.org/Graphics/SVG/1.1/DTD/svg11.dtd">
<!-- Generated by graphviz version 2.43.0 (0)
 -->
<!-- Title: G Pages: 1 -->
<svg width="5778pt" height="367pt"
 viewBox="0.00 0.00 5778.08 367.00" xmlns="http://www.w3.org/2000/svg" xmlns:xlink="http://www.w3.org/1999/xlink">
<g id="graph0" class="graph" transform="scale(1 1) rotate(0) translate(4 363)">
<title>G</title>
<polygon fill="white" stroke="transparent" points="-4,4 -4,-363 5774.08,-363 5774.08,4 -4,4"/>
<!-- module.vpn_poc.google_compute_subnetwork.hub -->
<g id="node1" class="node">
<title>module.vpn_poc.google_compute_subnetwork.hub</title>
<ellipse fill="none" stroke="black" cx="243.08" cy="-91" rx="243.16" ry="18"/>
<text text-anchor="middle" x="243.08" y="-87.3" font-family="Times,serif" font-size="14.00">module.vpn_poc.google_compute_subnetwork.hub</text>
</g>
<!-- module.vpn_poc.google_compute_network.poc -->
<g id="node2" class="node">
<title>module.vpn_poc.google_compute_network.poc</title>
<ellipse fill="none" stroke="black" cx="2371.08" cy="-18" rx="224.76" ry="18"/>
<text text-anchor="middle" x="2371.08" y="-14.3" font-family="Times,serif" font-size="14.00">module.vpn_poc.google_compute_network.poc</text>
</g>
<!-- module.vpn_poc.google_compute_subnetwork.hub&#45;&gt;module.vpn_poc.google_compute_network.poc -->
<g id="edge1" class="edge">
<title>module.vpn_poc.google_compute_subnetwork.hub&#45;&gt;module.vpn_poc.google_compute_network.poc</title>
<path fill="none" stroke="black" d="M335.27,-74.34C384.1,-66.75 445.17,-58.34 500.08,-54 810.98,-29.41 1707.86,-22.02 2136.95,-19.86"/>
<polygon fill="black" stroke="black" points="2137.02,-23.36 2147,-19.81 2136.98,-16.36 2137.02,-23.36"/>
</g>
<!-- module.vpn_poc.google_compute_vpn_tunnel.t0 -->
<g id="node3" class="node">
<title>module.vpn_poc.google_compute_vpn_tunnel.t0</title>
<ellipse fill="none" stroke="black" cx="1367.08" cy="-186.5" rx="231.26" ry="18"/>
<text text-anchor="middle" x="1367.08" y="-182.8" font-family="Times,serif" font-size="14.00">module.vpn_poc.google_compute_vpn_tunnel.t0</text>
</g>
<!-- module.vpn_poc.google_compute_vpn_tunnel.t0&#45;&gt;module.vpn_poc.google_compute_network.poc -->
<g id="edge4" class="edge">
<title>module.vpn_poc.google_compute_vpn_tunnel.t0&#45;&gt;module.vpn_poc.google_compute_network.poc</title>
<path fill="none" stroke="black" d="M1292.33,-169.46C1222.19,-151.22 1134.04,-118.03 1177.08,-73 1209.76,-38.81 1801.65,-25.93 2139.55,-21.35"/>
<polygon fill="black" stroke="black" points="2139.76,-24.84 2149.72,-21.21 2139.67,-17.85 2139.76,-24.84"/>
</g>
<!-- module.vpn_poc.google_compute_external_vpn_gateway.peer -->
<g id="node4" class="node">
<title>module.vpn_poc.google_compute_external_vpn_gateway.peer</title>
<ellipse fill="none" stroke="black" cx="836.08" cy="-91" rx="293.55" ry="18"/>
<text text-anchor="middle" x="836.08" y="-87.3" font-family="Times,serif" font-size="14.00">module.vpn_poc.google_compute_external_vpn_gateway.peer</text>
</g>
<!-- module.vpn_poc.google_compute_vpn_tunnel.t0&#45;&gt;module.vpn_poc.google_compute_external_vpn_gateway.peer -->
<g id="edge2" class="edge">
<title>module.vpn_poc.google_compute_vpn_tunnel.t0&#45;&gt;module.vpn_poc.google_compute_external_vpn_gateway.peer</title>
<path fill="none" stroke="black" d="M1283.09,-169.68C1242,-161.74 1191.87,-151.76 1147.08,-142 1118.96,-135.87 1112.36,-132.35 1084.08,-127 1047.66,-120.11 1008,-113.93 971.3,-108.75"/>
<polygon fill="black" stroke="black" points="971.42,-105.23 961.03,-107.31 970.45,-112.16 971.42,-105.23"/>
</g>
<!-- module.vpn_poc.google_compute_ha_vpn_gateway.gw -->
<g id="node5" class="node">
<title>module.vpn_poc.google_compute_ha_vpn_gateway.gw</title>
<ellipse fill="none" stroke="black" cx="1445.08" cy="-91" rx="258.85" ry="18"/>
<text text-anchor="middle" x="1445.08" y="-87.3" font-family="Times,serif" font-size="14.00">module.vpn_poc.google_compute_ha_vpn_gateway.gw</text>
</g>
<!-- module.vpn_poc.google_compute_vpn_tunnel.t0&#45;&gt;module.vpn_poc.google_compute_ha_vpn_gateway.gw -->
<g id="edge3" class="edge">
<title>module.vpn_poc.google_compute_vpn_tunnel.t0&#45;&gt;module.vpn_poc.google_compute_ha_vpn_gateway.gw</title>
<path fill="none" stroke="black" d="M1381.38,-168.35C1393.37,-153.98 1410.64,-133.28 1424.17,-117.06"/>
<polygon fill="black" stroke="black" points="1427.14,-118.96 1430.86,-109.04 1421.77,-114.48 1427.14,-118.96"/>
</g>
<!-- module.vpn_poc.google_compute_router.cr -->
<g id="node6" class="node">
<title>module.vpn_poc.google_compute_router.cr</title>
<ellipse fill="none" stroke="black" cx="1930.08" cy="-91" rx="207.96" ry="18"/>
<text text-anchor="middle" x="1930.08" y="-87.3" font-family="Times,serif" font-size="14.00">module.vpn_poc.google_compute_router.cr</text>
</g>
<!-- module.vpn_poc.google_compute_vpn_tunnel.t0&#45;&gt;module.vpn_poc.google_compute_router.cr -->
<g id="edge5" class="edge">
<title>module.vpn_poc.google_compute_vpn_tunnel.t0&#45;&gt;module.vpn_poc.google_compute_router.cr</title>
<path fill="none" stroke="black" d="M1460.36,-170.01C1561.93,-153.14 1723.83,-126.25 1828.53,-108.86"/>
<polygon fill="black" stroke="black" points="1829.19,-112.3 1838.48,-107.21 1828.04,-105.4 1829.19,-112.3"/>
</g>
<!-- module.vpn_poc.google_compute_ha_vpn_gateway.gw&#45;&gt;module.vpn_poc.google_compute_network.poc -->
<g id="edge6" class="edge">
<title>module.vpn_poc.google_compute_ha_vpn_gateway.gw&#45;&gt;module.vpn_poc.google_compute_network.poc</title>
<path fill="none" stroke="black" d="M1611.7,-77.22C1779.58,-64.35 2037.15,-44.6 2204.88,-31.74"/>
<polygon fill="black" stroke="black" points="2205.35,-35.22 2215.05,-30.96 2204.81,-28.24 2205.35,-35.22"/>
</g>
<!-- module.vpn_poc.google_compute_router.cr&#45;&gt;module.vpn_poc.google_compute_network.poc -->
<g id="edge22" class="edge">
<title>module.vpn_poc.google_compute_router.cr&#45;&gt;module.vpn_poc.google_compute_network.poc</title>
<path fill="none" stroke="black" d="M2022.96,-74.89C2062.72,-68.43 2109.67,-60.83 2152.08,-54 2188.91,-48.07 2229.23,-41.62 2265.13,-35.88"/>
<polygon fill="black" stroke="black" points="2265.81,-39.32 2275.13,-34.29 2264.7,-32.41 2265.81,-39.32"/>
</g>
<!-- module.spoke_shared[0].google_compute_subnetwork_iam_member.compute_sa -->
<g id="node7" class="node">
<title>module.spoke_shared[0].google_compute_subnetwork_iam_member.compute_sa</title>
<ellipse fill="none" stroke="black" cx="2576.08" cy="-91" rx="381.53" ry="18"/>
<text text-anchor="middle" x="2576.08" y="-87.3" font-family="Times,serif" font-size="14.00">module.spoke_shared[0].google_compute_subnetwork_iam_member.compute_sa</text>
</g>
<!-- module.spoke_shared[0].google_compute_subnetwork_iam_member.compute_sa&#45;&gt;module.vpn_poc.google_compute_network.poc -->
<g id="edge7" class="edge">
<title>module.spoke_shared[0].google_compute_subnetwork_iam_member.compute_sa&#45;&gt;module.vpn_poc.google_compute_network.poc</title>
<path fill="none" stroke="black" d="M2527.24,-73.08C2497.74,-62.87 2459.99,-49.8 2429,-39.06"/>
<polygon fill="black" stroke="black" points="2429.79,-35.63 2419.19,-35.66 2427.5,-42.24 2429.79,-35.63"/>
</g>
<!-- module.vpn_poc.google_compute_firewall.iap_ssh -->
<g id="node8" class="node">
<title>module.vpn_poc.google_compute_firewall.iap_ssh</title>
<polygon fill="none" stroke="black" points="3344.08,-109 2976.08,-109 2976.08,-73 3344.08,-73 3344.08,-109"/>
<text text-anchor="middle" x="3160.08" y="-87.3" font-family="Times,serif" font-size="14.00">module.vpn_poc.google_compute_firewall.iap_ssh</text>
</g>
<!-- module.vpn_poc.google_compute_firewall.iap_ssh&#45;&gt;module.vpn_poc.google_compute_network.poc -->
<g id="edge8" class="edge">
<title>module.vpn_poc.google_compute_firewall.iap_ssh&#45;&gt;module.vpn_poc.google_compute_network.poc</title>
<path fill="none" stroke="black" d="M2975.59,-73.4C2838.44,-61.06 2653.49,-44.41 2524.42,-32.8"/>
<polygon fill="black" stroke="black" points="2524.72,-29.31 2514.45,-31.9 2524.09,-36.28 2524.72,-29.31"/>
</g>
<!-- module.spoke_shared[0].google_compute_subnetwork.lakehouse -->
<g id="node9" class="node">
<title>module.spoke_shared[0].google_compute_subnetwork.lakehouse</title>
<ellipse fill="none" stroke="black" cx="3671.08" cy="-91" rx="309.25" ry="18"/>
<text text-anchor="middle" x="3671.08" y="-87.3" font-family="Times,serif" font-size="14.00">module.spoke_shared[0].google_compute_subnetwork.lakehouse</text>
</g>
<!-- module.spoke_shared[0].google_compute_subnetwork.lakehouse&#45;&gt;module.vpn_poc.google_compute_network.poc -->
<g id="edge9" class="edge">
<title>module.spoke_shared[0].google_compute_subnetwork.lakehouse&#45;&gt;module.vpn_poc.google_compute_network.poc</title>
<path fill="none" stroke="black" d="M3454.22,-78.16C3204.69,-64.53 2798.87,-42.36 2561.21,-29.38"/>
<polygon fill="black" stroke="black" points="2561.25,-25.88 2551.07,-28.83 2560.87,-32.87 2561.25,-25.88"/>
</g>
<!-- module.vpn_poc.google_compute_router_interface.if0 -->
<g id="node10" class="node">
<title>module.vpn_poc.google_compute_router_interface.if0</title>
<ellipse fill="none" stroke="black" cx="1614.08" cy="-268" rx="258.05" ry="18"/>
<text text-anchor="middle" x="1614.08" y="-264.3" font-family="Times,serif" font-size="14.00">module.vpn_poc.google_compute_router_interface.if0</text>
</g>
<!-- module.vpn_poc.google_compute_router_interface.if0&#45;&gt;module.vpn_poc.google_compute_network.poc -->
<g id="edge12" class="edge">
<title>module.vpn_poc.google_compute_router_interface.if0&#45;&gt;module.vpn_poc.google_compute_network.poc</title>
<path fill="none" stroke="black" d="M1716.21,-251.42C1827.87,-231.15 2009.24,-188.52 2147.08,-109 2167.23,-97.37 2164.89,-84.57 2185.08,-73 2212.85,-57.08 2245.69,-45.54 2275.98,-37.31"/>
<polygon fill="black" stroke="black" points="2276.94,-40.68 2285.72,-34.75 2275.16,-33.91 2276.94,-40.68"/>
</g>
<!-- module.vpn_poc.google_compute_router_interface.if0&#45;&gt;module.vpn_poc.google_compute_vpn_tunnel.t0 -->
<g id="edge14" class="edge">
<title>module.vpn_poc.google_compute_router_interface.if0&#45;&gt;module.vpn_poc.google_compute_vpn_tunnel.t0</title>
<path fill="none" stroke="black" d="M1562.3,-250.33C1523.27,-237.77 1469.62,-220.51 1428.44,-207.25"/>
<polygon fill="black" stroke="black" points="1429.38,-203.88 1418.79,-204.14 1427.24,-210.54 1429.38,-203.88"/>
</g>
<!-- module.vpn_poc.google_compute_router_interface.if0&#45;&gt;module.vpn_poc.google_compute_external_vpn_gateway.peer -->
<g id="edge10" class="edge">
<title>module.vpn_poc.google_compute_router_interface.if0&#45;&gt;module.vpn_poc.google_compute_external_vpn_gateway.peer</title>
<path fill="none" stroke="black" d="M1425.61,-255.69C1312.58,-247.05 1180.67,-233.16 1127.08,-213 1088.53,-198.51 1086.88,-180.35 1051.08,-160 1020.12,-142.41 1011.73,-138.64 978.08,-127 960.69,-120.98 941.76,-115.57 923.57,-110.9"/>
<polygon fill="black" stroke="black" points="924.39,-107.49 913.84,-108.45 922.68,-114.28 924.39,-107.49"/>
</g>
<!-- module.vpn_poc.google_compute_router_interface.if0&#45;&gt;module.vpn_poc.google_compute_ha_vpn_gateway.gw -->
<g id="edge11" class="edge">
<title>module.vpn_poc.google_compute_router_interface.if0&#45;&gt;module.vpn_poc.google_compute_ha_vpn_gateway.gw</title>
<path fill="none" stroke="black" d="M1618.03,-250C1622.27,-227.25 1626.1,-186.68 1607.08,-160 1590.68,-137 1564.94,-121.74 1538.76,-111.63"/>
<polygon fill="black" stroke="black" points="1539.71,-108.25 1529.12,-108.13 1537.33,-114.83 1539.71,-108.25"/>
</g>
<!-- module.vpn_poc.google_compute_router_interface.if0&#45;&gt;module.vpn_poc.google_compute_router.cr -->
<g id="edge13" class="edge">
<title>module.vpn_poc.google_compute_router_interface.if0&#45;&gt;module.vpn_poc.google_compute_router.cr</title>
<path fill="none" stroke="black" d="M1644.66,-250.06C1702.24,-218.18 1826.65,-149.28 1890.51,-113.91"/>
<polygon fill="black" stroke="black" points="1892.42,-116.85 1899.48,-108.95 1889.03,-110.73 1892.42,-116.85"/>
</g>
<!-- module.vpn_poc.google_compute_router_peer.peer0 -->
<g id="node11" class="node">
<title>module.vpn_poc.google_compute_router_peer.peer0</title>
<ellipse fill="none" stroke="black" cx="1224.08" cy="-341" rx="250.76" ry="18"/>
<text text-anchor="middle" x="1224.08" y="-337.3" font-family="Times,serif" font-size="14.00">module.vpn_poc.google_compute_router_peer.peer0</text>
</g>
<!-- module.vpn_poc.google_compute_router_peer.peer0&#45;&gt;module.vpn_poc.google_compute_network.poc -->
<g id="edge17" class="edge">
<title>module.vpn_poc.google_compute_router_peer.peer0&#45;&gt;module.vpn_poc.google_compute_network.poc</title>
<path fill="none" stroke="black" d="M976.75,-337.91C771.85,-332.75 514.08,-316.77 514.08,-269 514.08,-269 514.08,-269 514.08,-90 514.08,-78.67 522.55,-77.2 533.08,-73 606.36,-43.76 1662.79,-27.48 2140.03,-21.58"/>
<polygon fill="black" stroke="black" points="2140.2,-25.07 2150.15,-21.45 2140.11,-18.08 2140.2,-25.07"/>
</g>
<!-- module.vpn_poc.google_compute_router_peer.peer0&#45;&gt;module.vpn_poc.google_compute_vpn_tunnel.t0 -->
<g id="edge20" class="edge">
<title>module.vpn_poc.google_compute_router_peer.peer0&#45;&gt;module.vpn_poc.google_compute_vpn_tunnel.t0</title>
<path fill="none" stroke="black" d="M1240.2,-322.8C1265.52,-295.8 1314.71,-243.35 1343.84,-212.28"/>
<polygon fill="black" stroke="black" points="1346.5,-214.56 1350.79,-204.87 1341.4,-209.77 1346.5,-214.56"/>
</g>
<!-- module.vpn_poc.google_compute_router_peer.peer0&#45;&gt;module.vpn_poc.google_compute_external_vpn_gateway.peer -->
<g id="edge15" class="edge">
<title>module.vpn_poc.google_compute_router_peer.peer0&#45;&gt;module.vpn_poc.google_compute_external_vpn_gateway.peer</title>
<path fill="none" stroke="black" d="M1124.24,-324.45C1010.28,-304.43 834.53,-265.82 795.08,-213 773.61,-184.26 795.63,-143.55 814.76,-117.45"/>
<polygon fill="black" stroke="black" points="817.77,-119.27 821.07,-109.2 812.21,-115.02 817.77,-119.27"/>
</g>
<!-- module.vpn_poc.google_compute_router_peer.peer0&#45;&gt;module.vpn_poc.google_compute_ha_vpn_gateway.gw -->
<g id="edge16" class="edge">
<title>module.vpn_poc.google_compute_router_peer.peer0&#45;&gt;module.vpn_poc.google_compute_ha_vpn_gateway.gw</title>
<path fill="none" stroke="black" d="M1202.15,-322.86C1161.81,-289.31 1083.77,-213.55 1127.08,-160 1148.14,-133.96 1218,-117.45 1286.9,-107.23"/>
<polygon fill="black" stroke="black" points="1287.65,-110.65 1297.05,-105.76 1286.66,-103.73 1287.65,-110.65"/>
</g>
<!-- module.vpn_poc.google_compute_router_peer.peer0&#45;&gt;module.vpn_poc.google_compute_router.cr -->
<g id="edge18" class="edge">
<title>module.vpn_poc.google_compute_router_peer.peer0&#45;&gt;module.vpn_poc.google_compute_router.cr</title>
<path fill="none" stroke="black" d="M1455.41,-334.02C1631.32,-327.32 1848.55,-313.55 1881.08,-286 1929.97,-244.59 1933.85,-162.15 1932.19,-119.29"/>
<polygon fill="black" stroke="black" points="1935.68,-118.86 1931.66,-109.05 1928.69,-119.22 1935.68,-118.86"/>
</g>
<!-- module.vpn_poc.google_compute_router_peer.peer0&#45;&gt;module.vpn_poc.google_compute_router_interface.if0 -->
<g id="edge19" class="edge">
<title>module.vpn_poc.google_compute_router_peer.peer0&#45;&gt;module.vpn_poc.google_compute_router_interface.if0</title>
<path fill="none" stroke="black" d="M1311.6,-324.07C1372.46,-312.99 1453.64,-298.21 1516.57,-286.75"/>
<polygon fill="black" stroke="black" points="1517.3,-290.18 1526.51,-284.94 1516.05,-283.29 1517.3,-290.18"/>
</g>
<!-- module.spoke_shared[0].google_compute_subnetwork_iam_member.cloudservices_sa -->
<g id="node12" class="node">
<title>module.spoke_shared[0].google_compute_subnetwork_iam_member.cloudservices_sa</title>
<ellipse fill="none" stroke="black" cx="4403.08" cy="-91" rx="404.03" ry="18"/>
<text text-anchor="middle" x="4403.08" y="-87.3" font-family="Times,serif" font-size="14.00">module.spoke_shared[0].google_compute_subnetwork_iam_member.cloudservices_sa</text>
</g>
<!-- module.spoke_shared[0].google_compute_subnetwork_iam_member.cloudservices_sa&#45;&gt;module.vpn_poc.google_compute_network.poc -->
<g id="edge21" class="edge">
<title>module.spoke_shared[0].google_compute_subnetwork_iam_member.cloudservices_sa&#45;&gt;module.vpn_poc.google_compute_network.poc</title>
<path fill="none" stroke="black" d="M4120.54,-78.11C4076.53,-76.34 4031.58,-74.58 3989.08,-73 3486.7,-54.3 2896.45,-35.37 2586.39,-25.66"/>
<polygon fill="black" stroke="black" points="2586.49,-22.16 2576.38,-25.35 2586.27,-29.16 2586.49,-22.16"/>
</g>
<!-- module.vpn_poc.google_compute_subnetwork.crosscloud -->
<g id="node13" class="node">
<title>module.vpn_poc.google_compute_subnetwork.crosscloud</title>
<ellipse fill="none" stroke="black" cx="5100.08" cy="-91" rx="274.05" ry="18"/>
<text text-anchor="middle" x="5100.08" y="-87.3" font-family="Times,serif" font-size="14.00">module.vpn_poc.google_compute_subnetwork.crosscloud</text>
</g>
<!-- module.vpn_poc.google_compute_subnetwork.crosscloud&#45;&gt;module.vpn_poc.google_compute_network.poc -->
<g id="edge23" class="edge">
<title>module.vpn_poc.google_compute_subnetwork.crosscloud&#45;&gt;module.vpn_poc.google_compute_network.poc</title>
<path fill="none" stroke="black" d="M4912.99,-77.8C4880.68,-75.98 4847.42,-74.28 4816.08,-73 4003.19,-39.71 3037.38,-26 2602.99,-21.21"/>
<polygon fill="black" stroke="black" points="2602.87,-17.71 2592.83,-21.1 2602.79,-24.71 2602.87,-17.71"/>
</g>
<!-- module.vpn_poc.google_compute_firewall.from_lan -->
<g id="node14" class="node">
<title>module.vpn_poc.google_compute_firewall.from_lan</title>
<polygon fill="none" stroke="black" points="5770.08,-109 5392.08,-109 5392.08,-73 5770.08,-73 5770.08,-109"/>
<text text-anchor="middle" x="5581.08" y="-87.3" font-family="Times,serif" font-size="14.00">module.vpn_poc.google_compute_firewall.from_lan</text>
</g>
<!-- module.vpn_poc.google_compute_firewall.from_lan&#45;&gt;module.vpn_poc.google_compute_network.poc -->
<g id="edge24" class="edge">
<title>module.vpn_poc.google_compute_firewall.from_lan&#45;&gt;module.vpn_poc.google_compute_network.poc</title>
<path fill="none" stroke="black" d="M5391.93,-73.48C5388.96,-73.31 5386.01,-73.15 5383.08,-73 4843.26,-45.02 3211.44,-27.02 2603.04,-21.12"/>
<polygon fill="black" stroke="black" points="2602.87,-17.62 2592.83,-21.02 2602.8,-24.62 2602.87,-17.62"/>
</g>
<!-- onprem -->
<g id="node15" class="node">
<title>onprem</title>
<path fill="#faece7" stroke="black" d="M1030.08,-213C1030.08,-213 816.08,-213 816.08,-213 810.08,-213 804.08,-207 804.08,-201 804.08,-201 804.08,-172 804.08,-172 804.08,-166 810.08,-160 816.08,-160 816.08,-160 1030.08,-160 1030.08,-160 1036.08,-160 1042.08,-166 1042.08,-172 1042.08,-172 1042.08,-201 1042.08,-201 1042.08,-207 1036.08,-213 1030.08,-213"/>
<text text-anchor="middle" x="923.08" y="-197.8" font-family="Times,serif" font-size="14.00">On&#45;prem LAN</text>
<text text-anchor="middle" x="923.08" y="-182.8" font-family="Times,serif" font-size="14.00">192.168.1.0/24</text>
<text text-anchor="middle" x="923.08" y="-167.8" font-family="Times,serif" font-size="14.00">strongSwan + FRR (AS 65000)</text>
</g>
<!-- onprem&#45;&gt;module.vpn_poc.google_compute_external_vpn_gateway.peer -->
<g id="edge25" class="edge">
<title>onprem&#45;&gt;module.vpn_poc.google_compute_external_vpn_gateway.peer</title>
<path fill="none" stroke="#993c1d" stroke-width="2" d="M899.31,-159.95C886.77,-146.48 871.47,-130.03 859.06,-116.69"/>
<polygon fill="#993c1d" stroke="#993c1d" stroke-width="2" points="861.5,-114.18 852.12,-109.24 856.37,-118.95 861.5,-114.18"/>
<text text-anchor="middle" x="928.58" y="-130.8" font-family="Times,serif" font-size="14.00">IPsec + BGP</text>
</g>
</g>
</svg>
