<?xml version="1.0" encoding="UTF-8" standalone="no"?>
<!DOCTYPE svg PUBLIC "-//W3C//DTD SVG 1.1//EN"
 "http://www.w3.org/Graphics/SVG/1.1/DTD/svg11.dtd">
<!-- Generated by graphviz version 2.43.0 (0)
 -->
<!-- Title: G Pages: 1 -->
<svg width="5781pt" height="367pt"
 viewBox="0.00 0.00 5781.48 367.00" xmlns="http://www.w3.org/2000/svg" xmlns:xlink="http://www.w3.org/1999/xlink">
<g id="graph0" class="graph" transform="scale(1 1) rotate(0) translate(4 363)">
<title>G</title>
<polygon fill="white" stroke="transparent" points="-4,4 -4,-363 5777.48,-363 5777.48,4 -4,4"/>
<!-- module.vpn_poc.google_compute_router_peer.peer0 -->
<g id="node1" class="node">
<title>module.vpn_poc.google_compute_router_peer.peer0</title>
<ellipse fill="none" stroke="black" cx="479.48" cy="-341" rx="250.76" ry="18"/>
<text text-anchor="middle" x="479.48" y="-337.3" font-family="Times,serif" font-size="14.00">module.vpn_poc.google_compute_router_peer.peer0</text>
</g>
<!-- module.vpn_poc.google_compute_external_vpn_gateway.peer -->
<g id="node2" class="node">
<title>module.vpn_poc.google_compute_external_vpn_gateway.peer</title>
<ellipse fill="none" stroke="black" cx="1383.48" cy="-91" rx="293.55" ry="18"/>
<text text-anchor="middle" x="1383.48" y="-87.3" font-family="Times,serif" font-size="14.00">module.vpn_poc.google_compute_external_vpn_gateway.peer</text>
</g>
<!-- module.vpn_poc.google_compute_router_peer.peer0&#45;&gt;module.vpn_poc.google_compute_external_vpn_gateway.peer -->
<g id="edge1" class="edge">
<title>module.vpn_poc.google_compute_router_peer.peer0&#45;&gt;module.vpn_poc.google_compute_external_vpn_gateway.peer</title>
<path fill="none" stroke="black" d="M650.34,-327.78C899.38,-308.25 1337.89,-266.67 1386.48,-213 1409.24,-187.86 1402.11,-146.33 1393.73,-119.07"/>
<polygon fill="black" stroke="black" points="1396.99,-117.77 1390.52,-109.38 1390.34,-119.97 1396.99,-117.77"/>
</g>
<!-- module.vpn_poc.google_compute_ha_vpn_gateway.gw -->
<g id="node3" class="node">
<title>module.vpn_poc.google_compute_ha_vpn_gateway.gw</title>
<ellipse fill="none" stroke="black" cx="340.48" cy="-91" rx="258.85" ry="18"/>
<text text-anchor="middle" x="340.48" y="-87.3" font-family="Times,serif" font-size="14.00">module.vpn_poc.google_compute_ha_vpn_gateway.gw</text>
</g>
<!-- module.vpn_poc.google_compute_router_peer.peer0&#45;&gt;module.vpn_poc.google_compute_ha_vpn_gateway.gw -->
<g id="edge2" class="edge">
<title>module.vpn_poc.google_compute_router_peer.peer0&#45;&gt;module.vpn_poc.google_compute_ha_vpn_gateway.gw</title>
<path fill="none" stroke="black" d="M364.36,-324.99C258.11,-308.47 111.76,-277.99 77.48,-232 29.15,-167.18 137.88,-129.32 229.9,-109.67"/>
<polygon fill="black" stroke="black" points="230.8,-113.05 239.88,-107.59 229.38,-106.2 230.8,-113.05"/>
</g>
<!-- module.vpn_poc.google_compute_network.poc -->
<g id="node4" class="node">
<title>module.vpn_poc.google_compute_network.poc</title>
<ellipse fill="none" stroke="black" cx="2431.48" cy="-18" rx="224.76" ry="18"/>
<text text-anchor="middle" x="2431.48" y="-14.3" font-family="Times,serif" font-size="14.00">module.vpn_poc.google_compute_network.poc</text>
</g>
<!-- module.vpn_poc.google_compute_router_peer.peer0&#45;&gt;module.vpn_poc.google_compute_network.poc -->
<g id="edge3" class="edge">
<title>module.vpn_poc.google_compute_router_peer.peer0&#45;&gt;module.vpn_poc.google_compute_network.poc</title>
<path fill="none" stroke="black" d="M297.76,-328.55C167.69,-317.82 15.48,-298.87 15.48,-269 15.48,-269 15.48,-269 15.48,-90 15.48,-37.73 -82.63,-72.81 220.48,-54 598.91,-30.51 1709.69,-22.43 2197.36,-19.97"/>
<polygon fill="black" stroke="black" points="2197.72,-23.47 2207.7,-19.92 2197.68,-16.47 2197.72,-23.47"/>
</g>
<!-- module.vpn_poc.google_compute_router.cr -->
<g id="node5" class="node">
<title>module.vpn_poc.google_compute_router.cr</title>
<ellipse fill="none" stroke="black" cx="825.48" cy="-91" rx="207.96" ry="18"/>
<text text-anchor="middle" x="825.48" y="-87.3" font-family="Times,serif" font-size="14.00">module.vpn_poc.google_compute_router.cr</text>
</g>
<!-- module.vpn_poc.google_compute_router_peer.peer0&#45;&gt;module.vpn_poc.google_compute_router.cr -->
<g id="edge4" class="edge">
<title>module.vpn_poc.google_compute_router_peer.peer0&#45;&gt;module.vpn_poc.google_compute_router.cr</title>
<path fill="none" stroke="black" d="M405.61,-323.76C386.03,-315.73 367.12,-303.77 355.48,-286 346.71,-272.62 346.82,-263.46 355.48,-250 426.82,-139.1 499.51,-166.01 625.48,-127 650.63,-119.21 678.14,-112.98 704.48,-108.08"/>
<polygon fill="black" stroke="black" points="705.29,-111.49 714.51,-106.26 704.05,-104.6 705.29,-111.49"/>
</g>
<!-- module.vpn_poc.google_compute_router_interface.if0 -->
<g id="node6" class="node">
<title>module.vpn_poc.google_compute_router_interface.if0</title>
<ellipse fill="none" stroke="black" cx="622.48" cy="-268" rx="258.05" ry="18"/>
<text text-anchor="middle" x="622.48" y="-264.3" font-family="Times,serif" font-size="14.00">module.vpn_poc.google_compute_router_interface.if0</text>
</g>
<!-- module.vpn_poc.google_compute_router_peer.peer0&#45;&gt;module.vpn_poc.google_compute_router_interface.if0 -->
<g id="edge5" class="edge">
<title>module.vpn_poc.google_compute_router_peer.peer0&#45;&gt;module.vpn_poc.google_compute_router_interface.if0</title>
<path fill="none" stroke="black" d="M513.73,-322.99C533.45,-313.2 558.42,-300.81 579.45,-290.36"/>
<polygon fill="black" stroke="black" points="581.1,-293.45 588.5,-285.87 577.99,-287.18 581.1,-293.45"/>
</g>
<!-- module.vpn_poc.google_compute_vpn_tunnel.t0 -->
<g id="node7" class="node">
<title>module.vpn_poc.google_compute_vpn_tunnel.t0</title>
<ellipse fill="none" stroke="black" cx="852.48" cy="-186.5" rx="231.26" ry="18"/>
<text text-anchor="middle" x="852.48" y="-182.8" font-family="Times,serif" font-size="14.00">module.vpn_poc.google_compute_vpn_tunnel.t0</text>
</g>
<!-- module.vpn_poc.google_compute_router_peer.peer0&#45;&gt;module.vpn_poc.google_compute_vpn_tunnel.t0 -->
<g id="edge6" class="edge">
<title>module.vpn_poc.google_compute_router_peer.peer0&#45;&gt;module.vpn_poc.google_compute_vpn_tunnel.t0</title>
<path fill="none" stroke="black" d="M651.81,-327.88C756.56,-318.71 873.23,-304.52 889.48,-286 907.77,-265.15 891.34,-234.38 874.95,-212.79"/>
<polygon fill="black" stroke="black" points="877.48,-210.35 868.5,-204.73 872.01,-214.72 877.48,-210.35"/>
</g>
<!-- module.vpn_poc.google_compute_ha_vpn_gateway.gw&#45;&gt;module.vpn_poc.google_compute_network.poc -->
<g id="edge17" class="edge">
<title>module.vpn_poc.google_compute_ha_vpn_gateway.gw&#45;&gt;module.vpn_poc.google_compute_network.poc</title>
<path fill="none" stroke="black" d="M521.01,-78.07C550.24,-76.28 580.2,-74.52 608.48,-73 1181.23,-42.18 1856.23,-27.94 2201.97,-22.25"/>
<polygon fill="black" stroke="black" points="2202.16,-25.74 2212.1,-22.08 2202.05,-18.74 2202.16,-25.74"/>
</g>
<!-- module.vpn_poc.google_compute_router.cr&#45;&gt;module.vpn_poc.google_compute_network.poc -->
<g id="edge22" class="edge">
<title>module.vpn_poc.google_compute_router.cr&#45;&gt;module.vpn_poc.google_compute_network.poc</title>
<path fill="none" stroke="black" d="M905.29,-74.37C947.41,-66.81 1000.05,-58.42 1047.48,-54 1263.76,-33.82 1864.58,-24.69 2199.11,-21.06"/>
<polygon fill="black" stroke="black" points="2199.45,-24.56 2209.42,-20.95 2199.38,-17.56 2199.45,-24.56"/>
</g>
<!-- module.vpn_poc.google_compute_router_interface.if0&#45;&gt;module.vpn_poc.google_compute_external_vpn_gateway.peer -->
<g id="edge7" class="edge">
<title>module.vpn_poc.google_compute_router_interface.if0&#45;&gt;module.vpn_poc.google_compute_external_vpn_gateway.peer</title>
<path fill="none" stroke="black" d="M843.2,-258.64C943.85,-251.43 1049.95,-238.01 1092.48,-213 1117.46,-198.31 1106.65,-176.5 1130.48,-160 1165.96,-135.43 1209.9,-119.73 1251.15,-109.7"/>
<polygon fill="black" stroke="black" points="1252.07,-113.08 1261.01,-107.4 1250.48,-106.27 1252.07,-113.08"/>
</g>
<!-- module.vpn_poc.google_compute_router_interface.if0&#45;&gt;module.vpn_poc.google_compute_ha_vpn_gateway.gw -->
<g id="edge8" class="edge">
<title>module.vpn_poc.google_compute_router_interface.if0&#45;&gt;module.vpn_poc.google_compute_ha_vpn_gateway.gw</title>
<path fill="none" stroke="black" d="M595.18,-250.06C544.01,-218.31 433.68,-149.84 376.49,-114.35"/>
<polygon fill="black" stroke="black" points="378.13,-111.25 367.79,-108.95 374.44,-117.19 378.13,-111.25"/>
</g>
<!-- module.vpn_poc.google_compute_router_interface.if0&#45;&gt;module.vpn_poc.google_compute_network.poc -->
<g id="edge9" class="edge">
<title>module.vpn_poc.google_compute_router_interface.if0&#45;&gt;module.vpn_poc.google_compute_network.poc</title>
<path fill="none" stroke="black" d="M423.23,-256.53C221.53,-239.16 -45.09,-193.29 72.48,-73 109.27,-35.35 1608.55,-23.35 2197.46,-20.08"/>
<polygon fill="black" stroke="black" points="2197.8,-23.58 2207.78,-20.02 2197.76,-16.58 2197.8,-23.58"/>
</g>
<!-- module.vpn_poc.google_compute_router_interface.if0&#45;&gt;module.vpn_poc.google_compute_router.cr -->
<g id="edge10" class="edge">
<title>module.vpn_poc.google_compute_router_interface.if0&#45;&gt;module.vpn_poc.google_compute_router.cr</title>
<path fill="none" stroke="black" d="M614.48,-249.95C605.1,-227.15 593.11,-186.52 612.48,-160 630.97,-134.69 658.99,-118.58 688.69,-108.38"/>
<polygon fill="black" stroke="black" points="689.93,-111.66 698.38,-105.28 687.79,-104.99 689.93,-111.66"/>
</g>
<!-- module.vpn_poc.google_compute_router_interface.if0&#45;&gt;module.vpn_poc.google_compute_vpn_tunnel.t0 -->
<g id="edge11" class="edge">
<title>module.vpn_poc.google_compute_router_interface.if0&#45;&gt;module.vpn_poc.google_compute_vpn_tunnel.t0</title>
<path fill="none" stroke="black" d="M670.97,-250.24C706.91,-237.82 756.04,-220.84 794.12,-207.67"/>
<polygon fill="black" stroke="black" points="795.74,-210.81 804.05,-204.24 793.45,-204.2 795.74,-210.81"/>
</g>
<!-- module.vpn_poc.google_compute_vpn_tunnel.t0&#45;&gt;module.vpn_poc.google_compute_external_vpn_gateway.peer -->
<g id="edge18" class="edge">
<title>module.vpn_poc.google_compute_vpn_tunnel.t0&#45;&gt;module.vpn_poc.google_compute_external_vpn_gateway.peer</title>
<path fill="none" stroke="black" d="M961.35,-170.57C997.34,-163.9 1037.19,-154.62 1072.48,-142 1085.77,-137.25 1087.02,-131.27 1100.48,-127 1128.24,-118.18 1158.2,-111.57 1187.87,-106.62"/>
<polygon fill="black" stroke="black" points="1188.6,-110.04 1197.92,-105 1187.49,-103.13 1188.6,-110.04"/>
</g>
<!-- module.vpn_poc.google_compute_vpn_tunnel.t0&#45;&gt;module.vpn_poc.google_compute_ha_vpn_gateway.gw -->
<g id="edge19" class="edge">
<title>module.vpn_poc.google_compute_vpn_tunnel.t0&#45;&gt;module.vpn_poc.google_compute_ha_vpn_gateway.gw</title>
<path fill="none" stroke="black" d="M766.2,-169.74C675.37,-153.16 532.65,-127.09 437.84,-109.78"/>
<polygon fill="black" stroke="black" points="438.43,-106.33 427.96,-107.98 437.17,-113.22 438.43,-106.33"/>
</g>
<!-- module.vpn_poc.google_compute_vpn_tunnel.t0&#45;&gt;module.vpn_poc.google_compute_network.poc -->
<g id="edge20" class="edge">
<title>module.vpn_poc.google_compute_vpn_tunnel.t0&#45;&gt;module.vpn_poc.google_compute_network.poc</title>
<path fill="none" stroke="black" d="M908.77,-169.04C948.06,-156.1 1000.73,-135.79 1042.48,-109 1062.06,-96.43 1059.04,-82.04 1080.48,-73 1180.18,-30.94 1837.2,-21.46 2196.93,-19.44"/>
<polygon fill="black" stroke="black" points="2196.98,-22.94 2206.96,-19.39 2196.94,-15.94 2196.98,-22.94"/>
</g>
<!-- module.vpn_poc.google_compute_vpn_tunnel.t0&#45;&gt;module.vpn_poc.google_compute_router.cr -->
<g id="edge21" class="edge">
<title>module.vpn_poc.google_compute_vpn_tunnel.t0&#45;&gt;module.vpn_poc.google_compute_router.cr</title>
<path fill="none" stroke="black" d="M847.52,-168.35C843.53,-154.51 837.83,-134.79 833.23,-118.86"/>
<polygon fill="black" stroke="black" points="836.53,-117.68 830.4,-109.04 829.81,-119.62 836.53,-117.68"/>
</g>
<!-- module.spoke_shared[0].google_compute_subnetwork_iam_member.cloudservices_sa -->
<g id="node8" class="node">
<title>module.spoke_shared[0].google_compute_subnetwork_iam_member.cloudservices_sa</title>
<ellipse fill="none" stroke="black" cx="2099.48" cy="-91" rx="404.03" ry="18"/>
<text text-anchor="middle" x="2099.48" y="-87.3" font-family="Times,serif" font-size="14.00">module.spoke_shared[0].google_compute_subnetwork_iam_member.cloudservices_sa</text>
</g>
<!-- module.spoke_shared[0].google_compute_subnetwork_iam_member.cloudservices_sa&#45;&gt;module.vpn_poc.google_compute_network.poc -->
<g id="edge12" class="edge">
<title>module.spoke_shared[0].google_compute_subnetwork_iam_member.cloudservices_sa&#45;&gt;module.vpn_poc.google_compute_network.poc</title>
<path fill="none" stroke="black" d="M2177.74,-73.26C2228.52,-62.4 2294.69,-48.25 2346.72,-37.13"/>
<polygon fill="black" stroke="black" points="2347.55,-40.53 2356.6,-35.01 2346.09,-33.68 2347.55,-40.53"/>
</g>
<!-- module.vpn_poc.google_compute_subnetwork.hub -->
<g id="node9" class="node">
<title>module.vpn_poc.google_compute_subnetwork.hub</title>
<ellipse fill="none" stroke="black" cx="2764.48" cy="-91" rx="243.16" ry="18"/>
<text text-anchor="middle" x="2764.48" y="-87.3" font-family="Times,serif" font-size="14.00">module.vpn_poc.google_compute_subnetwork.hub</text>
</g>
<!-- module.vpn_poc.google_compute_subnetwork.hub&#45;&gt;module.vpn_poc.google_compute_network.poc -->
<g id="edge13" class="edge">
<title>module.vpn_poc.google_compute_subnetwork.hub&#45;&gt;module.vpn_poc.google_compute_network.poc</title>
<path fill="none" stroke="black" d="M2688.91,-73.89C2637.63,-62.95 2569.73,-48.48 2516.55,-37.14"/>
<polygon fill="black" stroke="black" points="2516.96,-33.65 2506.45,-34.99 2515.5,-40.49 2516.96,-33.65"/>
</g>
<!-- module.spoke_shared[0].google_compute_subnetwork.lakehouse -->
<g id="node10" class="node">
<title>module.spoke_shared[0].google_compute_subnetwork.lakehouse</title>
<ellipse fill="none" stroke="black" cx="3334.48" cy="-91" rx="309.25" ry="18"/>
<text text-anchor="middle" x="3334.48" y="-87.3" font-family="Times,serif" font-size="14.00">module.spoke_shared[0].google_compute_subnetwork.lakehouse</text>
</g>
<!-- module.spoke_shared[0].google_compute_subnetwork.lakehouse&#45;&gt;module.vpn_poc.google_compute_network.poc -->
<g id="edge14" class="edge">
<title>module.spoke_shared[0].google_compute_subnetwork.lakehouse&#45;&gt;module.vpn_poc.google_compute_network.poc</title>
<path fill="none" stroke="black" d="M3158.76,-76.18C2995.85,-63.37 2755.28,-44.46 2596.03,-31.94"/>
<polygon fill="black" stroke="black" points="2595.91,-28.42 2585.66,-31.12 2595.36,-35.4 2595.91,-28.42"/>
</g>
<!-- module.spoke_shared[0].google_compute_subnetwork_iam_member.compute_sa -->
<g id="node11" class="node">
<title>module.spoke_shared[0].google_compute_subnetwork_iam_member.compute_sa</title>
<ellipse fill="none" stroke="black" cx="4043.48" cy="-91" rx="381.53" ry="18"/>
<text text-anchor="middle" x="4043.48" y="-87.3" font-family="Times,serif" font-size="14.00">module.spoke_shared[0].google_compute_subnetwork_iam_member.compute_sa</text>
</g>
<!-- module.spoke_shared[0].google_compute_subnetwork_iam_member.compute_sa&#45;&gt;module.vpn_poc.google_compute_network.poc -->
<g id="edge15" class="edge">
<title>module.spoke_shared[0].google_compute_subnetwork_iam_member.compute_sa&#45;&gt;module.vpn_poc.google_compute_network.poc</title>
<path fill="none" stroke="black" d="M3775.03,-78.18C3453.43,-64.01 2921.99,-40.6 2633.29,-27.89"/>
<polygon fill="black" stroke="black" points="2633.27,-24.38 2623.13,-27.44 2632.96,-31.38 2633.27,-24.38"/>
</g>
<!-- module.vpn_poc.google_compute_firewall.from_lan -->
<g id="node12" class="node">
<title>module.vpn_poc.google_compute_firewall.from_lan</title>
<polygon fill="none" stroke="black" points="4821.48,-109 4443.48,-109 4443.48,-73 4821.48,-73 4821.48,-109"/>
<text text-anchor="middle" x="4632.48" y="-87.3" font-family="Times,serif" font-size="14.00">module.vpn_poc.google_compute_firewall.from_lan</text>
</g>
<!-- module.vpn_poc.google_compute_firewall.from_lan&#45;&gt;module.vpn_poc.google_compute_network.poc -->
<g id="edge16" class="edge">
<title>module.vpn_poc.google_compute_firewall.from_lan&#45;&gt;module.vpn_poc.google_compute_network.poc</title>
<path fill="none" stroke="black" d="M4443.33,-73.52C4440.36,-73.34 4437.4,-73.17 4434.48,-73 3794.3,-36.92 3037.62,-24.8 2664.07,-20.84"/>
<polygon fill="black" stroke="black" points="2663.99,-17.34 2653.95,-20.74 2663.92,-24.34 2663.99,-17.34"/>
</g>
<!-- module.vpn_poc.google_compute_subnetwork.crosscloud -->
<g id="node13" class="node">
<title>module.vpn_poc.google_compute_subnetwork.crosscloud</title>
<ellipse fill="none" stroke="black" cx="5113.48" cy="-91" rx="274.05" ry="18"/>
<text text-anchor="middle" x="5113.48" y="-87.3" font-family="Times,serif" font-size="14.00">module.vpn_poc.google_compute_subnetwork.crosscloud</text>
</g>
<!-- module.vpn_poc.google_compute_subnetwork.crosscloud&#45;&gt;module.vpn_poc.google_compute_network.poc -->
<g id="edge23" class="edge">
<title>module.vpn_poc.google_compute_subnetwork.crosscloud&#45;&gt;module.vpn_poc.google_compute_network.poc</title>
<path fill="none" stroke="black" d="M4926.28,-77.82C4894.33,-76.01 4861.46,-74.31 4830.48,-73 4035.51,-39.26 3091.39,-25.81 2663.19,-21.15"/>
<polygon fill="black" stroke="black" points="2663.21,-17.65 2653.17,-21.04 2663.13,-24.65 2663.21,-17.65"/>
</g>
<!-- module.vpn_poc.google_compute_firewall.iap_ssh -->
<g id="node14" class="node">
<title>module.vpn_poc.google_compute_firewall.iap_ssh</title>
<polygon fill="none" stroke="black" points="5773.48,-109 5405.48,-109 5405.48,-73 5773.48,-73 5773.48,-109"/>
<text text-anchor="middle" x="5589.48" y="-87.3" font-family="Times,serif" font-size="14.00">module.vpn_poc.google_compute_firewall.iap_ssh</text>
</g>
<!-- module.vpn_poc.google_compute_firewall.iap_ssh&#45;&gt;module.vpn_poc.google_compute_network.poc -->
<g id="edge24" class="edge">
<title>module.vpn_poc.google_compute_firewall.iap_ssh&#45;&gt;module.vpn_poc.google_compute_network.poc</title>
<path fill="none" stroke="black" d="M5405.36,-73.49C5402.38,-73.32 5399.42,-73.16 5396.48,-73 4866.15,-44.85 3265.01,-27 2663.35,-21.13"/>
<polygon fill="black" stroke="black" points="2663.28,-17.63 2653.25,-21.03 2663.22,-24.63 2663.28,-17.63"/>
</g>
<!-- onprem -->
<g id="node15" class="node">
<title>onprem</title>
<path fill="#faece7" stroke="black" d="M1365.48,-213C1365.48,-213 1151.48,-213 1151.48,-213 1145.48,-213 1139.48,-207 1139.48,-201 1139.48,-201 1139.48,-172 1139.48,-172 1139.48,-166 1145.48,-160 1151.48,-160 1151.48,-160 1365.48,-160 1365.48,-160 1371.48,-160 1377.48,-166 1377.48,-172 1377.48,-172 1377.48,-201 1377.48,-201 1377.48,-207 1371.48,-213 1365.48,-213"/>
<text text-anchor="middle" x="1258.48" y="-197.8" font-family="Times,serif" font-size="14.00">On&#45;prem LAN</text>
<text text-anchor="middle" x="1258.48" y="-182.8" font-family="Times,serif" font-size="14.00">192.168.1.0/24</text>
<text text-anchor="middle" x="1258.48" y="-167.8" font-family="Times,serif" font-size="14.00">strongSwan + FRR (AS 65000)</text>
</g>
<!-- onprem&#45;&gt;module.vpn_poc.google_compute_external_vpn_gateway.peer -->
<g id="edge25" class="edge">
<title>onprem&#45;&gt;module.vpn_poc.google_compute_external_vpn_gateway.peer</title>
<path fill="none" stroke="#993c1d" stroke-width="2" d="M1272.44,-159.97C1279.62,-148.69 1289.24,-135.97 1300.48,-127 1307.07,-121.74 1314.56,-117.15 1322.29,-113.17"/>
<polygon fill="#993c1d" stroke="#993c1d" stroke-width="2" points="1323.92,-116.26 1331.42,-108.78 1320.89,-109.95 1323.92,-116.26"/>
<text text-anchor="middle" x="1345.98" y="-130.8" font-family="Times,serif" font-size="14.00">IPsec + BGP</text>
</g>
</g>
</svg>
