<?xml version="1.0" encoding="UTF-8" standalone="no"?>
<!DOCTYPE svg PUBLIC "-//W3C//DTD SVG 1.1//EN"
 "http://www.w3.org/Graphics/SVG/1.1/DTD/svg11.dtd">
<!-- Generated by graphviz version 2.43.0 (0)
 -->
<!-- Title: G Pages: 1 -->
<svg width="5776pt" height="367pt"
 viewBox="0.00 0.00 5776.15 367.00" xmlns="http://www.w3.org/2000/svg" xmlns:xlink="http://www.w3.org/1999/xlink">
<g id="graph0" class="graph" transform="scale(1 1) rotate(0) translate(4 363)">
<title>G</title>
<polygon fill="white" stroke="transparent" points="-4,4 -4,-363 5772.15,-363 5772.15,4 -4,4"/>
<!-- module.spoke_shared[0].google_compute_subnetwork.lakehouse -->
<g id="node1" class="node">
<title>module.spoke_shared[0].google_compute_subnetwork.lakehouse</title>
<ellipse fill="none" stroke="black" cx="309.37" cy="-91" rx="309.25" ry="18"/>
<text text-anchor="middle" x="309.37" y="-87.3" font-family="Times,serif" font-size="14.00">module.spoke_shared[0].google_compute_subnetwork.lakehouse</text>
</g>
<!-- module.vpn_poc.google_compute_network.poc -->
<g id="node2" class="node">
<title>module.vpn_poc.google_compute_network.poc</title>
<ellipse fill="none" stroke="black" cx="2238.37" cy="-18" rx="224.76" ry="18"/>
<text text-anchor="middle" x="2238.37" y="-14.3" font-family="Times,serif" font-size="14.00">module.vpn_poc.google_compute_network.poc</text>
</g>
<!-- module.spoke_shared[0].google_compute_subnetwork.lakehouse&#45;&gt;module.vpn_poc.google_compute_network.poc -->
<g id="edge1" class="edge">
<title>module.spoke_shared[0].google_compute_subnetwork.lakehouse&#45;&gt;module.vpn_poc.google_compute_network.poc</title>
<path fill="none" stroke="black" d="M523.84,-77.99C558.77,-76.2 594.57,-74.47 628.37,-73 1125.49,-51.42 1709.27,-33.75 2019.14,-24.98"/>
<polygon fill="black" stroke="black" points="2019.69,-28.47 2029.59,-24.69 2019.5,-21.47 2019.69,-28.47"/>
</g>
<!-- module.vpn_poc.google_compute_subnetwork.crosscloud -->
<g id="node3" class="node">
<title>module.vpn_poc.google_compute_subnetwork.crosscloud</title>
<ellipse fill="none" stroke="black" cx="911.37" cy="-91" rx="274.05" ry="18"/>
<text text-anchor="middle" x="911.37" y="-87.3" font-family="Times,serif" font-size="14.00">module.vpn_poc.google_compute_subnetwork.crosscloud</text>
</g>
<!-- module.vpn_poc.google_compute_subnetwork.crosscloud&#45;&gt;module.vpn_poc.google_compute_network.poc -->
<g id="edge2" class="edge">
<title>module.vpn_poc.google_compute_subnetwork.crosscloud&#45;&gt;module.vpn_poc.google_compute_network.poc</title>
<path fill="none" stroke="black" d="M1104.31,-78.19C1134.46,-76.41 1165.25,-74.63 1194.37,-73 1489.89,-56.48 1832.56,-39.1 2042.39,-28.65"/>
<polygon fill="black" stroke="black" points="2042.78,-32.13 2052.59,-28.14 2042.43,-25.14 2042.78,-32.13"/>
</g>
<!-- module.vpn_poc.google_compute_firewall.iap_ssh -->
<g id="node4" class="node">
<title>module.vpn_poc.google_compute_firewall.iap_ssh</title>
<polygon fill="none" stroke="black" points="1571.37,-109 1203.37,-109 1203.37,-73 1571.37,-73 1571.37,-109"/>
<text text-anchor="middle" x="1387.37" y="-87.3" font-family="Times,serif" font-size="14.00">module.vpn_poc.google_compute_firewall.iap_ssh</text>
</g>
<!-- module.vpn_poc.google_compute_firewall.iap_ssh&#45;&gt;module.vpn_poc.google_compute_network.poc -->
<g id="edge3" class="edge">
<title>module.vpn_poc.google_compute_firewall.iap_ssh&#45;&gt;module.vpn_poc.google_compute_network.poc</title>
<path fill="none" stroke="black" d="M1467.95,-72.97C1503.75,-66.02 1546.51,-58.56 1585.37,-54 1727.54,-37.33 1888.07,-28.59 2014.39,-24.02"/>
<polygon fill="black" stroke="black" points="2014.71,-27.51 2024.58,-23.65 2014.46,-20.51 2014.71,-27.51"/>
</g>
<!-- module.vpn_poc.google_compute_router_peer.peer0 -->
<g id="node5" class="node">
<title>module.vpn_poc.google_compute_router_peer.peer0</title>
<ellipse fill="none" stroke="black" cx="2300.37" cy="-341" rx="250.76" ry="18"/>
<text text-anchor="middle" x="2300.37" y="-337.3" font-family="Times,serif" font-size="14.00">module.vpn_poc.google_compute_router_peer.peer0</text>
</g>
<!-- module.vpn_poc.google_compute_router_peer.peer0&#45;&gt;module.vpn_poc.google_compute_network.poc -->
<g id="edge6" class="edge">
<title>module.vpn_poc.google_compute_router_peer.peer0&#45;&gt;module.vpn_poc.google_compute_network.poc</title>
<path fill="none" stroke="black" d="M2053.72,-337.56C1851.81,-332.14 1599.37,-315.98 1599.37,-269 1599.37,-269 1599.37,-269 1599.37,-90 1599.37,-47.22 1828.53,-30.22 2012.38,-23.46"/>
<polygon fill="black" stroke="black" points="2012.61,-26.95 2022.48,-23.09 2012.36,-19.96 2012.61,-26.95"/>
</g>
<!-- module.vpn_poc.google_compute_external_vpn_gateway.peer -->
<g id="node6" class="node">
<title>module.vpn_poc.google_compute_external_vpn_gateway.peer</title>
<ellipse fill="none" stroke="black" cx="5474.37" cy="-91" rx="293.55" ry="18"/>
<text text-anchor="middle" x="5474.37" y="-87.3" font-family="Times,serif" font-size="14.00">module.vpn_poc.google_compute_external_vpn_gateway.peer</text>
</g>
<!-- module.vpn_poc.google_compute_router_peer.peer0&#45;&gt;module.vpn_poc.google_compute_external_vpn_gateway.peer -->
<g id="edge4" class="edge">
<title>module.vpn_poc.google_compute_router_peer.peer0&#45;&gt;module.vpn_poc.google_compute_external_vpn_gateway.peer</title>
<path fill="none" stroke="black" d="M2463.23,-327.27C3001.77,-285.2 4723.03,-150.71 5290.77,-106.35"/>
<polygon fill="black" stroke="black" points="5291.4,-109.81 5301.1,-105.54 5290.86,-102.83 5291.4,-109.81"/>
</g>
<!-- module.vpn_poc.google_compute_ha_vpn_gateway.gw -->
<g id="node7" class="node">
<title>module.vpn_poc.google_compute_ha_vpn_gateway.gw</title>
<ellipse fill="none" stroke="black" cx="1886.37" cy="-91" rx="258.85" ry="18"/>
<text text-anchor="middle" x="1886.37" y="-87.3" font-family="Times,serif" font-size="14.00">module.vpn_poc.google_compute_ha_vpn_gateway.gw</text>
</g>
<!-- module.vpn_poc.google_compute_router_peer.peer0&#45;&gt;module.vpn_poc.google_compute_ha_vpn_gateway.gw -->
<g id="edge5" class="edge">
<title>module.vpn_poc.google_compute_router_peer.peer0&#45;&gt;module.vpn_poc.google_compute_ha_vpn_gateway.gw</title>
<path fill="none" stroke="black" d="M2133.79,-327.53C2052.12,-312.51 1959.32,-280.49 1902.37,-213 1880.51,-187.1 1879.72,-146.32 1882.21,-119.37"/>
<polygon fill="black" stroke="black" points="1885.72,-119.43 1883.38,-109.1 1878.77,-118.64 1885.72,-119.43"/>
</g>
<!-- module.vpn_poc.google_compute_router.cr -->
<g id="node8" class="node">
<title>module.vpn_poc.google_compute_router.cr</title>
<ellipse fill="none" stroke="black" cx="2409.37" cy="-91" rx="207.96" ry="18"/>
<text text-anchor="middle" x="2409.37" y="-87.3" font-family="Times,serif" font-size="14.00">module.vpn_poc.google_compute_router.cr</text>
</g>
<!-- module.vpn_poc.google_compute_router_peer.peer0&#45;&gt;module.vpn_poc.google_compute_router.cr -->
<g id="edge7" class="edge">
<title>module.vpn_poc.google_compute_router_peer.peer0&#45;&gt;module.vpn_poc.google_compute_router.cr</title>
<path fill="none" stroke="black" d="M2314.82,-322.89C2330.31,-304.64 2355.75,-274.98 2378.37,-250 2393.57,-233.22 2405,-234.03 2413.37,-213 2425.48,-182.58 2421.37,-144.39 2416.3,-119.14"/>
<polygon fill="black" stroke="black" points="2419.68,-118.19 2414.11,-109.17 2412.84,-119.69 2419.68,-118.19"/>
</g>
<!-- module.vpn_poc.google_compute_router_interface.if0 -->
<g id="node9" class="node">
<title>module.vpn_poc.google_compute_router_interface.if0</title>
<ellipse fill="none" stroke="black" cx="2645.37" cy="-268" rx="258.05" ry="18"/>
<text text-anchor="middle" x="2645.37" y="-264.3" font-family="Times,serif" font-size="14.00">module.vpn_poc.google_compute_router_interface.if0</text>
</g>
<!-- module.vpn_poc.google_compute_router_peer.peer0&#45;&gt;module.vpn_poc.google_compute_router_interface.if0 -->
<g id="edge8" class="edge">
<title>module.vpn_poc.google_compute_router_peer.peer0&#45;&gt;module.vpn_poc.google_compute_router_interface.if0</title>
<path fill="none" stroke="black" d="M2378.66,-323.89C2431.62,-312.99 2501.68,-298.57 2556.71,-287.25"/>
<polygon fill="black" stroke="black" points="2557.71,-290.61 2566.8,-285.17 2556.3,-283.76 2557.71,-290.61"/>
</g>
<!-- module.vpn_poc.google_compute_vpn_tunnel.t0 -->
<g id="node10" class="node">
<title>module.vpn_poc.google_compute_vpn_tunnel.t0</title>
<ellipse fill="none" stroke="black" cx="2173.37" cy="-186.5" rx="231.26" ry="18"/>
<text text-anchor="middle" x="2173.37" y="-182.8" font-family="Times,serif" font-size="14.00">module.vpn_poc.google_compute_vpn_tunnel.t0</text>
</g>
<!-- module.vpn_poc.google_compute_router_peer.peer0&#45;&gt;module.vpn_poc.google_compute_vpn_tunnel.t0 -->
<g id="edge9" class="edge">
<title>module.vpn_poc.google_compute_router_peer.peer0&#45;&gt;module.vpn_poc.google_compute_vpn_tunnel.t0</title>
<path fill="none" stroke="black" d="M2286.05,-322.8C2263.66,-295.92 2220.25,-243.79 2194.34,-212.67"/>
<polygon fill="black" stroke="black" points="2196.93,-210.31 2187.84,-204.87 2191.55,-214.79 2196.93,-210.31"/>
</g>
<!-- module.vpn_poc.google_compute_ha_vpn_gateway.gw&#45;&gt;module.vpn_poc.google_compute_network.poc -->
<g id="edge19" class="edge">
<title>module.vpn_poc.google_compute_ha_vpn_gateway.gw&#45;&gt;module.vpn_poc.google_compute_network.poc</title>
<path fill="none" stroke="black" d="M1966.69,-73.8C2021.24,-62.8 2093.42,-48.24 2149.66,-36.89"/>
<polygon fill="black" stroke="black" points="2150.51,-40.29 2159.62,-34.89 2149.12,-33.43 2150.51,-40.29"/>
</g>
<!-- module.vpn_poc.google_compute_router.cr&#45;&gt;module.vpn_poc.google_compute_network.poc -->
<g id="edge17" class="edge">
<title>module.vpn_poc.google_compute_router.cr&#45;&gt;module.vpn_poc.google_compute_network.poc</title>
<path fill="none" stroke="black" d="M2368.85,-73.17C2344.76,-63.17 2314.03,-50.41 2288.43,-39.79"/>
<polygon fill="black" stroke="black" points="2289.48,-36.43 2278.9,-35.83 2286.8,-42.9 2289.48,-36.43"/>
</g>
<!-- module.vpn_poc.google_compute_router_interface.if0&#45;&gt;module.vpn_poc.google_compute_network.poc -->
<g id="edge13" class="edge">
<title>module.vpn_poc.google_compute_router_interface.if0&#45;&gt;module.vpn_poc.google_compute_network.poc</title>
<path fill="none" stroke="black" d="M2649.84,-249.94C2658.55,-212.31 2673.13,-121.7 2626.37,-73 2601.3,-46.88 2529.97,-33.15 2455.19,-26.02"/>
<polygon fill="black" stroke="black" points="2455.38,-22.52 2445.1,-25.1 2454.75,-29.49 2455.38,-22.52"/>
</g>
<!-- module.vpn_poc.google_compute_router_interface.if0&#45;&gt;module.vpn_poc.google_compute_external_vpn_gateway.peer -->
<g id="edge11" class="edge">
<title>module.vpn_poc.google_compute_router_interface.if0&#45;&gt;module.vpn_poc.google_compute_external_vpn_gateway.peer</title>
<path fill="none" stroke="black" d="M2767.58,-252.11C3019.28,-222.16 3614.01,-155.1 4115.37,-127 4584.48,-100.71 4702.84,-126.21 5172.37,-109 5202.56,-107.89 5234.43,-106.43 5265.7,-104.82"/>
<polygon fill="black" stroke="black" points="5266.03,-108.3 5275.83,-104.29 5265.66,-101.31 5266.03,-108.3"/>
</g>
<!-- module.vpn_poc.google_compute_router_interface.if0&#45;&gt;module.vpn_poc.google_compute_ha_vpn_gateway.gw -->
<g id="edge12" class="edge">
<title>module.vpn_poc.google_compute_router_interface.if0&#45;&gt;module.vpn_poc.google_compute_ha_vpn_gateway.gw</title>
<path fill="none" stroke="black" d="M2405.16,-261.33C2213.52,-254.74 1971.09,-240.96 1933.37,-213 1917.85,-201.49 1902.04,-151.13 1893.29,-119.12"/>
<polygon fill="black" stroke="black" points="1896.67,-118.2 1890.7,-109.44 1889.9,-120 1896.67,-118.2"/>
</g>
<!-- module.vpn_poc.google_compute_router_interface.if0&#45;&gt;module.vpn_poc.google_compute_router.cr -->
<g id="edge14" class="edge">
<title>module.vpn_poc.google_compute_router_interface.if0&#45;&gt;module.vpn_poc.google_compute_router.cr</title>
<path fill="none" stroke="black" d="M2622.31,-249.9C2579.64,-218.26 2488.34,-150.56 2440.34,-114.96"/>
<polygon fill="black" stroke="black" points="2442.29,-112.06 2432.18,-108.91 2438.12,-117.68 2442.29,-112.06"/>
</g>
<!-- module.vpn_poc.google_compute_router_interface.if0&#45;&gt;module.vpn_poc.google_compute_vpn_tunnel.t0 -->
<g id="edge15" class="edge">
<title>module.vpn_poc.google_compute_router_interface.if0&#45;&gt;module.vpn_poc.google_compute_vpn_tunnel.t0</title>
<path fill="none" stroke="black" d="M2551.56,-251.2C2471.94,-237.79 2357.9,-218.58 2275.89,-204.77"/>
<polygon fill="black" stroke="black" points="2276.25,-201.28 2265.8,-203.07 2275.08,-208.18 2276.25,-201.28"/>
</g>
<!-- module.vpn_poc.google_compute_vpn_tunnel.t0&#45;&gt;module.vpn_poc.google_compute_network.poc -->
<g id="edge22" class="edge">
<title>module.vpn_poc.google_compute_vpn_tunnel.t0&#45;&gt;module.vpn_poc.google_compute_network.poc</title>
<path fill="none" stroke="black" d="M2173.47,-168.27C2174.22,-145.45 2177.72,-104.41 2192.37,-73 2197.31,-62.4 2204.92,-52.24 2212.53,-43.65"/>
<polygon fill="black" stroke="black" points="2215.19,-45.93 2219.44,-36.23 2210.07,-41.16 2215.19,-45.93"/>
</g>
<!-- module.vpn_poc.google_compute_vpn_tunnel.t0&#45;&gt;module.vpn_poc.google_compute_external_vpn_gateway.peer -->
<g id="edge20" class="edge">
<title>module.vpn_poc.google_compute_vpn_tunnel.t0&#45;&gt;module.vpn_poc.google_compute_external_vpn_gateway.peer</title>
<path fill="none" stroke="black" d="M2377.5,-178.01C2719.1,-165.71 3428.23,-141.18 4028.37,-127 4536.74,-114.99 4664.19,-127.29 5172.37,-109 5202.68,-107.91 5234.68,-106.45 5266.07,-104.83"/>
<polygon fill="black" stroke="black" points="5266.43,-108.32 5276.24,-104.3 5266.07,-101.33 5266.43,-108.32"/>
</g>
<!-- module.vpn_poc.google_compute_vpn_tunnel.t0&#45;&gt;module.vpn_poc.google_compute_ha_vpn_gateway.gw -->
<g id="edge21" class="edge">
<title>module.vpn_poc.google_compute_vpn_tunnel.t0&#45;&gt;module.vpn_poc.google_compute_ha_vpn_gateway.gw</title>
<path fill="none" stroke="black" d="M2122.39,-168.89C2073.52,-152.97 1999.67,-128.91 1947.62,-111.95"/>
<polygon fill="black" stroke="black" points="1948.44,-108.54 1937.84,-108.77 1946.27,-115.19 1948.44,-108.54"/>
</g>
<!-- module.vpn_poc.google_compute_vpn_tunnel.t0&#45;&gt;module.vpn_poc.google_compute_router.cr -->
<g id="edge23" class="edge">
<title>module.vpn_poc.google_compute_vpn_tunnel.t0&#45;&gt;module.vpn_poc.google_compute_router.cr</title>
<path fill="none" stroke="black" d="M2215.56,-168.78C2255.38,-153.01 2315.16,-129.33 2357.79,-112.44"/>
<polygon fill="black" stroke="black" points="2359.14,-115.67 2367.15,-108.73 2356.56,-109.16 2359.14,-115.67"/>
</g>
<!-- module.spoke_shared[0].google_compute_subnetwork_iam_member.cloudservices_sa -->
<g id="node11" class="node">
<title>module.spoke_shared[0].google_compute_subnetwork_iam_member.cloudservices_sa</title>
<ellipse fill="none" stroke="black" cx="3077.37" cy="-91" rx="404.03" ry="18"/>
<text text-anchor="middle" x="3077.37" y="-87.3" font-family="Times,serif" font-size="14.00">module.spoke_shared[0].google_compute_subnetwork_iam_member.cloudservices_sa</text>
</g>
<!-- module.spoke_shared[0].google_compute_subnetwork_iam_member.cloudservices_sa&#45;&gt;module.vpn_poc.google_compute_network.poc -->
<g id="edge10" class="edge">
<title>module.spoke_shared[0].google_compute_subnetwork_iam_member.cloudservices_sa&#45;&gt;module.vpn_poc.google_compute_network.poc</title>
<path fill="none" stroke="black" d="M2901.97,-74.78C2827.21,-68.32 2739.03,-60.74 2659.37,-54 2573.34,-46.72 2477.42,-38.73 2398.88,-32.23"/>
<polygon fill="black" stroke="black" points="2399.16,-28.74 2388.9,-31.41 2398.58,-35.72 2399.16,-28.74"/>
</g>
<!-- module.vpn_poc.google_compute_firewall.from_lan -->
<g id="node12" class="node">
<title>module.vpn_poc.google_compute_firewall.from_lan</title>
<polygon fill="none" stroke="black" points="3877.37,-109 3499.37,-109 3499.37,-73 3877.37,-73 3877.37,-109"/>
<text text-anchor="middle" x="3688.37" y="-87.3" font-family="Times,serif" font-size="14.00">module.vpn_poc.google_compute_firewall.from_lan</text>
</g>
<!-- module.vpn_poc.google_compute_firewall.from_lan&#45;&gt;module.vpn_poc.google_compute_network.poc -->
<g id="edge16" class="edge">
<title>module.vpn_poc.google_compute_firewall.from_lan&#45;&gt;module.vpn_poc.google_compute_network.poc</title>
<path fill="none" stroke="black" d="M3499.22,-73.58C3496.25,-73.38 3493.3,-73.19 3490.37,-73 3127.4,-49.6 2704.55,-33.73 2454.84,-25.54"/>
<polygon fill="black" stroke="black" points="2454.66,-22.03 2444.55,-25.2 2454.43,-29.03 2454.66,-22.03"/>
</g>
<!-- module.vpn_poc.google_compute_subnetwork.hub -->
<g id="node13" class="node">
<title>module.vpn_poc.google_compute_subnetwork.hub</title>
<ellipse fill="none" stroke="black" cx="4138.37" cy="-91" rx="243.16" ry="18"/>
<text text-anchor="middle" x="4138.37" y="-87.3" font-family="Times,serif" font-size="14.00">module.vpn_poc.google_compute_subnetwork.hub</text>
</g>
<!-- module.vpn_poc.google_compute_subnetwork.hub&#45;&gt;module.vpn_poc.google_compute_network.poc -->
<g id="edge18" class="edge">
<title>module.vpn_poc.google_compute_subnetwork.hub&#45;&gt;module.vpn_poc.google_compute_network.poc</title>
<path fill="none" stroke="black" d="M3971.35,-77.92C3943,-76.1 3913.85,-74.38 3886.37,-73 3377.45,-47.5 2779.48,-31.36 2462.36,-23.88"/>
<polygon fill="black" stroke="black" points="2462.21,-20.38 2452.13,-23.64 2462.04,-27.38 2462.21,-20.38"/>
</g>
<!-- module.spoke_shared[0].google_compute_subnetwork_iam_member.compute_sa -->
<g id="node14" class="node">
<title>module.spoke_shared[0].google_compute_subnetwork_iam_member.compute_sa</title>
<ellipse fill="none" stroke="black" cx="4781.37" cy="-91" rx="381.53" ry="18"/>
<text text-anchor="middle" x="4781.37" y="-87.3" font-family="Times,serif" font-size="14.00">module.spoke_shared[0].google_compute_subnetwork_iam_member.compute_sa</text>
</g>
<!-- module.spoke_shared[0].google_compute_subnetwork_iam_member.compute_sa&#45;&gt;module.vpn_poc.google_compute_network.poc -->
<g id="edge24" class="edge">
<title>module.spoke_shared[0].google_compute_subnetwork_iam_member.compute_sa&#45;&gt;module.vpn_poc.google_compute_network.poc</title>
<path fill="none" stroke="black" d="M4519.02,-77.93C4476.04,-76.14 4431.97,-74.43 4390.37,-73 3687.93,-48.92 2856.15,-31.08 2464.17,-23.3"/>
<polygon fill="black" stroke="black" points="2464.2,-19.8 2454.13,-23.1 2464.06,-26.8 2464.2,-19.8"/>
</g>
<!-- onprem -->
<g id="node15" class="node">
<title>onprem</title>
<path fill="#faece7" stroke="black" d="M5581.37,-213C5581.37,-213 5367.37,-213 5367.37,-213 5361.37,-213 5355.37,-207 5355.37,-201 5355.37,-201 5355.37,-172 5355.37,-172 5355.37,-166 5361.37,-160 5367.37,-160 5367.37,-160 5581.37,-160 5581.37,-160 5587.37,-160 5593.37,-166 5593.37,-172 5593.37,-172 5593.37,-201 5593.37,-201 5593.37,-207 5587.37,-213 5581.37,-213"/>
<text text-anchor="middle" x="5474.37" y="-197.8" font-family="Times,serif" font-size="14.00">On&#45;prem LAN</text>
<text text-anchor="middle" x="5474.37" y="-182.8" font-family="Times,serif" font-size="14.00">192.168.1.0/24</text>
<text text-anchor="middle" x="5474.37" y="-167.8" font-family="Times,serif" font-size="14.00">strongSwan + FRR (AS 65000)</text>
</g>
<!-- onprem&#45;&gt;module.vpn_poc.google_compute_external_vpn_gateway.peer -->
<g id="edge25" class="edge">
<title>onprem&#45;&gt;module.vpn_poc.google_compute_external_vpn_gateway.peer</title>
<path fill="none" stroke="#993c1d" stroke-width="2" d="M5474.37,-159.95C5474.37,-147.36 5474.37,-132.17 5474.37,-119.35"/>
<polygon fill="#993c1d" stroke="#993c1d" stroke-width="2" points="5477.87,-119.24 5474.37,-109.24 5470.87,-119.24 5477.87,-119.24"/>
<text text-anchor="middle" x="5519.87" y="-130.8" font-family="Times,serif" font-size="14.00">IPsec + BGP</text>
</g>
</g>
</svg>
