<?xml version="1.0" encoding="UTF-8" standalone="no"?>
<!DOCTYPE svg PUBLIC "-//W3C//DTD SVG 1.1//EN"
 "http://www.w3.org/Graphics/SVG/1.1/DTD/svg11.dtd">
<!-- Generated by graphviz version 2.43.0 (0)
 -->
<!-- Title: G Pages: 1 -->
<svg width="6379pt" height="367pt"
 viewBox="0.00 0.00 6378.52 367.00" xmlns="http://www.w3.org/2000/svg" xmlns:xlink="http://www.w3.org/1999/xlink">
<g id="graph0" class="graph" transform="scale(1 1) rotate(0) translate(4 363)">
<title>G</title>
<polygon fill="white" stroke="transparent" points="-4,4 -4,-363 6374.52,-363 6374.52,4 -4,4"/>
<!-- module.spoke_shared[0].google_compute_subnetwork_iam_member.compute_sa -->
<g id="node1" class="node">
<title>module.spoke_shared[0].google_compute_subnetwork_iam_member.compute_sa</title>
<ellipse fill="none" stroke="black" cx="381.52" cy="-91" rx="381.53" ry="18"/>
<text text-anchor="middle" x="381.52" y="-87.3" font-family="Times,serif" font-size="14.00">module.spoke_shared[0].google_compute_subnetwork_iam_member.compute_sa</text>
</g>
<!-- module.vpn_poc.google_compute_network.poc -->
<g id="node2" class="node">
<title>module.vpn_poc.google_compute_network.poc</title>
<ellipse fill="none" stroke="black" cx="3072.52" cy="-18" rx="224.76" ry="18"/>
<text text-anchor="middle" x="3072.52" y="-14.3" font-family="Times,serif" font-size="14.00">module.vpn_poc.google_compute_network.poc</text>
</g>
<!-- module.spoke_shared[0].google_compute_subnetwork_iam_member.compute_sa&#45;&gt;module.vpn_poc.google_compute_network.poc -->
<g id="edge1" class="edge">
<title>module.spoke_shared[0].google_compute_subnetwork_iam_member.compute_sa&#45;&gt;module.vpn_poc.google_compute_network.poc</title>
<path fill="none" stroke="black" d="M643.34,-77.89C686.49,-76.11 730.75,-74.4 772.52,-73 1531.61,-47.59 2432.04,-30.13 2844.99,-22.84"/>
<polygon fill="black" stroke="black" points="2845.32,-26.33 2855.26,-22.65 2845.2,-19.33 2845.32,-26.33"/>
</g>
<!-- module.spoke_shared[0].google_compute_subnetwork.lakehouse -->
<g id="node3" class="node">
<title>module.spoke_shared[0].google_compute_subnetwork.lakehouse</title>
<ellipse fill="none" stroke="black" cx="1090.52" cy="-91" rx="309.25" ry="18"/>
<text text-anchor="middle" x="1090.52" y="-87.3" font-family="Times,serif" font-size="14.00">module.spoke_shared[0].google_compute_subnetwork.lakehouse</text>
</g>
<!-- module.spoke_shared[0].google_compute_subnetwork.lakehouse&#45;&gt;module.vpn_poc.google_compute_network.poc -->
<g id="edge2" class="edge">
<title>module.spoke_shared[0].google_compute_subnetwork.lakehouse&#45;&gt;module.vpn_poc.google_compute_network.poc</title>
<path fill="none" stroke="black" d="M1304.55,-77.98C1339.62,-76.19 1375.58,-74.46 1409.52,-73 1926.1,-50.85 2533.29,-33.28 2851.85,-24.71"/>
<polygon fill="black" stroke="black" points="2852.22,-28.2 2862.12,-24.43 2852.03,-21.2 2852.22,-28.2"/>
</g>
<!-- module.vpn_poc.google_compute_subnetwork.crosscloud -->
<g id="node4" class="node">
<title>module.vpn_poc.google_compute_subnetwork.crosscloud</title>
<ellipse fill="none" stroke="black" cx="1692.52" cy="-91" rx="274.05" ry="18"/>
<text text-anchor="middle" x="1692.52" y="-87.3" font-family="Times,serif" font-size="14.00">module.vpn_poc.google_compute_subnetwork.crosscloud</text>
</g>
<!-- module.vpn_poc.google_compute_subnetwork.crosscloud&#45;&gt;module.vpn_poc.google_compute_network.poc -->
<g id="edge3" class="edge">
<title>module.vpn_poc.google_compute_subnetwork.crosscloud&#45;&gt;module.vpn_poc.google_compute_network.poc</title>
<path fill="none" stroke="black" d="M1885.07,-78.15C1915.34,-76.37 1946.27,-74.6 1975.52,-73 2288.9,-55.87 2652.79,-38.45 2872.69,-28.19"/>
<polygon fill="black" stroke="black" points="2872.9,-31.68 2882.72,-27.72 2872.57,-24.69 2872.9,-31.68"/>
</g>
<!-- module.vpn_poc.google_compute_subnetwork.hub -->
<g id="node5" class="node">
<title>module.vpn_poc.google_compute_subnetwork.hub</title>
<ellipse fill="none" stroke="black" cx="2227.52" cy="-91" rx="243.16" ry="18"/>
<text text-anchor="middle" x="2227.52" y="-87.3" font-family="Times,serif" font-size="14.00">module.vpn_poc.google_compute_subnetwork.hub</text>
</g>
<!-- module.vpn_poc.google_compute_subnetwork.hub&#45;&gt;module.vpn_poc.google_compute_network.poc -->
<g id="edge4" class="edge">
<title>module.vpn_poc.google_compute_subnetwork.hub&#45;&gt;module.vpn_poc.google_compute_network.poc</title>
<path fill="none" stroke="black" d="M2381.52,-77.06C2532.17,-64.4 2760.59,-45.21 2913.08,-32.4"/>
<polygon fill="black" stroke="black" points="2913.8,-35.85 2923.47,-31.52 2913.21,-28.87 2913.8,-35.85"/>
</g>
<!-- module.vpn_poc.google_compute_vpn_tunnel.t0 -->
<g id="node6" class="node">
<title>module.vpn_poc.google_compute_vpn_tunnel.t0</title>
<ellipse fill="none" stroke="black" cx="3051.52" cy="-186.5" rx="231.26" ry="18"/>
<text text-anchor="middle" x="3051.52" y="-182.8" font-family="Times,serif" font-size="14.00">module.vpn_poc.google_compute_vpn_tunnel.t0</text>
</g>
<!-- module.vpn_poc.google_compute_vpn_tunnel.t0&#45;&gt;module.vpn_poc.google_compute_network.poc -->
<g id="edge7" class="edge">
<title>module.vpn_poc.google_compute_vpn_tunnel.t0&#45;&gt;module.vpn_poc.google_compute_network.poc</title>
<path fill="none" stroke="black" d="M3050.66,-168.24C3049.8,-142.87 3049.66,-94.19 3058.52,-54 3059.12,-51.28 3059.9,-48.49 3060.8,-45.74"/>
<polygon fill="black" stroke="black" points="3064.18,-46.68 3064.38,-36.09 3057.62,-44.25 3064.18,-46.68"/>
</g>
<!-- module.vpn_poc.google_compute_external_vpn_gateway.peer -->
<g id="node7" class="node">
<title>module.vpn_poc.google_compute_external_vpn_gateway.peer</title>
<ellipse fill="none" stroke="black" cx="5266.52" cy="-91" rx="293.55" ry="18"/>
<text text-anchor="middle" x="5266.52" y="-87.3" font-family="Times,serif" font-size="14.00">module.vpn_poc.google_compute_external_vpn_gateway.peer</text>
</g>
<!-- module.vpn_poc.google_compute_vpn_tunnel.t0&#45;&gt;module.vpn_poc.google_compute_external_vpn_gateway.peer -->
<g id="edge5" class="edge">
<title>module.vpn_poc.google_compute_vpn_tunnel.t0&#45;&gt;module.vpn_poc.google_compute_external_vpn_gateway.peer</title>
<path fill="none" stroke="black" d="M3205.02,-172.99C3380.35,-159.24 3675.9,-137.68 3930.52,-127 4389.29,-107.75 4504.65,-125.86 4963.52,-109 4993.92,-107.88 5026.03,-106.4 5057.52,-104.78"/>
<polygon fill="black" stroke="black" points="5057.92,-108.27 5067.72,-104.25 5057.56,-101.28 5057.92,-108.27"/>
</g>
<!-- module.vpn_poc.google_compute_ha_vpn_gateway.gw -->
<g id="node8" class="node">
<title>module.vpn_poc.google_compute_ha_vpn_gateway.gw</title>
<ellipse fill="none" stroke="black" cx="2747.52" cy="-91" rx="258.85" ry="18"/>
<text text-anchor="middle" x="2747.52" y="-87.3" font-family="Times,serif" font-size="14.00">module.vpn_poc.google_compute_ha_vpn_gateway.gw</text>
</g>
<!-- module.vpn_poc.google_compute_vpn_tunnel.t0&#45;&gt;module.vpn_poc.google_compute_ha_vpn_gateway.gw -->
<g id="edge6" class="edge">
<title>module.vpn_poc.google_compute_vpn_tunnel.t0&#45;&gt;module.vpn_poc.google_compute_ha_vpn_gateway.gw</title>
<path fill="none" stroke="black" d="M2997.52,-168.89C2945.37,-152.85 2866.39,-128.56 2811.2,-111.59"/>
<polygon fill="black" stroke="black" points="2812.11,-108.21 2801.52,-108.61 2810.05,-114.9 2812.11,-108.21"/>
</g>
<!-- module.vpn_poc.google_compute_router.cr -->
<g id="node9" class="node">
<title>module.vpn_poc.google_compute_router.cr</title>
<ellipse fill="none" stroke="black" cx="4746.52" cy="-91" rx="207.96" ry="18"/>
<text text-anchor="middle" x="4746.52" y="-87.3" font-family="Times,serif" font-size="14.00">module.vpn_poc.google_compute_router.cr</text>
</g>
<!-- module.vpn_poc.google_compute_vpn_tunnel.t0&#45;&gt;module.vpn_poc.google_compute_router.cr -->
<g id="edge8" class="edge">
<title>module.vpn_poc.google_compute_vpn_tunnel.t0&#45;&gt;module.vpn_poc.google_compute_router.cr</title>
<path fill="none" stroke="black" d="M3159.55,-170.55C3265.71,-156.55 3432.42,-136.42 3577.52,-127 3999.81,-99.58 4106.83,-129.53 4529.52,-109 4550.87,-107.96 4573.39,-106.55 4595.51,-104.99"/>
<polygon fill="black" stroke="black" points="4595.92,-108.47 4605.64,-104.26 4595.42,-101.48 4595.92,-108.47"/>
</g>
<!-- module.vpn_poc.google_compute_ha_vpn_gateway.gw&#45;&gt;module.vpn_poc.google_compute_network.poc -->
<g id="edge23" class="edge">
<title>module.vpn_poc.google_compute_ha_vpn_gateway.gw&#45;&gt;module.vpn_poc.google_compute_network.poc</title>
<path fill="none" stroke="black" d="M2822.08,-73.71C2871.99,-62.81 2937.74,-48.44 2989.35,-37.17"/>
<polygon fill="black" stroke="black" points="2990.12,-40.58 2999.14,-35.03 2988.63,-33.74 2990.12,-40.58"/>
</g>
<!-- module.vpn_poc.google_compute_router.cr&#45;&gt;module.vpn_poc.google_compute_network.poc -->
<g id="edge17" class="edge">
<title>module.vpn_poc.google_compute_router.cr&#45;&gt;module.vpn_poc.google_compute_network.poc</title>
<path fill="none" stroke="black" d="M4603.29,-77.94C4578.7,-76.11 4553.38,-74.38 4529.52,-73 4092,-47.77 3579.85,-31.96 3294.14,-24.38"/>
<polygon fill="black" stroke="black" points="3294.16,-20.88 3284.07,-24.11 3293.98,-27.88 3294.16,-20.88"/>
</g>
<!-- module.spoke_shared[0].google_compute_subnetwork_iam_member.cloudservices_sa -->
<g id="node10" class="node">
<title>module.spoke_shared[0].google_compute_subnetwork_iam_member.cloudservices_sa</title>
<ellipse fill="none" stroke="black" cx="3504.52" cy="-91" rx="404.03" ry="18"/>
<text text-anchor="middle" x="3504.52" y="-87.3" font-family="Times,serif" font-size="14.00">module.spoke_shared[0].google_compute_subnetwork_iam_member.cloudservices_sa</text>
</g>
<!-- module.spoke_shared[0].google_compute_subnetwork_iam_member.cloudservices_sa&#45;&gt;module.vpn_poc.google_compute_network.poc -->
<g id="edge9" class="edge">
<title>module.spoke_shared[0].google_compute_subnetwork_iam_member.cloudservices_sa&#45;&gt;module.vpn_poc.google_compute_network.poc</title>
<path fill="none" stroke="black" d="M3404.32,-73.53C3335.9,-62.29 3245.47,-47.43 3176.3,-36.06"/>
<polygon fill="black" stroke="black" points="3176.69,-32.57 3166.25,-34.41 3175.55,-39.48 3176.69,-32.57"/>
</g>
<!-- module.spoke_shared[0].google_compute_instance.spoke_test -->
<g id="node11" class="node">
<title>module.spoke_shared[0].google_compute_instance.spoke_test</title>
<ellipse fill="none" stroke="black" cx="4223.52" cy="-91" rx="297.05" ry="18"/>
<text text-anchor="middle" x="4223.52" y="-87.3" font-family="Times,serif" font-size="14.00">module.spoke_shared[0].google_compute_instance.spoke_test</text>
</g>
<!-- module.spoke_shared[0].google_compute_instance.spoke_test&#45;&gt;module.vpn_poc.google_compute_network.poc -->
<g id="edge10" class="edge">
<title>module.spoke_shared[0].google_compute_instance.spoke_test&#45;&gt;module.vpn_poc.google_compute_network.poc</title>
<path fill="none" stroke="black" d="M4023.68,-77.67C3807.07,-64.31 3464.35,-43.17 3254.84,-30.25"/>
<polygon fill="black" stroke="black" points="3254.85,-26.74 3244.65,-29.62 3254.42,-33.73 3254.85,-26.74"/>
</g>
<!-- module.vpn_poc.google_compute_router_peer.peer0 -->
<g id="node12" class="node">
<title>module.vpn_poc.google_compute_router_peer.peer0</title>
<ellipse fill="none" stroke="black" cx="4298.52" cy="-341" rx="250.76" ry="18"/>
<text text-anchor="middle" x="4298.52" y="-337.3" font-family="Times,serif" font-size="14.00">module.vpn_poc.google_compute_router_peer.peer0</text>
</g>
<!-- module.vpn_poc.google_compute_router_peer.peer0&#45;&gt;module.vpn_poc.google_compute_network.poc -->
<g id="edge13" class="edge">
<title>module.vpn_poc.google_compute_router_peer.peer0&#45;&gt;module.vpn_poc.google_compute_network.poc</title>
<path fill="none" stroke="black" d="M4545.62,-337.82C5095.17,-332.17 6370.52,-314.18 6370.52,-269 6370.52,-269 6370.52,-269 6370.52,-90 6370.52,38.95 5339.45,-56.13 5210.52,-54 4514.52,-42.51 3691.08,-29.07 3300.28,-22.71"/>
<polygon fill="black" stroke="black" points="3300.33,-19.21 3290.27,-22.54 3300.22,-26.21 3300.33,-19.21"/>
</g>
<!-- module.vpn_poc.google_compute_router_peer.peer0&#45;&gt;module.vpn_poc.google_compute_vpn_tunnel.t0 -->
<g id="edge16" class="edge">
<title>module.vpn_poc.google_compute_router_peer.peer0&#45;&gt;module.vpn_poc.google_compute_vpn_tunnel.t0</title>
<path fill="none" stroke="black" d="M4066.69,-334.09C3774.83,-325.76 3301.91,-308.98 3223.52,-286 3169.56,-270.18 3114.41,-234.43 3081.57,-210.63"/>
<polygon fill="black" stroke="black" points="3083.45,-207.67 3073.32,-204.56 3079.3,-213.31 3083.45,-207.67"/>
</g>
<!-- module.vpn_poc.google_compute_router_peer.peer0&#45;&gt;module.vpn_poc.google_compute_external_vpn_gateway.peer -->
<g id="edge11" class="edge">
<title>module.vpn_poc.google_compute_router_peer.peer0&#45;&gt;module.vpn_poc.google_compute_external_vpn_gateway.peer</title>
<path fill="none" stroke="black" d="M4362.78,-323.54C4535.27,-279.34 5007.77,-158.29 5191.78,-111.15"/>
<polygon fill="black" stroke="black" points="5192.82,-114.49 5201.64,-108.62 5191.09,-107.71 5192.82,-114.49"/>
</g>
<!-- module.vpn_poc.google_compute_router_peer.peer0&#45;&gt;module.vpn_poc.google_compute_ha_vpn_gateway.gw -->
<g id="edge12" class="edge">
<title>module.vpn_poc.google_compute_router_peer.peer0&#45;&gt;module.vpn_poc.google_compute_ha_vpn_gateway.gw</title>
<path fill="none" stroke="black" d="M4066.02,-334.21C3780.48,-326.22 3312.81,-310.02 3140.52,-286 2975.8,-263.04 2892.01,-329.69 2773.52,-213 2748.78,-188.64 2744.91,-146.84 2745.42,-119.31"/>
<polygon fill="black" stroke="black" points="2748.93,-119.3 2745.82,-109.18 2741.93,-119.03 2748.93,-119.3"/>
</g>
<!-- module.vpn_poc.google_compute_router_peer.peer0&#45;&gt;module.vpn_poc.google_compute_router.cr -->
<g id="edge14" class="edge">
<title>module.vpn_poc.google_compute_router_peer.peer0&#45;&gt;module.vpn_poc.google_compute_router.cr</title>
<path fill="none" stroke="black" d="M4329.31,-322.95C4408.55,-279.09 4619.4,-162.37 4707.25,-113.74"/>
<polygon fill="black" stroke="black" points="4709.05,-116.74 4716.1,-108.84 4705.66,-110.62 4709.05,-116.74"/>
</g>
<!-- module.vpn_poc.google_compute_router_interface.if0 -->
<g id="node13" class="node">
<title>module.vpn_poc.google_compute_router_interface.if0</title>
<ellipse fill="none" stroke="black" cx="3490.52" cy="-268" rx="258.05" ry="18"/>
<text text-anchor="middle" x="3490.52" y="-264.3" font-family="Times,serif" font-size="14.00">module.vpn_poc.google_compute_router_interface.if0</text>
</g>
<!-- module.vpn_poc.google_compute_router_peer.peer0&#45;&gt;module.vpn_poc.google_compute_router_interface.if0 -->
<g id="edge15" class="edge">
<title>module.vpn_poc.google_compute_router_peer.peer0&#45;&gt;module.vpn_poc.google_compute_router_interface.if0</title>
<path fill="none" stroke="black" d="M4146.54,-326.65C4006.25,-314.32 3798.45,-296.06 3654.47,-283.41"/>
<polygon fill="black" stroke="black" points="3654.48,-279.89 3644.22,-282.51 3653.87,-286.87 3654.48,-279.89"/>
</g>
<!-- module.vpn_poc.google_compute_router_interface.if0&#45;&gt;module.vpn_poc.google_compute_network.poc -->
<g id="edge20" class="edge">
<title>module.vpn_poc.google_compute_router_interface.if0&#45;&gt;module.vpn_poc.google_compute_network.poc</title>
<path fill="none" stroke="black" d="M3463.84,-249.92C3426.57,-226.71 3356.21,-185.2 3291.52,-160 3206.04,-126.7 3155.02,-175.2 3091.52,-109 3075.59,-92.39 3071.57,-65.97 3071.1,-46.03"/>
<polygon fill="black" stroke="black" points="3074.6,-46.03 3071.15,-36.01 3067.6,-46 3074.6,-46.03"/>
</g>
<!-- module.vpn_poc.google_compute_router_interface.if0&#45;&gt;module.vpn_poc.google_compute_vpn_tunnel.t0 -->
<g id="edge22" class="edge">
<title>module.vpn_poc.google_compute_router_interface.if0&#45;&gt;module.vpn_poc.google_compute_vpn_tunnel.t0</title>
<path fill="none" stroke="black" d="M3402.15,-251.08C3369.01,-245.1 3331.04,-238.25 3296.52,-232 3247.58,-223.14 3193.14,-213.26 3148.04,-205.06"/>
<polygon fill="black" stroke="black" points="3148.43,-201.57 3137.97,-203.23 3147.18,-208.46 3148.43,-201.57"/>
</g>
<!-- module.vpn_poc.google_compute_router_interface.if0&#45;&gt;module.vpn_poc.google_compute_external_vpn_gateway.peer -->
<g id="edge18" class="edge">
<title>module.vpn_poc.google_compute_router_interface.if0&#45;&gt;module.vpn_poc.google_compute_external_vpn_gateway.peer</title>
<path fill="none" stroke="black" d="M3610.89,-252.02C3835.83,-224.4 4335.41,-164.82 4757.52,-127 4854.56,-118.31 4962.19,-110.62 5053.38,-104.68"/>
<polygon fill="black" stroke="black" points="5053.82,-108.16 5063.57,-104.02 5053.36,-101.18 5053.82,-108.16"/>
</g>
<!-- module.vpn_poc.google_compute_router_interface.if0&#45;&gt;module.vpn_poc.google_compute_ha_vpn_gateway.gw -->
<g id="edge19" class="edge">
<title>module.vpn_poc.google_compute_router_interface.if0&#45;&gt;module.vpn_poc.google_compute_ha_vpn_gateway.gw</title>
<path fill="none" stroke="black" d="M3261.72,-259.64C3079.49,-251.98 2848.9,-237.59 2811.52,-213 2794.33,-201.7 2771.13,-150.36 2757.9,-118.3"/>
<polygon fill="black" stroke="black" points="2761.14,-116.97 2754.13,-109.03 2754.66,-119.61 2761.14,-116.97"/>
</g>
<!-- module.vpn_poc.google_compute_router_interface.if0&#45;&gt;module.vpn_poc.google_compute_router.cr -->
<g id="edge21" class="edge">
<title>module.vpn_poc.google_compute_router_interface.if0&#45;&gt;module.vpn_poc.google_compute_router.cr</title>
<path fill="none" stroke="black" d="M3530.52,-250.1C3606.71,-218.87 3778.6,-152.93 3930.52,-127 4061.79,-104.59 4396.54,-116.2 4529.52,-109 4550.36,-107.87 4572.32,-106.44 4593.94,-104.88"/>
<polygon fill="black" stroke="black" points="4594.46,-108.35 4604.17,-104.14 4593.95,-101.37 4594.46,-108.35"/>
</g>
<!-- module.vpn_poc.google_compute_firewall.from_lan -->
<g id="node14" class="node">
<title>module.vpn_poc.google_compute_firewall.from_lan</title>
<polygon fill="none" stroke="black" points="5956.52,-109 5578.52,-109 5578.52,-73 5956.52,-73 5956.52,-109"/>
<text text-anchor="middle" x="5767.52" y="-87.3" font-family="Times,serif" font-size="14.00">module.vpn_poc.google_compute_firewall.from_lan</text>
</g>
<!-- module.vpn_poc.google_compute_firewall.from_lan&#45;&gt;module.vpn_poc.google_compute_network.poc -->
<g id="edge24" class="edge">
<title>module.vpn_poc.google_compute_firewall.from_lan&#45;&gt;module.vpn_poc.google_compute_network.poc</title>
<path fill="none" stroke="black" d="M5578.37,-73.5C5575.4,-73.32 5572.44,-73.16 5569.52,-73 4738.57,-28.39 3750.2,-20.32 3307.41,-19.07"/>
<polygon fill="black" stroke="black" points="3307.39,-15.57 3297.38,-19.04 3307.37,-22.57 3307.39,-15.57"/>
</g>
<!-- module.vpn_poc.google_compute_firewall.iap_ssh -->
<g id="node15" class="node">
<title>module.vpn_poc.google_compute_firewall.iap_ssh</title>
<polygon fill="none" stroke="black" points="6342.52,-109 5974.52,-109 5974.52,-73 6342.52,-73 6342.52,-109"/>
<text text-anchor="middle" x="6158.52" y="-87.3" font-family="Times,serif" font-size="14.00">module.vpn_poc.google_compute_firewall.iap_ssh</text>
</g>
<!-- module.vpn_poc.google_compute_firewall.iap_ssh&#45;&gt;module.vpn_poc.google_compute_network.poc -->
<g id="edge25" class="edge">
<title>module.vpn_poc.google_compute_firewall.iap_ssh&#45;&gt;module.vpn_poc.google_compute_network.poc</title>
<path fill="none" stroke="black" d="M5974.4,-73.52C5971.42,-73.34 5968.45,-73.16 5965.52,-73 5614.85,-53.36 5526.66,-61.14 5175.52,-54 4494.07,-40.13 3688.33,-27.88 3301.83,-22.26"/>
<polygon fill="black" stroke="black" points="3301.69,-18.76 3291.64,-22.11 3301.59,-25.76 3301.69,-18.76"/>
</g>
<!-- onprem -->
<g id="node16" class="node">
<title>onprem</title>
<path fill="#faece7" stroke="black" d="M5373.52,-213C5373.52,-213 5159.52,-213 5159.52,-213 5153.52,-213 5147.52,-207 5147.52,-201 5147.52,-201 5147.52,-172 5147.52,-172 5147.52,-166 5153.52,-160 5159.52,-160 5159.52,-160 5373.52,-160 5373.52,-160 5379.52,-160 5385.52,-166 5385.52,-172 5385.52,-172 5385.52,-201 5385.52,-201 5385.52,-207 5379.52,-213 5373.52,-213"/>
<text text-anchor="middle" x="5266.52" y="-197.8" font-family="Times,serif" font-size="14.00">On&#45;prem LAN</text>
<text text-anchor="middle" x="5266.52" y="-182.8" font-family="Times,serif" font-size="14.00">192.168.1.0/24</text>
<text text-anchor="middle" x="5266.52" y="-167.8" font-family="Times,serif" font-size="14.00">strongSwan + FRR (AS 65000)</text>
</g>
<!-- onprem&#45;&gt;module.vpn_poc.google_compute_external_vpn_gateway.peer -->
<g id="edge26" class="edge">
<title>onprem&#45;&gt;module.vpn_poc.google_compute_external_vpn_gateway.peer</title>
<path fill="none" stroke="#993c1d" stroke-width="2" d="M5266.52,-159.95C5266.52,-147.36 5266.52,-132.17 5266.52,-119.35"/>
<polygon fill="#993c1d" stroke="#993c1d" stroke-width="2" points="5270.02,-119.24 5266.52,-109.24 5263.02,-119.24 5270.02,-119.24"/>
<text text-anchor="middle" x="5312.02" y="-130.8" font-family="Times,serif" font-size="14.00">IPsec + BGP</text>
</g>
</g>
</svg>
