<?xml version="1.0" encoding="UTF-8" standalone="no"?>
<!DOCTYPE svg PUBLIC "-//W3C//DTD SVG 1.1//EN"
 "http://www.w3.org/Graphics/SVG/1.1/DTD/svg11.dtd">
<!-- Generated by graphviz version 2.43.0 (0)
 -->
<!-- Title: G Pages: 1 -->
<svg width="6380pt" height="367pt"
 viewBox="0.00 0.00 6380.00 367.00" xmlns="http://www.w3.org/2000/svg" xmlns:xlink="http://www.w3.org/1999/xlink">
<g id="graph0" class="graph" transform="scale(1 1) rotate(0) translate(4 363)">
<title>G</title>
<polygon fill="white" stroke="transparent" points="-4,4 -4,-363 6376,-363 6376,4 -4,4"/>
<!-- module.vpn_poc.google_compute_firewall.from_lan -->
<g id="node1" class="node">
<title>module.vpn_poc.google_compute_firewall.from_lan</title>
<polygon fill="none" stroke="black" points="378,-109 0,-109 0,-73 378,-73 378,-109"/>
<text text-anchor="middle" x="189" y="-87.3" font-family="Times,serif" font-size="14.00">module.vpn_poc.google_compute_firewall.from_lan</text>
</g>
<!-- module.vpn_poc.google_compute_network.poc -->
<g id="node2" class="node">
<title>module.vpn_poc.google_compute_network.poc</title>
<ellipse fill="none" stroke="black" cx="2467" cy="-18" rx="224.76" ry="18"/>
<text text-anchor="middle" x="2467" y="-14.3" font-family="Times,serif" font-size="14.00">module.vpn_poc.google_compute_network.poc</text>
</g>
<!-- module.vpn_poc.google_compute_firewall.from_lan&#45;&gt;module.vpn_poc.google_compute_network.poc -->
<g id="edge1" class="edge">
<title>module.vpn_poc.google_compute_firewall.from_lan&#45;&gt;module.vpn_poc.google_compute_network.poc</title>
<path fill="none" stroke="black" d="M378.15,-73.59C381.12,-73.39 384.07,-73.19 387,-73 577.89,-60.59 625.8,-60.25 817,-54 1323.92,-37.43 1918.71,-27.04 2237.48,-22.21"/>
<polygon fill="black" stroke="black" points="2237.82,-25.7 2247.77,-22.05 2237.72,-18.7 2237.82,-25.7"/>
</g>
<!-- module.vpn_poc.google_compute_ha_vpn_gateway.gw -->
<g id="node3" class="node">
<title>module.vpn_poc.google_compute_ha_vpn_gateway.gw</title>
<ellipse fill="none" stroke="black" cx="1127" cy="-91" rx="258.85" ry="18"/>
<text text-anchor="middle" x="1127" y="-87.3" font-family="Times,serif" font-size="14.00">module.vpn_poc.google_compute_ha_vpn_gateway.gw</text>
</g>
<!-- module.vpn_poc.google_compute_ha_vpn_gateway.gw&#45;&gt;module.vpn_poc.google_compute_network.poc -->
<g id="edge2" class="edge">
<title>module.vpn_poc.google_compute_ha_vpn_gateway.gw&#45;&gt;module.vpn_poc.google_compute_network.poc</title>
<path fill="none" stroke="black" d="M1227.23,-74.38C1278.74,-66.97 1342.59,-58.72 1400,-54 1686.16,-30.5 2016.72,-22.62 2233.15,-20.07"/>
<polygon fill="black" stroke="black" points="2233.41,-23.57 2243.37,-19.95 2233.33,-16.57 2233.41,-23.57"/>
</g>
<!-- module.vpn_poc.google_compute_router_interface.if0 -->
<g id="node4" class="node">
<title>module.vpn_poc.google_compute_router_interface.if0</title>
<ellipse fill="none" stroke="black" cx="1430" cy="-268" rx="258.05" ry="18"/>
<text text-anchor="middle" x="1430" y="-264.3" font-family="Times,serif" font-size="14.00">module.vpn_poc.google_compute_router_interface.if0</text>
</g>
<!-- module.vpn_poc.google_compute_router_interface.if0&#45;&gt;module.vpn_poc.google_compute_network.poc -->
<g id="edge5" class="edge">
<title>module.vpn_poc.google_compute_router_interface.if0&#45;&gt;module.vpn_poc.google_compute_network.poc</title>
<path fill="none" stroke="black" d="M1423.56,-249.89C1410.59,-212.17 1386.36,-121.38 1433,-73 1460.6,-44.37 1944.28,-29.51 2240.2,-23.07"/>
<polygon fill="black" stroke="black" points="2240.29,-26.57 2250.21,-22.86 2240.14,-19.57 2240.29,-26.57"/>
</g>
<!-- module.vpn_poc.google_compute_router_interface.if0&#45;&gt;module.vpn_poc.google_compute_ha_vpn_gateway.gw -->
<g id="edge4" class="edge">
<title>module.vpn_poc.google_compute_router_interface.if0&#45;&gt;module.vpn_poc.google_compute_ha_vpn_gateway.gw</title>
<path fill="none" stroke="black" d="M1400.67,-250.06C1345.58,-218.24 1226.66,-149.56 1165.32,-114.13"/>
<polygon fill="black" stroke="black" points="1166.75,-110.92 1156.34,-108.95 1163.25,-116.98 1166.75,-110.92"/>
</g>
<!-- module.vpn_poc.google_compute_external_vpn_gateway.peer -->
<g id="node5" class="node">
<title>module.vpn_poc.google_compute_external_vpn_gateway.peer</title>
<ellipse fill="none" stroke="black" cx="6050" cy="-91" rx="293.55" ry="18"/>
<text text-anchor="middle" x="6050" y="-87.3" font-family="Times,serif" font-size="14.00">module.vpn_poc.google_compute_external_vpn_gateway.peer</text>
</g>
<!-- module.vpn_poc.google_compute_router_interface.if0&#45;&gt;module.vpn_poc.google_compute_external_vpn_gateway.peer -->
<g id="edge3" class="edge">
<title>module.vpn_poc.google_compute_router_interface.if0&#45;&gt;module.vpn_poc.google_compute_external_vpn_gateway.peer</title>
<path fill="none" stroke="black" d="M1655.99,-259.31C2425.19,-233.05 4938.59,-146.47 5747,-109 5775.84,-107.66 5806.22,-106.12 5836.16,-104.52"/>
<polygon fill="black" stroke="black" points="5836.5,-108.01 5846.3,-103.97 5836.12,-101.02 5836.5,-108.01"/>
</g>
<!-- module.vpn_poc.google_compute_router.cr -->
<g id="node6" class="node">
<title>module.vpn_poc.google_compute_router.cr</title>
<ellipse fill="none" stroke="black" cx="604" cy="-91" rx="207.96" ry="18"/>
<text text-anchor="middle" x="604" y="-87.3" font-family="Times,serif" font-size="14.00">module.vpn_poc.google_compute_router.cr</text>
</g>
<!-- module.vpn_poc.google_compute_router_interface.if0&#45;&gt;module.vpn_poc.google_compute_router.cr -->
<g id="edge6" class="edge">
<title>module.vpn_poc.google_compute_router_interface.if0&#45;&gt;module.vpn_poc.google_compute_router.cr</title>
<path fill="none" stroke="black" d="M1179.95,-263.51C966.31,-258.31 686.97,-245.33 645,-213 616.33,-190.92 607.55,-147.83 604.95,-119.49"/>
<polygon fill="black" stroke="black" points="608.44,-119.14 604.23,-109.42 601.46,-119.64 608.44,-119.14"/>
</g>
<!-- module.vpn_poc.google_compute_vpn_tunnel.t0 -->
<g id="node7" class="node">
<title>module.vpn_poc.google_compute_vpn_tunnel.t0</title>
<ellipse fill="none" stroke="black" cx="885" cy="-186.5" rx="231.26" ry="18"/>
<text text-anchor="middle" x="885" y="-182.8" font-family="Times,serif" font-size="14.00">module.vpn_poc.google_compute_vpn_tunnel.t0</text>
</g>
<!-- module.vpn_poc.google_compute_router_interface.if0&#45;&gt;module.vpn_poc.google_compute_vpn_tunnel.t0 -->
<g id="edge7" class="edge">
<title>module.vpn_poc.google_compute_router_interface.if0&#45;&gt;module.vpn_poc.google_compute_vpn_tunnel.t0</title>
<path fill="none" stroke="black" d="M1324.27,-251.58C1230.7,-237.93 1094.48,-218.06 998.61,-204.07"/>
<polygon fill="black" stroke="black" points="998.98,-200.59 988.58,-202.61 997.97,-207.52 998.98,-200.59"/>
</g>
<!-- module.vpn_poc.google_compute_router.cr&#45;&gt;module.vpn_poc.google_compute_network.poc -->
<g id="edge9" class="edge">
<title>module.vpn_poc.google_compute_router.cr&#45;&gt;module.vpn_poc.google_compute_network.poc</title>
<path fill="none" stroke="black" d="M683.55,-74.34C725.7,-66.74 778.47,-58.34 826,-54 1091.73,-29.74 1846.88,-22.24 2233.17,-19.97"/>
<polygon fill="black" stroke="black" points="2233.37,-23.47 2243.35,-19.91 2233.33,-16.47 2233.37,-23.47"/>
</g>
<!-- module.vpn_poc.google_compute_vpn_tunnel.t0&#45;&gt;module.vpn_poc.google_compute_network.poc -->
<g id="edge18" class="edge">
<title>module.vpn_poc.google_compute_vpn_tunnel.t0&#45;&gt;module.vpn_poc.google_compute_network.poc</title>
<path fill="none" stroke="black" d="M872.86,-168.51C856.98,-144.04 833.95,-98.97 859,-73 905.8,-24.49 1796.37,-18.44 2231.57,-18.39"/>
<polygon fill="black" stroke="black" points="2231.76,-21.89 2241.76,-18.39 2231.76,-14.89 2231.76,-21.89"/>
</g>
<!-- module.vpn_poc.google_compute_vpn_tunnel.t0&#45;&gt;module.vpn_poc.google_compute_ha_vpn_gateway.gw -->
<g id="edge17" class="edge">
<title>module.vpn_poc.google_compute_vpn_tunnel.t0&#45;&gt;module.vpn_poc.google_compute_ha_vpn_gateway.gw</title>
<path fill="none" stroke="black" d="M928.26,-168.78C968.96,-153.06 1030.01,-129.47 1073.7,-112.59"/>
<polygon fill="black" stroke="black" points="1075.23,-115.76 1083.29,-108.89 1072.7,-109.23 1075.23,-115.76"/>
</g>
<!-- module.vpn_poc.google_compute_vpn_tunnel.t0&#45;&gt;module.vpn_poc.google_compute_external_vpn_gateway.peer -->
<g id="edge16" class="edge">
<title>module.vpn_poc.google_compute_vpn_tunnel.t0&#45;&gt;module.vpn_poc.google_compute_external_vpn_gateway.peer</title>
<path fill="none" stroke="black" d="M1106.19,-181.14C1638.88,-170.74 3035.16,-144.07 4201,-127 4888.08,-116.94 5060.24,-132.25 5747,-109 5777.77,-107.96 5810.27,-106.51 5842.12,-104.89"/>
<polygon fill="black" stroke="black" points="5842.63,-108.36 5852.43,-104.35 5842.27,-101.37 5842.63,-108.36"/>
</g>
<!-- module.vpn_poc.google_compute_vpn_tunnel.t0&#45;&gt;module.vpn_poc.google_compute_router.cr -->
<g id="edge19" class="edge">
<title>module.vpn_poc.google_compute_vpn_tunnel.t0&#45;&gt;module.vpn_poc.google_compute_router.cr</title>
<path fill="none" stroke="black" d="M835.09,-168.89C787.08,-152.92 714.48,-128.76 663.5,-111.8"/>
<polygon fill="black" stroke="black" points="664.51,-108.45 653.92,-108.61 662.3,-115.09 664.51,-108.45"/>
</g>
<!-- module.spoke_shared[0].google_compute_subnetwork_iam_member.compute_sa -->
<g id="node8" class="node">
<title>module.spoke_shared[0].google_compute_subnetwork_iam_member.compute_sa</title>
<ellipse fill="none" stroke="black" cx="1824" cy="-91" rx="381.53" ry="18"/>
<text text-anchor="middle" x="1824" y="-87.3" font-family="Times,serif" font-size="14.00">module.spoke_shared[0].google_compute_subnetwork_iam_member.compute_sa</text>
</g>
<!-- module.spoke_shared[0].google_compute_subnetwork_iam_member.compute_sa&#45;&gt;module.vpn_poc.google_compute_network.poc -->
<g id="edge8" class="edge">
<title>module.spoke_shared[0].google_compute_subnetwork_iam_member.compute_sa&#45;&gt;module.vpn_poc.google_compute_network.poc</title>
<path fill="none" stroke="black" d="M1966.3,-74.29C2074.88,-62.3 2223.53,-45.88 2330.62,-34.06"/>
<polygon fill="black" stroke="black" points="2331.29,-37.51 2340.85,-32.93 2330.53,-30.55 2331.29,-37.51"/>
</g>
<!-- module.vpn_poc.google_compute_subnetwork.hub -->
<g id="node9" class="node">
<title>module.vpn_poc.google_compute_subnetwork.hub</title>
<ellipse fill="none" stroke="black" cx="2467" cy="-91" rx="243.16" ry="18"/>
<text text-anchor="middle" x="2467" y="-87.3" font-family="Times,serif" font-size="14.00">module.vpn_poc.google_compute_subnetwork.hub</text>
</g>
<!-- module.vpn_poc.google_compute_subnetwork.hub&#45;&gt;module.vpn_poc.google_compute_network.poc -->
<g id="edge10" class="edge">
<title>module.vpn_poc.google_compute_subnetwork.hub&#45;&gt;module.vpn_poc.google_compute_network.poc</title>
<path fill="none" stroke="black" d="M2467,-72.81C2467,-64.79 2467,-55.05 2467,-46.07"/>
<polygon fill="black" stroke="black" points="2470.5,-46.03 2467,-36.03 2463.5,-46.03 2470.5,-46.03"/>
</g>
<!-- module.spoke_shared[0].google_compute_subnetwork.lakehouse -->
<g id="node10" class="node">
<title>module.spoke_shared[0].google_compute_subnetwork.lakehouse</title>
<ellipse fill="none" stroke="black" cx="3037" cy="-91" rx="309.25" ry="18"/>
<text text-anchor="middle" x="3037" y="-87.3" font-family="Times,serif" font-size="14.00">module.spoke_shared[0].google_compute_subnetwork.lakehouse</text>
</g>
<!-- module.spoke_shared[0].google_compute_subnetwork.lakehouse&#45;&gt;module.vpn_poc.google_compute_network.poc -->
<g id="edge11" class="edge">
<title>module.spoke_shared[0].google_compute_subnetwork.lakehouse&#45;&gt;module.vpn_poc.google_compute_network.poc</title>
<path fill="none" stroke="black" d="M2912.62,-74.51C2817.86,-62.7 2687.94,-46.52 2592.83,-34.67"/>
<polygon fill="black" stroke="black" points="2593.22,-31.2 2582.87,-33.43 2592.36,-38.14 2593.22,-31.2"/>
</g>
<!-- module.spoke_shared[0].google_compute_subnetwork_iam_member.cloudservices_sa -->
<g id="node11" class="node">
<title>module.spoke_shared[0].google_compute_subnetwork_iam_member.cloudservices_sa</title>
<ellipse fill="none" stroke="black" cx="3769" cy="-91" rx="404.03" ry="18"/>
<text text-anchor="middle" x="3769" y="-87.3" font-family="Times,serif" font-size="14.00">module.spoke_shared[0].google_compute_subnetwork_iam_member.cloudservices_sa</text>
</g>
<!-- module.spoke_shared[0].google_compute_subnetwork_iam_member.cloudservices_sa&#45;&gt;module.vpn_poc.google_compute_network.poc -->
<g id="edge12" class="edge">
<title>module.spoke_shared[0].google_compute_subnetwork_iam_member.cloudservices_sa&#45;&gt;module.vpn_poc.google_compute_network.poc</title>
<path fill="none" stroke="black" d="M3524.1,-76.65C3272.6,-62.93 2886.45,-41.87 2657.07,-29.36"/>
<polygon fill="black" stroke="black" points="2657.12,-25.86 2646.94,-28.81 2656.74,-32.85 2657.12,-25.86"/>
</g>
<!-- module.vpn_poc.google_compute_subnetwork.crosscloud -->
<g id="node12" class="node">
<title>module.vpn_poc.google_compute_subnetwork.crosscloud</title>
<ellipse fill="none" stroke="black" cx="4466" cy="-91" rx="274.05" ry="18"/>
<text text-anchor="middle" x="4466" y="-87.3" font-family="Times,serif" font-size="14.00">module.vpn_poc.google_compute_subnetwork.crosscloud</text>
</g>
<!-- module.vpn_poc.google_compute_subnetwork.crosscloud&#45;&gt;module.vpn_poc.google_compute_network.poc -->
<g id="edge13" class="edge">
<title>module.vpn_poc.google_compute_subnetwork.crosscloud&#45;&gt;module.vpn_poc.google_compute_network.poc</title>
<path fill="none" stroke="black" d="M4276.99,-77.94C4245.29,-76.13 4212.72,-74.4 4182,-73 3647.06,-48.57 3017.75,-31.82 2690.38,-24.02"/>
<polygon fill="black" stroke="black" points="2690.38,-20.51 2680.3,-23.78 2690.21,-27.51 2690.38,-20.51"/>
</g>
<!-- module.spoke_shared[0].google_compute_instance.spoke_test -->
<g id="node13" class="node">
<title>module.spoke_shared[0].google_compute_instance.spoke_test</title>
<ellipse fill="none" stroke="black" cx="5055" cy="-91" rx="297.05" ry="18"/>
<text text-anchor="middle" x="5055" y="-87.3" font-family="Times,serif" font-size="14.00">module.spoke_shared[0].google_compute_instance.spoke_test</text>
</g>
<!-- module.spoke_shared[0].google_compute_instance.spoke_test&#45;&gt;module.vpn_poc.google_compute_network.poc -->
<g id="edge14" class="edge">
<title>module.spoke_shared[0].google_compute_instance.spoke_test&#45;&gt;module.vpn_poc.google_compute_network.poc</title>
<path fill="none" stroke="black" d="M4852.18,-77.82C4817.75,-76.02 4782.36,-74.32 4749,-73 3998.71,-43.29 3108.96,-27.98 2697.2,-22.03"/>
<polygon fill="black" stroke="black" points="2697.02,-18.52 2686.97,-21.88 2696.91,-25.52 2697.02,-18.52"/>
</g>
<!-- module.vpn_poc.google_compute_firewall.iap_ssh -->
<g id="node14" class="node">
<title>module.vpn_poc.google_compute_firewall.iap_ssh</title>
<polygon fill="none" stroke="black" points="5738,-109 5370,-109 5370,-73 5738,-73 5738,-109"/>
<text text-anchor="middle" x="5554" y="-87.3" font-family="Times,serif" font-size="14.00">module.vpn_poc.google_compute_firewall.iap_ssh</text>
</g>
<!-- module.vpn_poc.google_compute_firewall.iap_ssh&#45;&gt;module.vpn_poc.google_compute_network.poc -->
<g id="edge15" class="edge">
<title>module.vpn_poc.google_compute_firewall.iap_ssh&#45;&gt;module.vpn_poc.google_compute_network.poc</title>
<path fill="none" stroke="black" d="M5369.89,-73.5C5366.9,-73.32 5363.94,-73.16 5361,-73 4844.99,-45.49 3290.27,-27.33 2698.82,-21.25"/>
<polygon fill="black" stroke="black" points="2698.5,-17.75 2688.46,-21.15 2698.43,-24.75 2698.5,-17.75"/>
</g>
<!-- module.vpn_poc.google_compute_router_peer.peer0 -->
<g id="node15" class="node">
<title>module.vpn_poc.google_compute_router_peer.peer0</title>
<ellipse fill="none" stroke="black" cx="1287" cy="-341" rx="250.76" ry="18"/>
<text text-anchor="middle" x="1287" y="-337.3" font-family="Times,serif" font-size="14.00">module.vpn_poc.google_compute_router_peer.peer0</text>
</g>
<!-- module.vpn_poc.google_compute_router_peer.peer0&#45;&gt;module.vpn_poc.google_compute_network.poc -->
<g id="edge22" class="edge">
<title>module.vpn_poc.google_compute_router_peer.peer0&#45;&gt;module.vpn_poc.google_compute_network.poc</title>
<path fill="none" stroke="black" d="M1537.43,-339.81C2560.92,-338.63 6372,-330.15 6372,-269 6372,-269 6372,-269 6372,-90 6372,-78.67 6363.56,-77.12 6353,-73 6267.64,-39.7 3527.75,-24.03 2700.92,-20.05"/>
<polygon fill="black" stroke="black" points="2700.7,-16.55 2690.68,-20 2700.67,-23.55 2700.7,-16.55"/>
</g>
<!-- module.vpn_poc.google_compute_router_peer.peer0&#45;&gt;module.vpn_poc.google_compute_ha_vpn_gateway.gw -->
<g id="edge21" class="edge">
<title>module.vpn_poc.google_compute_router_peer.peer0&#45;&gt;module.vpn_poc.google_compute_ha_vpn_gateway.gw</title>
<path fill="none" stroke="black" d="M1218.35,-323.63C1197.76,-315.52 1176.96,-303.55 1163,-286 1142.78,-260.57 1132.76,-166.28 1128.92,-119.16"/>
<polygon fill="black" stroke="black" points="1132.4,-118.76 1128.14,-109.07 1125.42,-119.31 1132.4,-118.76"/>
</g>
<!-- module.vpn_poc.google_compute_router_peer.peer0&#45;&gt;module.vpn_poc.google_compute_router_interface.if0 -->
<g id="edge24" class="edge">
<title>module.vpn_poc.google_compute_router_peer.peer0&#45;&gt;module.vpn_poc.google_compute_router_interface.if0</title>
<path fill="none" stroke="black" d="M1321.25,-322.99C1340.97,-313.2 1365.94,-300.81 1386.98,-290.36"/>
<polygon fill="black" stroke="black" points="1388.63,-293.45 1396.03,-285.87 1385.51,-287.18 1388.63,-293.45"/>
</g>
<!-- module.vpn_poc.google_compute_router_peer.peer0&#45;&gt;module.vpn_poc.google_compute_external_vpn_gateway.peer -->
<g id="edge20" class="edge">
<title>module.vpn_poc.google_compute_router_peer.peer0&#45;&gt;module.vpn_poc.google_compute_external_vpn_gateway.peer</title>
<path fill="none" stroke="black" d="M1486.81,-330.09C2058.59,-301.67 3750.41,-217.1 5155,-142 5386.64,-129.62 5651.95,-114.7 5833.2,-104.4"/>
<polygon fill="black" stroke="black" points="5833.6,-107.89 5843.39,-103.82 5833.21,-100.9 5833.6,-107.89"/>
</g>
<!-- module.vpn_poc.google_compute_router_peer.peer0&#45;&gt;module.vpn_poc.google_compute_router.cr -->
<g id="edge23" class="edge">
<title>module.vpn_poc.google_compute_router_peer.peer0&#45;&gt;module.vpn_poc.google_compute_router.cr</title>
<path fill="none" stroke="black" d="M1094.04,-329.46C916.81,-315.43 672.35,-283.56 609,-213 586.43,-187.86 590.22,-146.62 596.18,-119.38"/>
<polygon fill="black" stroke="black" points="599.65,-119.89 598.6,-109.35 592.85,-118.24 599.65,-119.89"/>
</g>
<!-- module.vpn_poc.google_compute_router_peer.peer0&#45;&gt;module.vpn_poc.google_compute_vpn_tunnel.t0 -->
<g id="edge25" class="edge">
<title>module.vpn_poc.google_compute_router_peer.peer0&#45;&gt;module.vpn_poc.google_compute_vpn_tunnel.t0</title>
<path fill="none" stroke="black" d="M1199.23,-324.13C1176.4,-319 1152.04,-312.63 1130,-305 1054.15,-278.74 970.89,-235.48 923.58,-209.42"/>
<polygon fill="black" stroke="black" points="925.06,-206.23 914.61,-204.45 921.66,-212.36 925.06,-206.23"/>
</g>
<!-- onprem -->
<g id="node16" class="node">
<title>onprem</title>
<path fill="#faece7" stroke="black" d="M6157,-213C6157,-213 5943,-213 5943,-213 5937,-213 5931,-207 5931,-201 5931,-201 5931,-172 5931,-172 5931,-166 5937,-160 5943,-160 5943,-160 6157,-160 6157,-160 6163,-160 6169,-166 6169,-172 6169,-172 6169,-201 6169,-201 6169,-207 6163,-213 6157,-213"/>
<text text-anchor="middle" x="6050" y="-197.8" font-family="Times,serif" font-size="14.00">On&#45;prem LAN</text>
<text text-anchor="middle" x="6050" y="-182.8" font-family="Times,serif" font-size="14.00">192.168.1.0/24</text>
<text text-anchor="middle" x="6050" y="-167.8" font-family="Times,serif" font-size="14.00">strongSwan + FRR (AS 65000)</text>
</g>
<!-- onprem&#45;&gt;module.vpn_poc.google_compute_external_vpn_gateway.peer -->
<g id="edge26" class="edge">
<title>onprem&#45;&gt;module.vpn_poc.google_compute_external_vpn_gateway.peer</title>
<path fill="none" stroke="#993c1d" stroke-width="2" d="M6050,-159.95C6050,-147.36 6050,-132.17 6050,-119.35"/>
<polygon fill="#993c1d" stroke="#993c1d" stroke-width="2" points="6053.5,-119.24 6050,-109.24 6046.5,-119.24 6053.5,-119.24"/>
<text text-anchor="middle" x="6095.5" y="-130.8" font-family="Times,serif" font-size="14.00">IPsec + BGP</text>
</g>
</g>
</svg>
