<?xml version="1.0" encoding="UTF-8" standalone="no"?>
<!DOCTYPE svg PUBLIC "-//W3C//DTD SVG 1.1//EN"
 "http://www.w3.org/Graphics/SVG/1.1/DTD/svg11.dtd">
<!-- Generated by graphviz version 2.43.0 (0)
 -->
<!-- Title: G Pages: 1 -->
<svg width="6388pt" height="367pt"
 viewBox="0.00 0.00 6387.77 367.00" xmlns="http://www.w3.org/2000/svg" xmlns:xlink="http://www.w3.org/1999/xlink">
<g id="graph0" class="graph" transform="scale(1 1) rotate(0) translate(4 363)">
<title>G</title>
<polygon fill="white" stroke="transparent" points="-4,4 -4,-363 6383.77,-363 6383.77,4 -4,4"/>
<!-- module.vpn_poc.google_compute_router_interface.if0 -->
<g id="node1" class="node">
<title>module.vpn_poc.google_compute_router_interface.if0</title>
<ellipse fill="none" stroke="black" cx="952.77" cy="-268" rx="258.05" ry="18"/>
<text text-anchor="middle" x="952.77" y="-264.3" font-family="Times,serif" font-size="14.00">module.vpn_poc.google_compute_router_interface.if0</text>
</g>
<!-- module.vpn_poc.google_compute_external_vpn_gateway.peer -->
<g id="node2" class="node">
<title>module.vpn_poc.google_compute_external_vpn_gateway.peer</title>
<ellipse fill="none" stroke="black" cx="293.77" cy="-91" rx="293.55" ry="18"/>
<text text-anchor="middle" x="293.77" y="-87.3" font-family="Times,serif" font-size="14.00">module.vpn_poc.google_compute_external_vpn_gateway.peer</text>
</g>
<!-- module.vpn_poc.google_compute_router_interface.if0&#45;&gt;module.vpn_poc.google_compute_external_vpn_gateway.peer -->
<g id="edge1" class="edge">
<title>module.vpn_poc.google_compute_router_interface.if0&#45;&gt;module.vpn_poc.google_compute_external_vpn_gateway.peer</title>
<path fill="none" stroke="black" d="M787.16,-254.19C736.46,-248.68 687.97,-241.32 664.77,-232 615.29,-212.11 616.12,-184.54 568.77,-160 526.47,-138.07 512.86,-139.08 466.77,-127 443.2,-120.82 417.57,-115.1 393.44,-110.16"/>
<polygon fill="black" stroke="black" points="394.06,-106.71 383.56,-108.16 392.67,-113.57 394.06,-106.71"/>
</g>
<!-- module.vpn_poc.google_compute_ha_vpn_gateway.gw -->
<g id="node3" class="node">
<title>module.vpn_poc.google_compute_ha_vpn_gateway.gw</title>
<ellipse fill="none" stroke="black" cx="902.77" cy="-91" rx="258.85" ry="18"/>
<text text-anchor="middle" x="902.77" y="-87.3" font-family="Times,serif" font-size="14.00">module.vpn_poc.google_compute_ha_vpn_gateway.gw</text>
</g>
<!-- module.vpn_poc.google_compute_router_interface.if0&#45;&gt;module.vpn_poc.google_compute_ha_vpn_gateway.gw -->
<g id="edge2" class="edge">
<title>module.vpn_poc.google_compute_router_interface.if0&#45;&gt;module.vpn_poc.google_compute_ha_vpn_gateway.gw</title>
<path fill="none" stroke="black" d="M841.2,-251.77C819.91,-243.64 800.13,-231.39 786.77,-213 772.93,-193.94 775.06,-180.44 786.77,-160 798.91,-138.82 820.48,-123.6 841.76,-113"/>
<polygon fill="black" stroke="black" points="843.27,-116.16 850.83,-108.74 840.29,-109.82 843.27,-116.16"/>
</g>
<!-- module.vpn_poc.google_compute_network.poc -->
<g id="node4" class="node">
<title>module.vpn_poc.google_compute_network.poc</title>
<ellipse fill="none" stroke="black" cx="3125.77" cy="-18" rx="224.76" ry="18"/>
<text text-anchor="middle" x="3125.77" y="-14.3" font-family="Times,serif" font-size="14.00">module.vpn_poc.google_compute_network.poc</text>
</g>
<!-- module.vpn_poc.google_compute_router_interface.if0&#45;&gt;module.vpn_poc.google_compute_network.poc -->
<g id="edge3" class="edge">
<title>module.vpn_poc.google_compute_router_interface.if0&#45;&gt;module.vpn_poc.google_compute_network.poc</title>
<path fill="none" stroke="black" d="M857.45,-251.22C837.92,-246.33 817.82,-240.04 799.77,-232 706.74,-190.56 564.07,-146.29 634.77,-73 673.63,-32.72 2278.61,-22.27 2891.36,-19.75"/>
<polygon fill="black" stroke="black" points="2891.66,-23.25 2901.65,-19.71 2891.63,-16.25 2891.66,-23.25"/>
</g>
<!-- module.vpn_poc.google_compute_router.cr -->
<g id="node5" class="node">
<title>module.vpn_poc.google_compute_router.cr</title>
<ellipse fill="none" stroke="black" cx="1425.77" cy="-91" rx="207.96" ry="18"/>
<text text-anchor="middle" x="1425.77" y="-87.3" font-family="Times,serif" font-size="14.00">module.vpn_poc.google_compute_router.cr</text>
</g>
<!-- module.vpn_poc.google_compute_router_interface.if0&#45;&gt;module.vpn_poc.google_compute_router.cr -->
<g id="edge4" class="edge">
<title>module.vpn_poc.google_compute_router_interface.if0&#45;&gt;module.vpn_poc.google_compute_router.cr</title>
<path fill="none" stroke="black" d="M1135.52,-255.23C1180.26,-247.14 1226.74,-234.03 1266.77,-213 1314.07,-188.15 1307.19,-157.91 1350.77,-127 1357.93,-121.93 1365.93,-117.28 1373.98,-113.15"/>
<polygon fill="black" stroke="black" points="1375.59,-116.26 1383.03,-108.71 1372.51,-109.97 1375.59,-116.26"/>
</g>
<!-- module.vpn_poc.google_compute_vpn_tunnel.t0 -->
<g id="node6" class="node">
<title>module.vpn_poc.google_compute_vpn_tunnel.t0</title>
<ellipse fill="none" stroke="black" cx="1026.77" cy="-186.5" rx="231.26" ry="18"/>
<text text-anchor="middle" x="1026.77" y="-182.8" font-family="Times,serif" font-size="14.00">module.vpn_poc.google_compute_vpn_tunnel.t0</text>
</g>
<!-- module.vpn_poc.google_compute_router_interface.if0&#45;&gt;module.vpn_poc.google_compute_vpn_tunnel.t0 -->
<g id="edge5" class="edge">
<title>module.vpn_poc.google_compute_router_interface.if0&#45;&gt;module.vpn_poc.google_compute_vpn_tunnel.t0</title>
<path fill="none" stroke="black" d="M968.83,-249.75C979.01,-238.81 992.35,-224.48 1003.66,-212.33"/>
<polygon fill="black" stroke="black" points="1006.5,-214.42 1010.75,-204.72 1001.37,-209.65 1006.5,-214.42"/>
</g>
<!-- module.vpn_poc.google_compute_ha_vpn_gateway.gw&#45;&gt;module.vpn_poc.google_compute_network.poc -->
<g id="edge13" class="edge">
<title>module.vpn_poc.google_compute_ha_vpn_gateway.gw&#45;&gt;module.vpn_poc.google_compute_network.poc</title>
<path fill="none" stroke="black" d="M1001.06,-74.3C1052.88,-66.72 1117.61,-58.34 1175.77,-54 1502.39,-29.61 2449,-22.1 2891.99,-19.88"/>
<polygon fill="black" stroke="black" points="2892.06,-23.38 2902.04,-19.83 2892.02,-16.38 2892.06,-23.38"/>
</g>
<!-- module.vpn_poc.google_compute_router.cr&#45;&gt;module.vpn_poc.google_compute_network.poc -->
<g id="edge25" class="edge">
<title>module.vpn_poc.google_compute_router.cr&#45;&gt;module.vpn_poc.google_compute_network.poc</title>
<path fill="none" stroke="black" d="M1569,-77.93C1593.59,-76.1 1618.91,-74.37 1642.77,-73 2089.53,-47.38 2612.73,-31.67 2902.99,-24.21"/>
<polygon fill="black" stroke="black" points="2903.31,-27.7 2913.21,-23.95 2903.13,-20.71 2903.31,-27.7"/>
</g>
<!-- module.vpn_poc.google_compute_vpn_tunnel.t0&#45;&gt;module.vpn_poc.google_compute_external_vpn_gateway.peer -->
<g id="edge20" class="edge">
<title>module.vpn_poc.google_compute_vpn_tunnel.t0&#45;&gt;module.vpn_poc.google_compute_external_vpn_gateway.peer</title>
<path fill="none" stroke="black" d="M923,-170.41C837.43,-158.15 712.82,-140.69 603.77,-127 551.25,-120.4 493.65,-113.74 442.5,-108.03"/>
<polygon fill="black" stroke="black" points="442.69,-104.53 432.36,-106.9 441.91,-111.48 442.69,-104.53"/>
</g>
<!-- module.vpn_poc.google_compute_vpn_tunnel.t0&#45;&gt;module.vpn_poc.google_compute_ha_vpn_gateway.gw -->
<g id="edge21" class="edge">
<title>module.vpn_poc.google_compute_vpn_tunnel.t0&#45;&gt;module.vpn_poc.google_compute_ha_vpn_gateway.gw</title>
<path fill="none" stroke="black" d="M1004.32,-168.57C984.52,-153.64 955.47,-131.74 933.52,-115.18"/>
<polygon fill="black" stroke="black" points="935.57,-112.35 925.48,-109.12 931.36,-117.94 935.57,-112.35"/>
</g>
<!-- module.vpn_poc.google_compute_vpn_tunnel.t0&#45;&gt;module.vpn_poc.google_compute_network.poc -->
<g id="edge22" class="edge">
<title>module.vpn_poc.google_compute_vpn_tunnel.t0&#45;&gt;module.vpn_poc.google_compute_network.poc</title>
<path fill="none" stroke="black" d="M1065.1,-168.63C1095.1,-154.62 1137.22,-133.13 1170.77,-109 1189.66,-95.42 1187.29,-81.92 1208.77,-73 1285.25,-41.27 2400.57,-26.25 2893.94,-21.12"/>
<polygon fill="black" stroke="black" points="2894.07,-24.62 2904.04,-21.02 2894,-17.62 2894.07,-24.62"/>
</g>
<!-- module.vpn_poc.google_compute_vpn_tunnel.t0&#45;&gt;module.vpn_poc.google_compute_router.cr -->
<g id="edge23" class="edge">
<title>module.vpn_poc.google_compute_vpn_tunnel.t0&#45;&gt;module.vpn_poc.google_compute_router.cr</title>
<path fill="none" stroke="black" d="M1094.06,-169.22C1143.26,-157.38 1211.62,-141.02 1271.77,-127 1295.49,-121.47 1321.28,-115.57 1344.86,-110.21"/>
<polygon fill="black" stroke="black" points="1345.84,-113.58 1354.82,-107.96 1344.29,-106.76 1345.84,-113.58"/>
</g>
<!-- module.vpn_poc.google_compute_subnetwork.crosscloud -->
<g id="node7" class="node">
<title>module.vpn_poc.google_compute_subnetwork.crosscloud</title>
<ellipse fill="none" stroke="black" cx="1925.77" cy="-91" rx="274.05" ry="18"/>
<text text-anchor="middle" x="1925.77" y="-87.3" font-family="Times,serif" font-size="14.00">module.vpn_poc.google_compute_subnetwork.crosscloud</text>
</g>
<!-- module.vpn_poc.google_compute_subnetwork.crosscloud&#45;&gt;module.vpn_poc.google_compute_network.poc -->
<g id="edge6" class="edge">
<title>module.vpn_poc.google_compute_subnetwork.crosscloud&#45;&gt;module.vpn_poc.google_compute_network.poc</title>
<path fill="none" stroke="black" d="M2120.25,-78.29C2149.91,-76.51 2180.15,-74.7 2208.77,-73 2462.01,-57.94 2754.6,-40.74 2939.86,-29.88"/>
<polygon fill="black" stroke="black" points="2940.2,-33.37 2949.98,-29.29 2939.79,-26.38 2940.2,-33.37"/>
</g>
<!-- module.vpn_poc.google_compute_subnetwork.hub -->
<g id="node8" class="node">
<title>module.vpn_poc.google_compute_subnetwork.hub</title>
<ellipse fill="none" stroke="black" cx="2460.77" cy="-91" rx="243.16" ry="18"/>
<text text-anchor="middle" x="2460.77" y="-87.3" font-family="Times,serif" font-size="14.00">module.vpn_poc.google_compute_subnetwork.hub</text>
</g>
<!-- module.vpn_poc.google_compute_subnetwork.hub&#45;&gt;module.vpn_poc.google_compute_network.poc -->
<g id="edge7" class="edge">
<title>module.vpn_poc.google_compute_subnetwork.hub&#45;&gt;module.vpn_poc.google_compute_network.poc</title>
<path fill="none" stroke="black" d="M2592.95,-75.89C2706.86,-63.73 2870.78,-46.22 2986.67,-33.85"/>
<polygon fill="black" stroke="black" points="2987.1,-37.33 2996.68,-32.78 2986.36,-30.36 2987.1,-37.33"/>
</g>
<!-- module.spoke_shared[0].google_compute_subnetwork_iam_member.cloudservices_sa -->
<g id="node9" class="node">
<title>module.spoke_shared[0].google_compute_subnetwork_iam_member.cloudservices_sa</title>
<ellipse fill="none" stroke="black" cx="3125.77" cy="-91" rx="404.03" ry="18"/>
<text text-anchor="middle" x="3125.77" y="-87.3" font-family="Times,serif" font-size="14.00">module.spoke_shared[0].google_compute_subnetwork_iam_member.cloudservices_sa</text>
</g>
<!-- module.spoke_shared[0].google_compute_subnetwork_iam_member.cloudservices_sa&#45;&gt;module.vpn_poc.google_compute_network.poc -->
<g id="edge8" class="edge">
<title>module.spoke_shared[0].google_compute_subnetwork_iam_member.cloudservices_sa&#45;&gt;module.vpn_poc.google_compute_network.poc</title>
<path fill="none" stroke="black" d="M3125.77,-72.81C3125.77,-64.79 3125.77,-55.05 3125.77,-46.07"/>
<polygon fill="black" stroke="black" points="3129.27,-46.03 3125.77,-36.03 3122.27,-46.03 3129.27,-46.03"/>
</g>
<!-- module.spoke_shared[0].google_compute_subnetwork_iam_member.compute_sa -->
<g id="node10" class="node">
<title>module.spoke_shared[0].google_compute_subnetwork_iam_member.compute_sa</title>
<ellipse fill="none" stroke="black" cx="3929.77" cy="-91" rx="381.53" ry="18"/>
<text text-anchor="middle" x="3929.77" y="-87.3" font-family="Times,serif" font-size="14.00">module.spoke_shared[0].google_compute_subnetwork_iam_member.compute_sa</text>
</g>
<!-- module.spoke_shared[0].google_compute_subnetwork_iam_member.compute_sa&#45;&gt;module.vpn_poc.google_compute_network.poc -->
<g id="edge9" class="edge">
<title>module.spoke_shared[0].google_compute_subnetwork_iam_member.compute_sa&#45;&gt;module.vpn_poc.google_compute_network.poc</title>
<path fill="none" stroke="black" d="M3758.77,-74.9C3617.2,-62.4 3417.76,-44.78 3280.78,-32.69"/>
<polygon fill="black" stroke="black" points="3280.89,-29.18 3270.62,-31.79 3280.27,-36.16 3280.89,-29.18"/>
</g>
<!-- module.spoke_shared[0].google_compute_instance.spoke_test -->
<g id="node11" class="node">
<title>module.spoke_shared[0].google_compute_instance.spoke_test</title>
<ellipse fill="none" stroke="black" cx="4626.77" cy="-91" rx="297.05" ry="18"/>
<text text-anchor="middle" x="4626.77" y="-87.3" font-family="Times,serif" font-size="14.00">module.spoke_shared[0].google_compute_instance.spoke_test</text>
</g>
<!-- module.spoke_shared[0].google_compute_instance.spoke_test&#45;&gt;module.vpn_poc.google_compute_network.poc -->
<g id="edge10" class="edge">
<title>module.spoke_shared[0].google_compute_instance.spoke_test&#45;&gt;module.vpn_poc.google_compute_network.poc</title>
<path fill="none" stroke="black" d="M4418.57,-78.14C4385.84,-76.36 4352.39,-74.59 4320.77,-73 3972.78,-55.47 3567.64,-37.72 3329.73,-27.57"/>
<polygon fill="black" stroke="black" points="3329.73,-24.07 3319.59,-27.14 3329.43,-31.06 3329.73,-24.07"/>
</g>
<!-- module.vpn_poc.google_compute_firewall.from_lan -->
<g id="node12" class="node">
<title>module.vpn_poc.google_compute_firewall.from_lan</title>
<polygon fill="none" stroke="black" points="5319.77,-109 4941.77,-109 4941.77,-73 5319.77,-73 5319.77,-109"/>
<text text-anchor="middle" x="5130.77" y="-87.3" font-family="Times,serif" font-size="14.00">module.vpn_poc.google_compute_firewall.from_lan</text>
</g>
<!-- module.vpn_poc.google_compute_firewall.from_lan&#45;&gt;module.vpn_poc.google_compute_network.poc -->
<g id="edge11" class="edge">
<title>module.vpn_poc.google_compute_firewall.from_lan&#45;&gt;module.vpn_poc.google_compute_network.poc</title>
<path fill="none" stroke="black" d="M4941.62,-73.53C4938.65,-73.35 4935.7,-73.17 4932.77,-73 4366.92,-40.28 3700.16,-26.85 3356.47,-21.78"/>
<polygon fill="black" stroke="black" points="3356.44,-18.28 3346.39,-21.63 3356.34,-25.28 3356.44,-18.28"/>
</g>
<!-- module.spoke_shared[0].google_compute_subnetwork.lakehouse -->
<g id="node13" class="node">
<title>module.spoke_shared[0].google_compute_subnetwork.lakehouse</title>
<ellipse fill="none" stroke="black" cx="5646.77" cy="-91" rx="309.25" ry="18"/>
<text text-anchor="middle" x="5646.77" y="-87.3" font-family="Times,serif" font-size="14.00">module.spoke_shared[0].google_compute_subnetwork.lakehouse</text>
</g>
<!-- module.spoke_shared[0].google_compute_subnetwork.lakehouse&#45;&gt;module.vpn_poc.google_compute_network.poc -->
<g id="edge12" class="edge">
<title>module.spoke_shared[0].google_compute_subnetwork.lakehouse&#45;&gt;module.vpn_poc.google_compute_network.poc</title>
<path fill="none" stroke="black" d="M5435.13,-77.85C5399.63,-76.05 5363.16,-74.35 5328.77,-73 4608.64,-44.67 3755.47,-28.79 3354.97,-22.38"/>
<polygon fill="black" stroke="black" points="3354.78,-18.88 3344.72,-22.22 3354.66,-25.88 3354.78,-18.88"/>
</g>
<!-- module.vpn_poc.google_compute_router_peer.peer0 -->
<g id="node14" class="node">
<title>module.vpn_poc.google_compute_router_peer.peer0</title>
<ellipse fill="none" stroke="black" cx="1215.77" cy="-341" rx="250.76" ry="18"/>
<text text-anchor="middle" x="1215.77" y="-337.3" font-family="Times,serif" font-size="14.00">module.vpn_poc.google_compute_router_peer.peer0</text>
</g>
<!-- module.vpn_poc.google_compute_router_peer.peer0&#45;&gt;module.vpn_poc.google_compute_router_interface.if0 -->
<g id="edge18" class="edge">
<title>module.vpn_poc.google_compute_router_peer.peer0&#45;&gt;module.vpn_poc.google_compute_router_interface.if0</title>
<path fill="none" stroke="black" d="M1154.78,-323.53C1115.66,-312.97 1064.74,-299.23 1023.81,-288.18"/>
<polygon fill="black" stroke="black" points="1024.46,-284.73 1013.9,-285.5 1022.64,-291.49 1024.46,-284.73"/>
</g>
<!-- module.vpn_poc.google_compute_router_peer.peer0&#45;&gt;module.vpn_poc.google_compute_external_vpn_gateway.peer -->
<g id="edge14" class="edge">
<title>module.vpn_poc.google_compute_router_peer.peer0&#45;&gt;module.vpn_poc.google_compute_external_vpn_gateway.peer</title>
<path fill="none" stroke="black" d="M966.68,-338.72C730.62,-331.77 399.59,-305.22 312.77,-213 289.36,-188.12 287.85,-146.81 289.97,-119.49"/>
<polygon fill="black" stroke="black" points="293.47,-119.72 290.97,-109.42 286.5,-119.03 293.47,-119.72"/>
</g>
<!-- module.vpn_poc.google_compute_router_peer.peer0&#45;&gt;module.vpn_poc.google_compute_ha_vpn_gateway.gw -->
<g id="edge15" class="edge">
<title>module.vpn_poc.google_compute_router_peer.peer0&#45;&gt;module.vpn_poc.google_compute_ha_vpn_gateway.gw</title>
<path fill="none" stroke="black" d="M1001.66,-331.6C864.23,-323.94 707.49,-310.04 685.77,-286 625.57,-219.35 678.41,-204.17 796.77,-127 805.72,-121.17 815.73,-116.22 825.93,-112.05"/>
<polygon fill="black" stroke="black" points="827.25,-115.3 835.33,-108.44 824.74,-108.76 827.25,-115.3"/>
</g>
<!-- module.vpn_poc.google_compute_router_peer.peer0&#45;&gt;module.vpn_poc.google_compute_network.poc -->
<g id="edge16" class="edge">
<title>module.vpn_poc.google_compute_router_peer.peer0&#45;&gt;module.vpn_poc.google_compute_network.poc</title>
<path fill="none" stroke="black" d="M1466.24,-339.57C2448.47,-337.49 5983.77,-326.03 5983.77,-269 5983.77,-269 5983.77,-269 5983.77,-90 5983.77,-78.67 5975.32,-77.14 5964.77,-73 5844.6,-25.77 4019.03,-19.68 3360.43,-19.02"/>
<polygon fill="black" stroke="black" points="3360.35,-15.52 3350.34,-19.01 3360.34,-22.52 3360.35,-15.52"/>
</g>
<!-- module.vpn_poc.google_compute_router_peer.peer0&#45;&gt;module.vpn_poc.google_compute_router.cr -->
<g id="edge17" class="edge">
<title>module.vpn_poc.google_compute_router_peer.peer0&#45;&gt;module.vpn_poc.google_compute_router.cr</title>
<path fill="none" stroke="black" d="M1230.21,-322.95C1266.55,-280.04 1361.95,-167.37 1404.62,-116.98"/>
<polygon fill="black" stroke="black" points="1407.45,-119.06 1411.24,-109.17 1402.11,-114.54 1407.45,-119.06"/>
</g>
<!-- module.vpn_poc.google_compute_router_peer.peer0&#45;&gt;module.vpn_poc.google_compute_vpn_tunnel.t0 -->
<g id="edge19" class="edge">
<title>module.vpn_poc.google_compute_router_peer.peer0&#45;&gt;module.vpn_poc.google_compute_vpn_tunnel.t0</title>
<path fill="none" stroke="black" d="M1222.35,-322.94C1228.68,-303.37 1235.23,-271.25 1219.77,-250 1204.39,-228.85 1181.69,-214.71 1157.21,-205.29"/>
<polygon fill="black" stroke="black" points="1158.35,-201.98 1147.76,-201.91 1155.99,-208.57 1158.35,-201.98"/>
</g>
<!-- module.vpn_poc.google_compute_firewall.iap_ssh -->
<g id="node15" class="node">
<title>module.vpn_poc.google_compute_firewall.iap_ssh</title>
<polygon fill="none" stroke="black" points="6379.77,-109 6011.77,-109 6011.77,-73 6379.77,-73 6379.77,-109"/>
<text text-anchor="middle" x="6195.77" y="-87.3" font-family="Times,serif" font-size="14.00">module.vpn_poc.google_compute_firewall.iap_ssh</text>
</g>
<!-- module.vpn_poc.google_compute_firewall.iap_ssh&#45;&gt;module.vpn_poc.google_compute_network.poc -->
<g id="edge24" class="edge">
<title>module.vpn_poc.google_compute_firewall.iap_ssh&#45;&gt;module.vpn_poc.google_compute_network.poc</title>
<path fill="none" stroke="black" d="M6119.09,-72.96C6082.55,-65.64 6038.12,-57.89 5997.77,-54 5739.21,-29.1 3998.76,-21.55 3360.14,-19.6"/>
<polygon fill="black" stroke="black" points="3359.9,-16.1 3349.89,-19.57 3359.88,-23.1 3359.9,-16.1"/>
</g>
<!-- onprem -->
<g id="node16" class="node">
<title>onprem</title>
<path fill="#faece7" stroke="black" d="M547.77,-213C547.77,-213 333.77,-213 333.77,-213 327.77,-213 321.77,-207 321.77,-201 321.77,-201 321.77,-172 321.77,-172 321.77,-166 327.77,-160 333.77,-160 333.77,-160 547.77,-160 547.77,-160 553.77,-160 559.77,-166 559.77,-172 559.77,-172 559.77,-201 559.77,-201 559.77,-207 553.77,-213 547.77,-213"/>
<text text-anchor="middle" x="440.77" y="-197.8" font-family="Times,serif" font-size="14.00">On&#45;prem LAN</text>
<text text-anchor="middle" x="440.77" y="-182.8" font-family="Times,serif" font-size="14.00">192.168.1.0/24</text>
<text text-anchor="middle" x="440.77" y="-167.8" font-family="Times,serif" font-size="14.00">strongSwan + FRR (AS 65000)</text>
</g>
<!-- onprem&#45;&gt;module.vpn_poc.google_compute_external_vpn_gateway.peer -->
<g id="edge26" class="edge">
<title>onprem&#45;&gt;module.vpn_poc.google_compute_external_vpn_gateway.peer</title>
<path fill="none" stroke="#993c1d" stroke-width="2" d="M400.61,-159.95C378.19,-145.69 350.53,-128.1 328.97,-114.39"/>
<polygon fill="#993c1d" stroke="#993c1d" stroke-width="2" points="330.75,-111.37 320.44,-108.96 327,-117.28 330.75,-111.37"/>
<text text-anchor="middle" x="417.27" y="-130.8" font-family="Times,serif" font-size="14.00">IPsec + BGP</text>
</g>
</g>
</svg>
