<?xml version="1.0" encoding="UTF-8" standalone="no"?>
<!DOCTYPE svg PUBLIC "-//W3C//DTD SVG 1.1//EN"
 "http://www.w3.org/Graphics/SVG/1.1/DTD/svg11.dtd">
<!-- Generated by graphviz version 2.43.0 (0)
 -->
<!-- Title: G Pages: 1 -->
<svg width="5777pt" height="367pt"
 viewBox="0.00 0.00 5777.34 367.00" xmlns="http://www.w3.org/2000/svg" xmlns:xlink="http://www.w3.org/1999/xlink">
<g id="graph0" class="graph" transform="scale(1 1) rotate(0) translate(4 363)">
<title>G</title>
<polygon fill="white" stroke="transparent" points="-4,4 -4,-363 5773.34,-363 5773.34,4 -4,4"/>
<!-- module.spoke_shared[0].google_compute_subnetwork_iam_member.cloudservices_sa -->
<g id="node1" class="node">
<title>module.spoke_shared[0].google_compute_subnetwork_iam_member.cloudservices_sa</title>
<ellipse fill="none" stroke="black" cx="404.26" cy="-91" rx="404.03" ry="18"/>
<text text-anchor="middle" x="404.26" y="-87.3" font-family="Times,serif" font-size="14.00">module.spoke_shared[0].google_compute_subnetwork_iam_member.cloudservices_sa</text>
</g>
<!-- module.vpn_poc.google_compute_network.poc -->
<g id="node2" class="node">
<title>module.vpn_poc.google_compute_network.poc</title>
<ellipse fill="none" stroke="black" cx="3543.26" cy="-18" rx="224.76" ry="18"/>
<text text-anchor="middle" x="3543.26" y="-14.3" font-family="Times,serif" font-size="14.00">module.vpn_poc.google_compute_network.poc</text>
</g>
<!-- module.spoke_shared[0].google_compute_subnetwork_iam_member.cloudservices_sa&#45;&gt;module.vpn_poc.google_compute_network.poc -->
<g id="edge1" class="edge">
<title>module.spoke_shared[0].google_compute_subnetwork_iam_member.cloudservices_sa&#45;&gt;module.vpn_poc.google_compute_network.poc</title>
<path fill="none" stroke="black" d="M679.98,-77.83C725.83,-76.04 772.88,-74.35 817.26,-73 1741.93,-44.81 2843.5,-28.19 3312.98,-21.9"/>
<polygon fill="black" stroke="black" points="3313.31,-25.4 3323.27,-21.77 3313.22,-18.4 3313.31,-25.4"/>
</g>
<!-- module.spoke_shared[0].google_compute_subnetwork_iam_member.compute_sa -->
<g id="node3" class="node">
<title>module.spoke_shared[0].google_compute_subnetwork_iam_member.compute_sa</title>
<ellipse fill="none" stroke="black" cx="1208.26" cy="-91" rx="381.53" ry="18"/>
<text text-anchor="middle" x="1208.26" y="-87.3" font-family="Times,serif" font-size="14.00">module.spoke_shared[0].google_compute_subnetwork_iam_member.compute_sa</text>
</g>
<!-- module.spoke_shared[0].google_compute_subnetwork_iam_member.compute_sa&#45;&gt;module.vpn_poc.google_compute_network.poc -->
<g id="edge2" class="edge">
<title>module.spoke_shared[0].google_compute_subnetwork_iam_member.compute_sa&#45;&gt;module.vpn_poc.google_compute_network.poc</title>
<path fill="none" stroke="black" d="M1471.93,-77.97C1514.5,-76.19 1558.1,-74.47 1599.26,-73 2222.71,-50.79 2958.9,-32.51 3320.31,-24.06"/>
<polygon fill="black" stroke="black" points="3320.45,-27.55 3330.36,-23.82 3320.28,-20.56 3320.45,-27.55"/>
</g>
<!-- module.spoke_shared[0].google_compute_subnetwork.lakehouse -->
<g id="node4" class="node">
<title>module.spoke_shared[0].google_compute_subnetwork.lakehouse</title>
<ellipse fill="none" stroke="black" cx="1917.26" cy="-91" rx="309.25" ry="18"/>
<text text-anchor="middle" x="1917.26" y="-87.3" font-family="Times,serif" font-size="14.00">module.spoke_shared[0].google_compute_subnetwork.lakehouse</text>
</g>
<!-- module.spoke_shared[0].google_compute_subnetwork.lakehouse&#45;&gt;module.vpn_poc.google_compute_network.poc -->
<g id="edge3" class="edge">
<title>module.spoke_shared[0].google_compute_subnetwork.lakehouse&#45;&gt;module.vpn_poc.google_compute_network.poc</title>
<path fill="none" stroke="black" d="M2133.89,-78.11C2168.14,-76.33 2203.16,-74.57 2236.26,-73 2623.96,-54.66 3076.52,-36.74 3334.54,-26.85"/>
<polygon fill="black" stroke="black" points="3334.92,-30.34 3344.78,-26.46 3334.65,-23.35 3334.92,-30.34"/>
</g>
<!-- module.vpn_poc.google_compute_subnetwork.crosscloud -->
<g id="node5" class="node">
<title>module.vpn_poc.google_compute_subnetwork.crosscloud</title>
<ellipse fill="none" stroke="black" cx="2519.26" cy="-91" rx="274.05" ry="18"/>
<text text-anchor="middle" x="2519.26" y="-87.3" font-family="Times,serif" font-size="14.00">module.vpn_poc.google_compute_subnetwork.crosscloud</text>
</g>
<!-- module.vpn_poc.google_compute_subnetwork.crosscloud&#45;&gt;module.vpn_poc.google_compute_network.poc -->
<g id="edge4" class="edge">
<title>module.vpn_poc.google_compute_subnetwork.crosscloud&#45;&gt;module.vpn_poc.google_compute_network.poc</title>
<path fill="none" stroke="black" d="M2627.78,-74.44C2681.65,-67.22 2747.77,-59.13 2807.26,-54 2980.6,-39.07 3177.48,-30.12 3323.98,-25.02"/>
<polygon fill="black" stroke="black" points="3324.12,-28.52 3333.99,-24.67 3323.88,-21.52 3324.12,-28.52"/>
</g>
<!-- module.vpn_poc.google_compute_vpn_tunnel.t0 -->
<g id="node6" class="node">
<title>module.vpn_poc.google_compute_vpn_tunnel.t0</title>
<ellipse fill="none" stroke="black" cx="3674.26" cy="-186.5" rx="231.26" ry="18"/>
<text text-anchor="middle" x="3674.26" y="-182.8" font-family="Times,serif" font-size="14.00">module.vpn_poc.google_compute_vpn_tunnel.t0</text>
</g>
<!-- module.vpn_poc.google_compute_vpn_tunnel.t0&#45;&gt;module.vpn_poc.google_compute_network.poc -->
<g id="edge7" class="edge">
<title>module.vpn_poc.google_compute_vpn_tunnel.t0&#45;&gt;module.vpn_poc.google_compute_network.poc</title>
<path fill="none" stroke="black" d="M3578.23,-170.12C3542.59,-159.24 3505.66,-140.68 3484.26,-109 3475.31,-95.74 3477.82,-87.64 3484.26,-73 3489.42,-61.28 3498.52,-51 3508.04,-42.64"/>
<polygon fill="black" stroke="black" points="3510.54,-45.12 3516.07,-36.09 3506.11,-39.7 3510.54,-45.12"/>
</g>
<!-- module.vpn_poc.google_compute_external_vpn_gateway.peer -->
<g id="node7" class="node">
<title>module.vpn_poc.google_compute_external_vpn_gateway.peer</title>
<ellipse fill="none" stroke="black" cx="3143.26" cy="-91" rx="293.55" ry="18"/>
<text text-anchor="middle" x="3143.26" y="-87.3" font-family="Times,serif" font-size="14.00">module.vpn_poc.google_compute_external_vpn_gateway.peer</text>
</g>
<!-- module.vpn_poc.google_compute_vpn_tunnel.t0&#45;&gt;module.vpn_poc.google_compute_external_vpn_gateway.peer -->
<g id="edge5" class="edge">
<title>module.vpn_poc.google_compute_vpn_tunnel.t0&#45;&gt;module.vpn_poc.google_compute_external_vpn_gateway.peer</title>
<path fill="none" stroke="black" d="M3590.27,-169.68C3549.19,-161.74 3499.06,-151.76 3454.26,-142 3426.14,-135.87 3419.55,-132.35 3391.26,-127 3354.85,-120.11 3315.19,-113.93 3278.48,-108.75"/>
<polygon fill="black" stroke="black" points="3278.6,-105.23 3268.21,-107.31 3277.63,-112.16 3278.6,-105.23"/>
</g>
<!-- module.vpn_poc.google_compute_ha_vpn_gateway.gw -->
<g id="node8" class="node">
<title>module.vpn_poc.google_compute_ha_vpn_gateway.gw</title>
<ellipse fill="none" stroke="black" cx="3752.26" cy="-91" rx="258.85" ry="18"/>
<text text-anchor="middle" x="3752.26" y="-87.3" font-family="Times,serif" font-size="14.00">module.vpn_poc.google_compute_ha_vpn_gateway.gw</text>
</g>
<!-- module.vpn_poc.google_compute_vpn_tunnel.t0&#45;&gt;module.vpn_poc.google_compute_ha_vpn_gateway.gw -->
<g id="edge6" class="edge">
<title>module.vpn_poc.google_compute_vpn_tunnel.t0&#45;&gt;module.vpn_poc.google_compute_ha_vpn_gateway.gw</title>
<path fill="none" stroke="black" d="M3688.57,-168.35C3700.56,-153.98 3717.82,-133.28 3731.36,-117.06"/>
<polygon fill="black" stroke="black" points="3734.33,-118.96 3738.05,-109.04 3728.95,-114.48 3734.33,-118.96"/>
</g>
<!-- module.vpn_poc.google_compute_router.cr -->
<g id="node9" class="node">
<title>module.vpn_poc.google_compute_router.cr</title>
<ellipse fill="none" stroke="black" cx="4237.26" cy="-91" rx="207.96" ry="18"/>
<text text-anchor="middle" x="4237.26" y="-87.3" font-family="Times,serif" font-size="14.00">module.vpn_poc.google_compute_router.cr</text>
</g>
<!-- module.vpn_poc.google_compute_vpn_tunnel.t0&#45;&gt;module.vpn_poc.google_compute_router.cr -->
<g id="edge8" class="edge">
<title>module.vpn_poc.google_compute_vpn_tunnel.t0&#45;&gt;module.vpn_poc.google_compute_router.cr</title>
<path fill="none" stroke="black" d="M3767.55,-170.01C3869.12,-153.14 4031.01,-126.25 4135.72,-108.86"/>
<polygon fill="black" stroke="black" points="4136.38,-112.3 4145.67,-107.21 4135.23,-105.4 4136.38,-112.3"/>
</g>
<!-- module.vpn_poc.google_compute_ha_vpn_gateway.gw&#45;&gt;module.vpn_poc.google_compute_network.poc -->
<g id="edge17" class="edge">
<title>module.vpn_poc.google_compute_ha_vpn_gateway.gw&#45;&gt;module.vpn_poc.google_compute_network.poc</title>
<path fill="none" stroke="black" d="M3703,-73.26C3672.7,-62.97 3633.72,-49.73 3601.84,-38.9"/>
<polygon fill="black" stroke="black" points="3602.79,-35.53 3592.2,-35.62 3600.54,-42.15 3602.79,-35.53"/>
</g>
<!-- module.vpn_poc.google_compute_router.cr&#45;&gt;module.vpn_poc.google_compute_network.poc -->
<g id="edge24" class="edge">
<title>module.vpn_poc.google_compute_router.cr&#45;&gt;module.vpn_poc.google_compute_network.poc</title>
<path fill="none" stroke="black" d="M4108.35,-76.81C3988.42,-64.54 3810.03,-46.29 3685.88,-33.59"/>
<polygon fill="black" stroke="black" points="3686.22,-30.11 3675.91,-32.57 3685.5,-37.07 3686.22,-30.11"/>
</g>
<!-- module.vpn_poc.google_compute_firewall.iap_ssh -->
<g id="node10" class="node">
<title>module.vpn_poc.google_compute_firewall.iap_ssh</title>
<polygon fill="none" stroke="black" points="4869.26,-109 4501.26,-109 4501.26,-73 4869.26,-73 4869.26,-109"/>
<text text-anchor="middle" x="4685.26" y="-87.3" font-family="Times,serif" font-size="14.00">module.vpn_poc.google_compute_firewall.iap_ssh</text>
</g>
<!-- module.vpn_poc.google_compute_firewall.iap_ssh&#45;&gt;module.vpn_poc.google_compute_network.poc -->
<g id="edge9" class="edge">
<title>module.vpn_poc.google_compute_firewall.iap_ssh&#45;&gt;module.vpn_poc.google_compute_network.poc</title>
<path fill="none" stroke="black" d="M4606.16,-72.94C4570.07,-65.86 4526.69,-58.29 4487.26,-54 4353.26,-39.41 4002.1,-29.12 3767.93,-23.63"/>
<polygon fill="black" stroke="black" points="3767.99,-20.13 3757.91,-23.4 3767.83,-27.13 3767.99,-20.13"/>
</g>
<!-- module.vpn_poc.google_compute_router_interface.if0 -->
<g id="node11" class="node">
<title>module.vpn_poc.google_compute_router_interface.if0</title>
<ellipse fill="none" stroke="black" cx="3904.26" cy="-268" rx="258.05" ry="18"/>
<text text-anchor="middle" x="3904.26" y="-264.3" font-family="Times,serif" font-size="14.00">module.vpn_poc.google_compute_router_interface.if0</text>
</g>
<!-- module.vpn_poc.google_compute_router_interface.if0&#45;&gt;module.vpn_poc.google_compute_network.poc -->
<g id="edge12" class="edge">
<title>module.vpn_poc.google_compute_router_interface.if0&#45;&gt;module.vpn_poc.google_compute_network.poc</title>
<path fill="none" stroke="black" d="M4107.69,-256.9C4308.04,-239.89 4568.68,-194.39 4454.26,-73 4430.86,-48.17 4026.36,-32.3 3764.3,-24.58"/>
<polygon fill="black" stroke="black" points="3764.36,-21.08 3754.26,-24.29 3764.16,-28.08 3764.36,-21.08"/>
</g>
<!-- module.vpn_poc.google_compute_router_interface.if0&#45;&gt;module.vpn_poc.google_compute_vpn_tunnel.t0 -->
<g id="edge14" class="edge">
<title>module.vpn_poc.google_compute_router_interface.if0&#45;&gt;module.vpn_poc.google_compute_vpn_tunnel.t0</title>
<path fill="none" stroke="black" d="M3855.77,-250.24C3819.84,-237.82 3770.71,-220.84 3732.62,-207.67"/>
<polygon fill="black" stroke="black" points="3733.29,-204.2 3722.69,-204.24 3731,-210.81 3733.29,-204.2"/>
</g>
<!-- module.vpn_poc.google_compute_router_interface.if0&#45;&gt;module.vpn_poc.google_compute_external_vpn_gateway.peer -->
<g id="edge10" class="edge">
<title>module.vpn_poc.google_compute_router_interface.if0&#45;&gt;module.vpn_poc.google_compute_external_vpn_gateway.peer</title>
<path fill="none" stroke="black" d="M3721.76,-255.24C3612.8,-246.43 3485.88,-232.53 3434.26,-213 3395.75,-198.43 3394.07,-180.35 3358.26,-160 3327.31,-142.41 3318.91,-138.64 3285.26,-127 3267.87,-120.98 3248.95,-115.57 3230.75,-110.9"/>
<polygon fill="black" stroke="black" points="3231.58,-107.49 3221.03,-108.45 3229.87,-114.28 3231.58,-107.49"/>
</g>
<!-- module.vpn_poc.google_compute_router_interface.if0&#45;&gt;module.vpn_poc.google_compute_ha_vpn_gateway.gw -->
<g id="edge11" class="edge">
<title>module.vpn_poc.google_compute_router_interface.if0&#45;&gt;module.vpn_poc.google_compute_ha_vpn_gateway.gw</title>
<path fill="none" stroke="black" d="M3912.06,-249.81C3921.03,-227.21 3932.34,-187.19 3914.26,-160 3898.92,-136.92 3874.07,-121.66 3848.39,-111.58"/>
<polygon fill="black" stroke="black" points="3849.5,-108.25 3838.91,-108.09 3847.08,-114.82 3849.5,-108.25"/>
</g>
<!-- module.vpn_poc.google_compute_router_interface.if0&#45;&gt;module.vpn_poc.google_compute_router.cr -->
<g id="edge13" class="edge">
<title>module.vpn_poc.google_compute_router_interface.if0&#45;&gt;module.vpn_poc.google_compute_router.cr</title>
<path fill="none" stroke="black" d="M3936.5,-250.06C3997.29,-218.11 4128.81,-148.99 4195.98,-113.7"/>
<polygon fill="black" stroke="black" points="4197.79,-116.7 4205.01,-108.95 4194.53,-110.5 4197.79,-116.7"/>
</g>
<!-- module.vpn_poc.google_compute_firewall.from_lan -->
<g id="node12" class="node">
<title>module.vpn_poc.google_compute_firewall.from_lan</title>
<polygon fill="none" stroke="black" points="5265.26,-109 4887.26,-109 4887.26,-73 5265.26,-73 5265.26,-109"/>
<text text-anchor="middle" x="5076.26" y="-87.3" font-family="Times,serif" font-size="14.00">module.vpn_poc.google_compute_firewall.from_lan</text>
</g>
<!-- module.vpn_poc.google_compute_firewall.from_lan&#45;&gt;module.vpn_poc.google_compute_network.poc -->
<g id="edge15" class="edge">
<title>module.vpn_poc.google_compute_firewall.from_lan&#45;&gt;module.vpn_poc.google_compute_network.poc</title>
<path fill="none" stroke="black" d="M4887.11,-73.62C4884.14,-73.41 4881.19,-73.2 4878.26,-73 4487.27,-46.29 4030.89,-31.32 3765.73,-24.22"/>
<polygon fill="black" stroke="black" points="3765.69,-20.72 3755.6,-23.95 3765.5,-27.72 3765.69,-20.72"/>
</g>
<!-- module.vpn_poc.google_compute_subnetwork.hub -->
<g id="node13" class="node">
<title>module.vpn_poc.google_compute_subnetwork.hub</title>
<ellipse fill="none" stroke="black" cx="5526.26" cy="-91" rx="243.16" ry="18"/>
<text text-anchor="middle" x="5526.26" y="-87.3" font-family="Times,serif" font-size="14.00">module.vpn_poc.google_compute_subnetwork.hub</text>
</g>
<!-- module.vpn_poc.google_compute_subnetwork.hub&#45;&gt;module.vpn_poc.google_compute_network.poc -->
<g id="edge16" class="edge">
<title>module.vpn_poc.google_compute_subnetwork.hub&#45;&gt;module.vpn_poc.google_compute_network.poc</title>
<path fill="none" stroke="black" d="M5359.25,-77.88C5330.9,-76.07 5301.75,-74.36 5274.26,-73 4734.43,-46.38 4099.21,-30.52 3768.75,-23.43"/>
<polygon fill="black" stroke="black" points="3768.65,-19.93 3758.58,-23.21 3768.5,-26.93 3768.65,-19.93"/>
</g>
<!-- module.vpn_poc.google_compute_router_peer.peer0 -->
<g id="node14" class="node">
<title>module.vpn_poc.google_compute_router_peer.peer0</title>
<ellipse fill="none" stroke="black" cx="3531.26" cy="-341" rx="250.76" ry="18"/>
<text text-anchor="middle" x="3531.26" y="-337.3" font-family="Times,serif" font-size="14.00">module.vpn_poc.google_compute_router_peer.peer0</text>
</g>
<!-- module.vpn_poc.google_compute_router_peer.peer0&#45;&gt;module.vpn_poc.google_compute_network.poc -->
<g id="edge20" class="edge">
<title>module.vpn_poc.google_compute_router_peer.peer0&#45;&gt;module.vpn_poc.google_compute_network.poc</title>
<path fill="none" stroke="black" d="M3283.94,-337.91C3079.03,-332.75 2821.26,-316.77 2821.26,-269 2821.26,-269 2821.26,-269 2821.26,-90 2821.26,-40.04 3098.56,-24.74 3309.46,-20.32"/>
<polygon fill="black" stroke="black" points="3309.84,-23.81 3319.76,-20.11 3309.69,-16.82 3309.84,-23.81"/>
</g>
<!-- module.vpn_poc.google_compute_router_peer.peer0&#45;&gt;module.vpn_poc.google_compute_vpn_tunnel.t0 -->
<g id="edge23" class="edge">
<title>module.vpn_poc.google_compute_router_peer.peer0&#45;&gt;module.vpn_poc.google_compute_vpn_tunnel.t0</title>
<path fill="none" stroke="black" d="M3547.39,-322.8C3572.71,-295.8 3621.9,-243.35 3651.03,-212.28"/>
<polygon fill="black" stroke="black" points="3653.69,-214.56 3657.98,-204.87 3648.58,-209.77 3653.69,-214.56"/>
</g>
<!-- module.vpn_poc.google_compute_router_peer.peer0&#45;&gt;module.vpn_poc.google_compute_external_vpn_gateway.peer -->
<g id="edge18" class="edge">
<title>module.vpn_poc.google_compute_router_peer.peer0&#45;&gt;module.vpn_poc.google_compute_external_vpn_gateway.peer</title>
<path fill="none" stroke="black" d="M3431.42,-324.45C3317.47,-304.43 3141.71,-265.82 3102.26,-213 3080.8,-184.26 3102.82,-143.55 3121.94,-117.45"/>
<polygon fill="black" stroke="black" points="3124.96,-119.27 3128.25,-109.2 3119.4,-115.02 3124.96,-119.27"/>
</g>
<!-- module.vpn_poc.google_compute_router_peer.peer0&#45;&gt;module.vpn_poc.google_compute_ha_vpn_gateway.gw -->
<g id="edge19" class="edge">
<title>module.vpn_poc.google_compute_router_peer.peer0&#45;&gt;module.vpn_poc.google_compute_ha_vpn_gateway.gw</title>
<path fill="none" stroke="black" d="M3509.33,-322.86C3468.99,-289.31 3390.96,-213.55 3434.26,-160 3455.33,-133.96 3525.19,-117.45 3594.09,-107.23"/>
<polygon fill="black" stroke="black" points="3594.84,-110.65 3604.24,-105.76 3593.84,-103.73 3594.84,-110.65"/>
</g>
<!-- module.vpn_poc.google_compute_router_peer.peer0&#45;&gt;module.vpn_poc.google_compute_router.cr -->
<g id="edge21" class="edge">
<title>module.vpn_poc.google_compute_router_peer.peer0&#45;&gt;module.vpn_poc.google_compute_router.cr</title>
<path fill="none" stroke="black" d="M3756.07,-332.99C3927.1,-325.68 4138.54,-311.58 4171.26,-286 4223.07,-245.5 4234.47,-162.35 4236.81,-119.25"/>
<polygon fill="black" stroke="black" points="4240.31,-119.34 4237.23,-109.21 4233.31,-119.05 4240.31,-119.34"/>
</g>
<!-- module.vpn_poc.google_compute_router_peer.peer0&#45;&gt;module.vpn_poc.google_compute_router_interface.if0 -->
<g id="edge22" class="edge">
<title>module.vpn_poc.google_compute_router_peer.peer0&#45;&gt;module.vpn_poc.google_compute_router_interface.if0</title>
<path fill="none" stroke="black" d="M3615.44,-323.98C3673.34,-312.96 3750.31,-298.3 3810.23,-286.9"/>
<polygon fill="black" stroke="black" points="3810.91,-290.33 3820.07,-285.03 3809.6,-283.46 3810.91,-290.33"/>
</g>
<!-- onprem -->
<g id="node15" class="node">
<title>onprem</title>
<path fill="#faece7" stroke="black" d="M3337.26,-213C3337.26,-213 3123.26,-213 3123.26,-213 3117.26,-213 3111.26,-207 3111.26,-201 3111.26,-201 3111.26,-172 3111.26,-172 3111.26,-166 3117.26,-160 3123.26,-160 3123.26,-160 3337.26,-160 3337.26,-160 3343.26,-160 3349.26,-166 3349.26,-172 3349.26,-172 3349.26,-201 3349.26,-201 3349.26,-207 3343.26,-213 3337.26,-213"/>
<text text-anchor="middle" x="3230.26" y="-197.8" font-family="Times,serif" font-size="14.00">On&#45;prem LAN</text>
<text text-anchor="middle" x="3230.26" y="-182.8" font-family="Times,serif" font-size="14.00">192.168.1.0/24</text>
<text text-anchor="middle" x="3230.26" y="-167.8" font-family="Times,serif" font-size="14.00">strongSwan + FRR (AS 65000)</text>
</g>
<!-- onprem&#45;&gt;module.vpn_poc.google_compute_external_vpn_gateway.peer -->
<g id="edge25" class="edge">
<title>onprem&#45;&gt;module.vpn_poc.google_compute_external_vpn_gateway.peer</title>
<path fill="none" stroke="#993c1d" stroke-width="2" d="M3206.49,-159.95C3193.96,-146.48 3178.65,-130.03 3166.24,-116.69"/>
<polygon fill="#993c1d" stroke="#993c1d" stroke-width="2" points="3168.68,-114.18 3159.31,-109.24 3163.56,-118.95 3168.68,-114.18"/>
<text text-anchor="middle" x="3235.76" y="-130.8" font-family="Times,serif" font-size="14.00">IPsec + BGP</text>
</g>
</g>
</svg>
