<?xml version="1.0" encoding="UTF-8" standalone="no"?>
<!DOCTYPE svg PUBLIC "-//W3C//DTD SVG 1.1//EN"
 "http://www.w3.org/Graphics/SVG/1.1/DTD/svg11.dtd">
<!-- Generated by graphviz version 2.43.0 (0)
 -->
<!-- Title: G Pages: 1 -->
<svg width="5777pt" height="367pt"
 viewBox="0.00 0.00 5777.15 367.00" xmlns="http://www.w3.org/2000/svg" xmlns:xlink="http://www.w3.org/1999/xlink">
<g id="graph0" class="graph" transform="scale(1 1) rotate(0) translate(4 363)">
<title>G</title>
<polygon fill="white" stroke="transparent" points="-4,4 -4,-363 5773.15,-363 5773.15,4 -4,4"/>
<!-- module.vpn_poc.google_compute_vpn_tunnel.t0 -->
<g id="node1" class="node">
<title>module.vpn_poc.google_compute_vpn_tunnel.t0</title>
<ellipse fill="none" stroke="black" cx="790.77" cy="-186.5" rx="231.26" ry="18"/>
<text text-anchor="middle" x="790.77" y="-182.8" font-family="Times,serif" font-size="14.00">module.vpn_poc.google_compute_vpn_tunnel.t0</text>
</g>
<!-- module.vpn_poc.google_compute_external_vpn_gateway.peer -->
<g id="node2" class="node">
<title>module.vpn_poc.google_compute_external_vpn_gateway.peer</title>
<ellipse fill="none" stroke="black" cx="293.77" cy="-91" rx="293.55" ry="18"/>
<text text-anchor="middle" x="293.77" y="-87.3" font-family="Times,serif" font-size="14.00">module.vpn_poc.google_compute_external_vpn_gateway.peer</text>
</g>
<!-- module.vpn_poc.google_compute_vpn_tunnel.t0&#45;&gt;module.vpn_poc.google_compute_external_vpn_gateway.peer -->
<g id="edge1" class="edge">
<title>module.vpn_poc.google_compute_vpn_tunnel.t0&#45;&gt;module.vpn_poc.google_compute_external_vpn_gateway.peer</title>
<path fill="none" stroke="black" d="M717.93,-169.37C682.76,-161.42 640,-151.52 601.77,-142 576.77,-135.78 571.03,-132.12 545.77,-127 510.16,-119.79 471.41,-113.59 435.22,-108.51"/>
<polygon fill="black" stroke="black" points="435.47,-105.01 425.09,-107.11 434.51,-111.95 435.47,-105.01"/>
</g>
<!-- module.vpn_poc.google_compute_ha_vpn_gateway.gw -->
<g id="node3" class="node">
<title>module.vpn_poc.google_compute_ha_vpn_gateway.gw</title>
<ellipse fill="none" stroke="black" cx="1760.77" cy="-91" rx="258.85" ry="18"/>
<text text-anchor="middle" x="1760.77" y="-87.3" font-family="Times,serif" font-size="14.00">module.vpn_poc.google_compute_ha_vpn_gateway.gw</text>
</g>
<!-- module.vpn_poc.google_compute_vpn_tunnel.t0&#45;&gt;module.vpn_poc.google_compute_ha_vpn_gateway.gw -->
<g id="edge2" class="edge">
<title>module.vpn_poc.google_compute_vpn_tunnel.t0&#45;&gt;module.vpn_poc.google_compute_ha_vpn_gateway.gw</title>
<path fill="none" stroke="black" d="M880.23,-169.85C959.7,-156.5 1079.14,-137.81 1183.77,-127 1320.61,-112.86 1355.46,-117.35 1492.77,-109 1517.01,-107.53 1542.48,-105.95 1567.68,-104.37"/>
<polygon fill="black" stroke="black" points="1567.93,-107.86 1577.69,-103.74 1567.49,-100.87 1567.93,-107.86"/>
</g>
<!-- module.vpn_poc.google_compute_network.poc -->
<g id="node4" class="node">
<title>module.vpn_poc.google_compute_network.poc</title>
<ellipse fill="none" stroke="black" cx="2182.77" cy="-18" rx="224.76" ry="18"/>
<text text-anchor="middle" x="2182.77" y="-14.3" font-family="Times,serif" font-size="14.00">module.vpn_poc.google_compute_network.poc</text>
</g>
<!-- module.vpn_poc.google_compute_vpn_tunnel.t0&#45;&gt;module.vpn_poc.google_compute_network.poc -->
<g id="edge3" class="edge">
<title>module.vpn_poc.google_compute_vpn_tunnel.t0&#45;&gt;module.vpn_poc.google_compute_network.poc</title>
<path fill="none" stroke="black" d="M734.14,-169.04C675.06,-149.21 596.05,-113.47 634.77,-73 679.33,-26.42 1525.67,-19.33 1947.65,-18.7"/>
<polygon fill="black" stroke="black" points="1947.85,-22.2 1957.85,-18.68 1947.84,-15.2 1947.85,-22.2"/>
</g>
<!-- module.vpn_poc.google_compute_router.cr -->
<g id="node5" class="node">
<title>module.vpn_poc.google_compute_router.cr</title>
<ellipse fill="none" stroke="black" cx="851.77" cy="-91" rx="207.96" ry="18"/>
<text text-anchor="middle" x="851.77" y="-87.3" font-family="Times,serif" font-size="14.00">module.vpn_poc.google_compute_router.cr</text>
</g>
<!-- module.vpn_poc.google_compute_vpn_tunnel.t0&#45;&gt;module.vpn_poc.google_compute_router.cr -->
<g id="edge4" class="edge">
<title>module.vpn_poc.google_compute_vpn_tunnel.t0&#45;&gt;module.vpn_poc.google_compute_router.cr</title>
<path fill="none" stroke="black" d="M801.96,-168.35C811.25,-154.12 824.59,-133.66 835.13,-117.51"/>
<polygon fill="black" stroke="black" points="838.12,-119.33 840.66,-109.04 832.26,-115.5 838.12,-119.33"/>
</g>
<!-- module.vpn_poc.google_compute_ha_vpn_gateway.gw&#45;&gt;module.vpn_poc.google_compute_network.poc -->
<g id="edge19" class="edge">
<title>module.vpn_poc.google_compute_ha_vpn_gateway.gw&#45;&gt;module.vpn_poc.google_compute_network.poc</title>
<path fill="none" stroke="black" d="M1854.69,-74.2C1921.82,-62.9 2012.09,-47.72 2080.95,-36.13"/>
<polygon fill="black" stroke="black" points="2081.66,-39.56 2090.95,-34.45 2080.5,-32.66 2081.66,-39.56"/>
</g>
<!-- module.vpn_poc.google_compute_router.cr&#45;&gt;module.vpn_poc.google_compute_network.poc -->
<g id="edge20" class="edge">
<title>module.vpn_poc.google_compute_router.cr&#45;&gt;module.vpn_poc.google_compute_network.poc</title>
<path fill="none" stroke="black" d="M932.38,-74.36C974.36,-66.86 1026.65,-58.55 1073.77,-54 1238.43,-38.12 1681.33,-27.79 1955.01,-22.72"/>
<polygon fill="black" stroke="black" points="1955.14,-26.21 1965.07,-22.53 1955.01,-19.22 1955.14,-26.21"/>
</g>
<!-- module.vpn_poc.google_compute_firewall.iap_ssh -->
<g id="node6" class="node">
<title>module.vpn_poc.google_compute_firewall.iap_ssh</title>
<polygon fill="none" stroke="black" points="1483.77,-109 1115.77,-109 1115.77,-73 1483.77,-73 1483.77,-109"/>
<text text-anchor="middle" x="1299.77" y="-87.3" font-family="Times,serif" font-size="14.00">module.vpn_poc.google_compute_firewall.iap_ssh</text>
</g>
<!-- module.vpn_poc.google_compute_firewall.iap_ssh&#45;&gt;module.vpn_poc.google_compute_network.poc -->
<g id="edge5" class="edge">
<title>module.vpn_poc.google_compute_firewall.iap_ssh&#45;&gt;module.vpn_poc.google_compute_network.poc</title>
<path fill="none" stroke="black" d="M1483.9,-73.74C1486.88,-73.49 1489.84,-73.24 1492.77,-73 1671.07,-58.17 1875.39,-42.32 2015.14,-31.66"/>
<polygon fill="black" stroke="black" points="2015.8,-35.12 2025.51,-30.87 2015.27,-28.14 2015.8,-35.12"/>
</g>
<!-- module.vpn_poc.google_compute_router_peer.peer0 -->
<g id="node7" class="node">
<title>module.vpn_poc.google_compute_router_peer.peer0</title>
<ellipse fill="none" stroke="black" cx="1243.77" cy="-341" rx="250.76" ry="18"/>
<text text-anchor="middle" x="1243.77" y="-337.3" font-family="Times,serif" font-size="14.00">module.vpn_poc.google_compute_router_peer.peer0</text>
</g>
<!-- module.vpn_poc.google_compute_router_peer.peer0&#45;&gt;module.vpn_poc.google_compute_vpn_tunnel.t0 -->
<g id="edge11" class="edge">
<title>module.vpn_poc.google_compute_router_peer.peer0&#45;&gt;module.vpn_poc.google_compute_vpn_tunnel.t0</title>
<path fill="none" stroke="black" d="M1044.72,-330C921.11,-321.69 782.15,-307.67 762.77,-286 744.76,-265.85 758.02,-234.89 771.76,-213.06"/>
<polygon fill="black" stroke="black" points="774.76,-214.88 777.39,-204.62 768.93,-211 774.76,-214.88"/>
</g>
<!-- module.vpn_poc.google_compute_router_peer.peer0&#45;&gt;module.vpn_poc.google_compute_external_vpn_gateway.peer -->
<g id="edge6" class="edge">
<title>module.vpn_poc.google_compute_router_peer.peer0&#45;&gt;module.vpn_poc.google_compute_external_vpn_gateway.peer</title>
<path fill="none" stroke="black" d="M1054.25,-329.17C782.06,-311.63 307.43,-272.79 256.77,-213 233.68,-185.74 254.86,-144.29 273.38,-117.67"/>
<polygon fill="black" stroke="black" points="276.45,-119.41 279.49,-109.26 270.78,-115.29 276.45,-119.41"/>
</g>
<!-- module.vpn_poc.google_compute_router_peer.peer0&#45;&gt;module.vpn_poc.google_compute_ha_vpn_gateway.gw -->
<g id="edge7" class="edge">
<title>module.vpn_poc.google_compute_router_peer.peer0&#45;&gt;module.vpn_poc.google_compute_ha_vpn_gateway.gw</title>
<path fill="none" stroke="black" d="M1278.9,-323.15C1370.27,-279.32 1615.26,-161.8 1716.28,-113.34"/>
<polygon fill="black" stroke="black" points="1718.09,-116.36 1725.6,-108.87 1715.07,-110.04 1718.09,-116.36"/>
</g>
<!-- module.vpn_poc.google_compute_router_peer.peer0&#45;&gt;module.vpn_poc.google_compute_network.poc -->
<g id="edge8" class="edge">
<title>module.vpn_poc.google_compute_router_peer.peer0&#45;&gt;module.vpn_poc.google_compute_network.poc</title>
<path fill="none" stroke="black" d="M1456.07,-331.38C1694.27,-320.25 2047.77,-298.73 2047.77,-269 2047.77,-269 2047.77,-269 2047.77,-90 2047.77,-65.34 2065.64,-49.22 2088.38,-38.7"/>
<polygon fill="black" stroke="black" points="2089.8,-41.9 2097.66,-34.8 2087.08,-35.45 2089.8,-41.9"/>
</g>
<!-- module.vpn_poc.google_compute_router_peer.peer0&#45;&gt;module.vpn_poc.google_compute_router.cr -->
<g id="edge9" class="edge">
<title>module.vpn_poc.google_compute_router_peer.peer0&#45;&gt;module.vpn_poc.google_compute_router.cr</title>
<path fill="none" stroke="black" d="M1266.06,-322.8C1287,-304.48 1312.9,-274.77 1296.77,-250 1238.23,-160.08 1123.24,-120.81 1024.81,-103.89"/>
<polygon fill="black" stroke="black" points="1025.17,-100.41 1014.73,-102.23 1024.03,-107.31 1025.17,-100.41"/>
</g>
<!-- module.vpn_poc.google_compute_router_interface.if0 -->
<g id="node8" class="node">
<title>module.vpn_poc.google_compute_router_interface.if0</title>
<ellipse fill="none" stroke="black" cx="1029.77" cy="-268" rx="258.05" ry="18"/>
<text text-anchor="middle" x="1029.77" y="-264.3" font-family="Times,serif" font-size="14.00">module.vpn_poc.google_compute_router_interface.if0</text>
</g>
<!-- module.vpn_poc.google_compute_router_peer.peer0&#45;&gt;module.vpn_poc.google_compute_router_interface.if0 -->
<g id="edge10" class="edge">
<title>module.vpn_poc.google_compute_router_peer.peer0&#45;&gt;module.vpn_poc.google_compute_router_interface.if0</title>
<path fill="none" stroke="black" d="M1193.6,-323.35C1162.59,-313.06 1122.6,-299.8 1089.9,-288.95"/>
<polygon fill="black" stroke="black" points="1090.6,-285.49 1080,-285.66 1088.39,-292.14 1090.6,-285.49"/>
</g>
<!-- module.vpn_poc.google_compute_router_interface.if0&#45;&gt;module.vpn_poc.google_compute_vpn_tunnel.t0 -->
<g id="edge16" class="edge">
<title>module.vpn_poc.google_compute_router_interface.if0&#45;&gt;module.vpn_poc.google_compute_vpn_tunnel.t0</title>
<path fill="none" stroke="black" d="M979.67,-250.33C941.99,-237.8 890.22,-220.58 850.4,-207.33"/>
<polygon fill="black" stroke="black" points="851.4,-203.98 840.81,-204.14 849.19,-210.62 851.4,-203.98"/>
</g>
<!-- module.vpn_poc.google_compute_router_interface.if0&#45;&gt;module.vpn_poc.google_compute_external_vpn_gateway.peer -->
<g id="edge12" class="edge">
<title>module.vpn_poc.google_compute_router_interface.if0&#45;&gt;module.vpn_poc.google_compute_external_vpn_gateway.peer</title>
<path fill="none" stroke="black" d="M805.48,-259.05C702.72,-251.94 594.22,-238.49 550.77,-213 525.77,-198.33 535.28,-178.26 512.77,-160 484.49,-137.05 472.27,-138.68 437.77,-127 420.01,-120.99 400.69,-115.56 382.13,-110.87"/>
<polygon fill="black" stroke="black" points="382.76,-107.42 372.21,-108.42 381.08,-114.22 382.76,-107.42"/>
</g>
<!-- module.vpn_poc.google_compute_router_interface.if0&#45;&gt;module.vpn_poc.google_compute_ha_vpn_gateway.gw -->
<g id="edge13" class="edge">
<title>module.vpn_poc.google_compute_router_interface.if0&#45;&gt;module.vpn_poc.google_compute_ha_vpn_gateway.gw</title>
<path fill="none" stroke="black" d="M1088.51,-250.45C1187.78,-222.79 1395.28,-166.36 1572.77,-127 1600.49,-120.86 1630.66,-114.91 1658.56,-109.72"/>
<polygon fill="black" stroke="black" points="1659.52,-113.1 1668.72,-107.84 1658.25,-106.22 1659.52,-113.1"/>
</g>
<!-- module.vpn_poc.google_compute_router_interface.if0&#45;&gt;module.vpn_poc.google_compute_network.poc -->
<g id="edge14" class="edge">
<title>module.vpn_poc.google_compute_router_interface.if0&#45;&gt;module.vpn_poc.google_compute_network.poc</title>
<path fill="none" stroke="black" d="M1042.99,-249.78C1046.81,-244.3 1050.76,-238.07 1053.77,-232 1086.94,-165.3 1047.46,-118.06 1106.77,-73 1140.11,-47.68 1653.05,-31.37 1958.49,-23.84"/>
<polygon fill="black" stroke="black" points="1958.91,-27.33 1968.82,-23.59 1958.74,-20.34 1958.91,-27.33"/>
</g>
<!-- module.vpn_poc.google_compute_router_interface.if0&#45;&gt;module.vpn_poc.google_compute_router.cr -->
<g id="edge15" class="edge">
<title>module.vpn_poc.google_compute_router_interface.if0&#45;&gt;module.vpn_poc.google_compute_router.cr</title>
<path fill="none" stroke="black" d="M1035.56,-249.68C1041.99,-226.94 1049.23,-186.76 1030.77,-160 1014.14,-135.89 987.75,-120.32 960.3,-110.27"/>
<polygon fill="black" stroke="black" points="961.15,-106.86 950.55,-106.94 958.88,-113.49 961.15,-106.86"/>
</g>
<!-- module.vpn_poc.google_compute_subnetwork.hub -->
<g id="node9" class="node">
<title>module.vpn_poc.google_compute_subnetwork.hub</title>
<ellipse fill="none" stroke="black" cx="2318.77" cy="-91" rx="243.16" ry="18"/>
<text text-anchor="middle" x="2318.77" y="-87.3" font-family="Times,serif" font-size="14.00">module.vpn_poc.google_compute_subnetwork.hub</text>
</g>
<!-- module.vpn_poc.google_compute_subnetwork.hub&#45;&gt;module.vpn_poc.google_compute_network.poc -->
<g id="edge17" class="edge">
<title>module.vpn_poc.google_compute_subnetwork.hub&#45;&gt;module.vpn_poc.google_compute_network.poc</title>
<path fill="none" stroke="black" d="M2286.2,-72.99C2267.53,-63.25 2243.91,-50.92 2223.96,-40.5"/>
<polygon fill="black" stroke="black" points="2225.57,-37.39 2215.08,-35.87 2222.33,-43.6 2225.57,-37.39"/>
</g>
<!-- module.spoke_shared[0].google_compute_subnetwork_iam_member.compute_sa -->
<g id="node10" class="node">
<title>module.spoke_shared[0].google_compute_subnetwork_iam_member.compute_sa</title>
<ellipse fill="none" stroke="black" cx="2961.77" cy="-91" rx="381.53" ry="18"/>
<text text-anchor="middle" x="2961.77" y="-87.3" font-family="Times,serif" font-size="14.00">module.spoke_shared[0].google_compute_subnetwork_iam_member.compute_sa</text>
</g>
<!-- module.spoke_shared[0].google_compute_subnetwork_iam_member.compute_sa&#45;&gt;module.vpn_poc.google_compute_network.poc -->
<g id="edge18" class="edge">
<title>module.spoke_shared[0].google_compute_subnetwork_iam_member.compute_sa&#45;&gt;module.vpn_poc.google_compute_network.poc</title>
<path fill="none" stroke="black" d="M2794.66,-74.77C2658.39,-62.35 2467.51,-44.95 2335.33,-32.9"/>
<polygon fill="black" stroke="black" points="2335.4,-29.4 2325.13,-31.97 2334.77,-36.37 2335.4,-29.4"/>
</g>
<!-- module.vpn_poc.google_compute_subnetwork.crosscloud -->
<g id="node11" class="node">
<title>module.vpn_poc.google_compute_subnetwork.crosscloud</title>
<ellipse fill="none" stroke="black" cx="3635.77" cy="-91" rx="274.05" ry="18"/>
<text text-anchor="middle" x="3635.77" y="-87.3" font-family="Times,serif" font-size="14.00">module.vpn_poc.google_compute_subnetwork.crosscloud</text>
</g>
<!-- module.vpn_poc.google_compute_subnetwork.crosscloud&#45;&gt;module.vpn_poc.google_compute_network.poc -->
<g id="edge21" class="edge">
<title>module.vpn_poc.google_compute_subnetwork.crosscloud&#45;&gt;module.vpn_poc.google_compute_network.poc</title>
<path fill="none" stroke="black" d="M3443.98,-78.12C3413.48,-76.33 3382.26,-74.57 3352.77,-73 3014.26,-55.02 2620.47,-37.56 2386.95,-27.56"/>
<polygon fill="black" stroke="black" points="2386.78,-24.05 2376.64,-27.12 2386.48,-31.05 2386.78,-24.05"/>
</g>
<!-- module.vpn_poc.google_compute_firewall.from_lan -->
<g id="node12" class="node">
<title>module.vpn_poc.google_compute_firewall.from_lan</title>
<polygon fill="none" stroke="black" points="4305.77,-109 3927.77,-109 3927.77,-73 4305.77,-73 4305.77,-109"/>
<text text-anchor="middle" x="4116.77" y="-87.3" font-family="Times,serif" font-size="14.00">module.vpn_poc.google_compute_firewall.from_lan</text>
</g>
<!-- module.vpn_poc.google_compute_firewall.from_lan&#45;&gt;module.vpn_poc.google_compute_network.poc -->
<g id="edge22" class="edge">
<title>module.vpn_poc.google_compute_firewall.from_lan&#45;&gt;module.vpn_poc.google_compute_network.poc</title>
<path fill="none" stroke="black" d="M3927.62,-73.53C3924.65,-73.35 3921.7,-73.17 3918.77,-73 3379.51,-41.49 2744.87,-27.63 2412.42,-22.16"/>
<polygon fill="black" stroke="black" points="2412.24,-18.65 2402.18,-21.99 2412.12,-25.65 2412.24,-18.65"/>
</g>
<!-- module.spoke_shared[0].google_compute_subnetwork_iam_member.cloudservices_sa -->
<g id="node13" class="node">
<title>module.spoke_shared[0].google_compute_subnetwork_iam_member.cloudservices_sa</title>
<ellipse fill="none" stroke="black" cx="4727.77" cy="-91" rx="404.03" ry="18"/>
<text text-anchor="middle" x="4727.77" y="-87.3" font-family="Times,serif" font-size="14.00">module.spoke_shared[0].google_compute_subnetwork_iam_member.cloudservices_sa</text>
</g>
<!-- module.spoke_shared[0].google_compute_subnetwork_iam_member.cloudservices_sa&#45;&gt;module.vpn_poc.google_compute_network.poc -->
<g id="edge23" class="edge">
<title>module.spoke_shared[0].google_compute_subnetwork_iam_member.cloudservices_sa&#45;&gt;module.vpn_poc.google_compute_network.poc</title>
<path fill="none" stroke="black" d="M4449.27,-77.93C4404.3,-76.16 4358.26,-74.45 4314.77,-73 3619.69,-49.89 2796.83,-31.62 2407.91,-23.53"/>
<polygon fill="black" stroke="black" points="2407.74,-20.03 2397.67,-23.32 2407.59,-27.03 2407.74,-20.03"/>
</g>
<!-- module.spoke_shared[0].google_compute_subnetwork.lakehouse -->
<g id="node14" class="node">
<title>module.spoke_shared[0].google_compute_subnetwork.lakehouse</title>
<ellipse fill="none" stroke="black" cx="5459.77" cy="-91" rx="309.25" ry="18"/>
<text text-anchor="middle" x="5459.77" y="-87.3" font-family="Times,serif" font-size="14.00">module.spoke_shared[0].google_compute_subnetwork.lakehouse</text>
</g>
<!-- module.spoke_shared[0].google_compute_subnetwork.lakehouse&#45;&gt;module.vpn_poc.google_compute_network.poc -->
<g id="edge24" class="edge">
<title>module.spoke_shared[0].google_compute_subnetwork.lakehouse&#45;&gt;module.vpn_poc.google_compute_network.poc</title>
<path fill="none" stroke="black" d="M5249.62,-77.75C5213.33,-75.94 5175.97,-74.26 5140.77,-73 4126.61,-36.73 2915.93,-24.28 2416.17,-20.49"/>
<polygon fill="black" stroke="black" points="2415.98,-16.99 2405.95,-20.41 2415.92,-23.99 2415.98,-16.99"/>
</g>
<!-- onprem -->
<g id="node15" class="node">
<title>onprem</title>
<path fill="#faece7" stroke="black" d="M491.77,-213C491.77,-213 277.77,-213 277.77,-213 271.77,-213 265.77,-207 265.77,-201 265.77,-201 265.77,-172 265.77,-172 265.77,-166 271.77,-160 277.77,-160 277.77,-160 491.77,-160 491.77,-160 497.77,-160 503.77,-166 503.77,-172 503.77,-172 503.77,-201 503.77,-201 503.77,-207 497.77,-213 491.77,-213"/>
<text text-anchor="middle" x="384.77" y="-197.8" font-family="Times,serif" font-size="14.00">On&#45;prem LAN</text>
<text text-anchor="middle" x="384.77" y="-182.8" font-family="Times,serif" font-size="14.00">192.168.1.0/24</text>
<text text-anchor="middle" x="384.77" y="-167.8" font-family="Times,serif" font-size="14.00">strongSwan + FRR (AS 65000)</text>
</g>
<!-- onprem&#45;&gt;module.vpn_poc.google_compute_external_vpn_gateway.peer -->
<g id="edge25" class="edge">
<title>onprem&#45;&gt;module.vpn_poc.google_compute_external_vpn_gateway.peer</title>
<path fill="none" stroke="#993c1d" stroke-width="2" d="M359.91,-159.95C346.8,-146.48 330.79,-130.03 317.81,-116.69"/>
<polygon fill="#993c1d" stroke="#993c1d" stroke-width="2" points="320.04,-113.97 310.56,-109.24 315.02,-118.85 320.04,-113.97"/>
<text text-anchor="middle" x="388.27" y="-130.8" font-family="Times,serif" font-size="14.00">IPsec + BGP</text>
</g>
</g>
</svg>
