<?xml version="1.0" encoding="UTF-8" standalone="no"?>
<!DOCTYPE svg PUBLIC "-//W3C//DTD SVG 1.1//EN"
 "http://www.w3.org/Graphics/SVG/1.1/DTD/svg11.dtd">
<!-- Generated by graphviz version 2.43.0 (0)
 -->
<!-- Title: G Pages: 1 -->
<svg width="6385pt" height="367pt"
 viewBox="0.00 0.00 6384.59 367.00" xmlns="http://www.w3.org/2000/svg" xmlns:xlink="http://www.w3.org/1999/xlink">
<g id="graph0" class="graph" transform="scale(1 1) rotate(0) translate(4 363)">
<title>G</title>
<polygon fill="white" stroke="transparent" points="-4,4 -4,-363 6380.59,-363 6380.59,4 -4,4"/>
<!-- module.vpn_poc.google_compute_ha_vpn_gateway.gw -->
<g id="node1" class="node">
<title>module.vpn_poc.google_compute_ha_vpn_gateway.gw</title>
<ellipse fill="none" stroke="black" cx="293.81" cy="-91" rx="258.85" ry="18"/>
<text text-anchor="middle" x="293.81" y="-87.3" font-family="Times,serif" font-size="14.00">module.vpn_poc.google_compute_ha_vpn_gateway.gw</text>
</g>
<!-- module.vpn_poc.google_compute_network.poc -->
<g id="node2" class="node">
<title>module.vpn_poc.google_compute_network.poc</title>
<ellipse fill="none" stroke="black" cx="2288.81" cy="-18" rx="224.76" ry="18"/>
<text text-anchor="middle" x="2288.81" y="-14.3" font-family="Times,serif" font-size="14.00">module.vpn_poc.google_compute_network.poc</text>
</g>
<!-- module.vpn_poc.google_compute_ha_vpn_gateway.gw&#45;&gt;module.vpn_poc.google_compute_network.poc -->
<g id="edge1" class="edge">
<title>module.vpn_poc.google_compute_ha_vpn_gateway.gw&#45;&gt;module.vpn_poc.google_compute_network.poc</title>
<path fill="none" stroke="black" d="M392.42,-74.32C444.19,-66.76 508.78,-58.4 566.81,-54 848.76,-32.61 1653.91,-23.72 2055.36,-20.54"/>
<polygon fill="black" stroke="black" points="2055.68,-24.04 2065.65,-20.46 2055.63,-17.04 2055.68,-24.04"/>
</g>
<!-- module.vpn_poc.google_compute_router_peer.peer0 -->
<g id="node3" class="node">
<title>module.vpn_poc.google_compute_router_peer.peer0</title>
<ellipse fill="none" stroke="black" cx="839.81" cy="-341" rx="250.76" ry="18"/>
<text text-anchor="middle" x="839.81" y="-337.3" font-family="Times,serif" font-size="14.00">module.vpn_poc.google_compute_router_peer.peer0</text>
</g>
<!-- module.vpn_poc.google_compute_router_peer.peer0&#45;&gt;module.vpn_poc.google_compute_ha_vpn_gateway.gw -->
<g id="edge3" class="edge">
<title>module.vpn_poc.google_compute_router_peer.peer0&#45;&gt;module.vpn_poc.google_compute_ha_vpn_gateway.gw</title>
<path fill="none" stroke="black" d="M612.61,-333.34C537.94,-328.34 454.87,-319.73 379.81,-305 352.78,-299.7 341.15,-304.58 320.81,-286 274.53,-243.71 280.91,-161.7 288.1,-119.13"/>
<polygon fill="black" stroke="black" points="291.56,-119.67 289.92,-109.2 284.68,-118.41 291.56,-119.67"/>
</g>
<!-- module.vpn_poc.google_compute_router_peer.peer0&#45;&gt;module.vpn_poc.google_compute_network.poc -->
<g id="edge4" class="edge">
<title>module.vpn_poc.google_compute_router_peer.peer0&#45;&gt;module.vpn_poc.google_compute_network.poc</title>
<path fill="none" stroke="black" d="M940.39,-324.47C995.54,-313 1052.81,-294.87 1052.81,-269 1052.81,-269 1052.81,-269 1052.81,-90 1052.81,-78.67 1061.32,-77.28 1071.81,-73 1160.16,-36.98 1728.59,-24.91 2056.44,-20.92"/>
<polygon fill="black" stroke="black" points="2056.59,-24.42 2066.55,-20.8 2056.51,-17.42 2056.59,-24.42"/>
</g>
<!-- module.vpn_poc.google_compute_external_vpn_gateway.peer -->
<g id="node4" class="node">
<title>module.vpn_poc.google_compute_external_vpn_gateway.peer</title>
<ellipse fill="none" stroke="black" cx="6082.81" cy="-91" rx="293.55" ry="18"/>
<text text-anchor="middle" x="6082.81" y="-87.3" font-family="Times,serif" font-size="14.00">module.vpn_poc.google_compute_external_vpn_gateway.peer</text>
</g>
<!-- module.vpn_poc.google_compute_router_peer.peer0&#45;&gt;module.vpn_poc.google_compute_external_vpn_gateway.peer -->
<g id="edge2" class="edge">
<title>module.vpn_poc.google_compute_router_peer.peer0&#45;&gt;module.vpn_poc.google_compute_external_vpn_gateway.peer</title>
<path fill="none" stroke="black" d="M1048.11,-330.96C1728.29,-301.27 3945.96,-203.32 5779.81,-109 5807.82,-107.56 5837.28,-105.98 5866.37,-104.39"/>
<polygon fill="black" stroke="black" points="5866.85,-107.87 5876.65,-103.83 5866.47,-100.88 5866.85,-107.87"/>
</g>
<!-- module.vpn_poc.google_compute_router.cr -->
<g id="node5" class="node">
<title>module.vpn_poc.google_compute_router.cr</title>
<ellipse fill="none" stroke="black" cx="816.81" cy="-91" rx="207.96" ry="18"/>
<text text-anchor="middle" x="816.81" y="-87.3" font-family="Times,serif" font-size="14.00">module.vpn_poc.google_compute_router.cr</text>
</g>
<!-- module.vpn_poc.google_compute_router_peer.peer0&#45;&gt;module.vpn_poc.google_compute_router.cr -->
<g id="edge5" class="edge">
<title>module.vpn_poc.google_compute_router_peer.peer0&#45;&gt;module.vpn_poc.google_compute_router.cr</title>
<path fill="none" stroke="black" d="M856.11,-323.03C874.07,-302.23 899.37,-265.47 890.81,-231 880.22,-188.33 853.74,-144.41 835.5,-117.66"/>
<polygon fill="black" stroke="black" points="838.25,-115.48 829.67,-109.27 832.51,-119.48 838.25,-115.48"/>
</g>
<!-- module.vpn_poc.google_compute_router_interface.if0 -->
<g id="node6" class="node">
<title>module.vpn_poc.google_compute_router_interface.if0</title>
<ellipse fill="none" stroke="black" cx="602.81" cy="-268" rx="258.05" ry="18"/>
<text text-anchor="middle" x="602.81" y="-264.3" font-family="Times,serif" font-size="14.00">module.vpn_poc.google_compute_router_interface.if0</text>
</g>
<!-- module.vpn_poc.google_compute_router_peer.peer0&#45;&gt;module.vpn_poc.google_compute_router_interface.if0 -->
<g id="edge6" class="edge">
<title>module.vpn_poc.google_compute_router_peer.peer0&#45;&gt;module.vpn_poc.google_compute_router_interface.if0</title>
<path fill="none" stroke="black" d="M784.25,-323.35C749.61,-312.98 704.86,-299.57 668.47,-288.67"/>
<polygon fill="black" stroke="black" points="669.03,-285.18 658.44,-285.66 667.02,-291.89 669.03,-285.18"/>
</g>
<!-- module.vpn_poc.google_compute_vpn_tunnel.t0 -->
<g id="node7" class="node">
<title>module.vpn_poc.google_compute_vpn_tunnel.t0</title>
<ellipse fill="none" stroke="black" cx="557.81" cy="-186.5" rx="231.26" ry="18"/>
<text text-anchor="middle" x="557.81" y="-182.8" font-family="Times,serif" font-size="14.00">module.vpn_poc.google_compute_vpn_tunnel.t0</text>
</g>
<!-- module.vpn_poc.google_compute_router_peer.peer0&#45;&gt;module.vpn_poc.google_compute_vpn_tunnel.t0 -->
<g id="edge7" class="edge">
<title>module.vpn_poc.google_compute_router_peer.peer0&#45;&gt;module.vpn_poc.google_compute_vpn_tunnel.t0</title>
<path fill="none" stroke="black" d="M633.38,-330.75C503.35,-322.74 356.27,-308.77 335.81,-286 297.6,-243.48 362.14,-218.37 431.3,-204.15"/>
<polygon fill="black" stroke="black" points="432.4,-207.51 441.53,-202.13 431.04,-200.64 432.4,-207.51"/>
</g>
<!-- module.vpn_poc.google_compute_router.cr&#45;&gt;module.vpn_poc.google_compute_network.poc -->
<g id="edge23" class="edge">
<title>module.vpn_poc.google_compute_router.cr&#45;&gt;module.vpn_poc.google_compute_network.poc</title>
<path fill="none" stroke="black" d="M896.89,-74.38C938.96,-66.84 991.49,-58.48 1038.81,-54 1229.75,-35.93 1752.53,-26.13 2058.16,-21.79"/>
<polygon fill="black" stroke="black" points="2058.54,-25.29 2068.49,-21.65 2058.44,-18.29 2058.54,-25.29"/>
</g>
<!-- module.vpn_poc.google_compute_router_interface.if0&#45;&gt;module.vpn_poc.google_compute_ha_vpn_gateway.gw -->
<g id="edge17" class="edge">
<title>module.vpn_poc.google_compute_router_interface.if0&#45;&gt;module.vpn_poc.google_compute_ha_vpn_gateway.gw</title>
<path fill="none" stroke="black" d="M450.03,-253.43C393.12,-245.27 337.53,-232.55 317.81,-213 293.24,-188.64 290.13,-146.84 291.17,-119.31"/>
<polygon fill="black" stroke="black" points="294.67,-119.36 291.77,-109.17 287.69,-118.95 294.67,-119.36"/>
</g>
<!-- module.vpn_poc.google_compute_router_interface.if0&#45;&gt;module.vpn_poc.google_compute_network.poc -->
<g id="edge18" class="edge">
<title>module.vpn_poc.google_compute_router_interface.if0&#45;&gt;module.vpn_poc.google_compute_network.poc</title>
<path fill="none" stroke="black" d="M465.35,-252.75C427.04,-247.53 385.59,-240.7 347.81,-232 192.28,-196.16 -85.01,-187.86 25.81,-73 60.7,-36.84 1484.54,-23.99 2055.52,-20.29"/>
<polygon fill="black" stroke="black" points="2055.55,-23.79 2065.52,-20.22 2055.5,-16.79 2055.55,-23.79"/>
</g>
<!-- module.vpn_poc.google_compute_router_interface.if0&#45;&gt;module.vpn_poc.google_compute_external_vpn_gateway.peer -->
<g id="edge16" class="edge">
<title>module.vpn_poc.google_compute_router_interface.if0&#45;&gt;module.vpn_poc.google_compute_external_vpn_gateway.peer</title>
<path fill="none" stroke="black" d="M708.93,-251.56C763.22,-244.21 830.42,-235.97 890.81,-231 2047.38,-135.83 2339.67,-154.7 3499.81,-127 4512.89,-102.82 4766.97,-141.39 5779.81,-109 5811.07,-108 5844.13,-106.55 5876.46,-104.91"/>
<polygon fill="black" stroke="black" points="5876.66,-108.41 5886.47,-104.4 5876.3,-101.42 5876.66,-108.41"/>
</g>
<!-- module.vpn_poc.google_compute_router_interface.if0&#45;&gt;module.vpn_poc.google_compute_router.cr -->
<g id="edge19" class="edge">
<title>module.vpn_poc.google_compute_router_interface.if0&#45;&gt;module.vpn_poc.google_compute_router.cr</title>
<path fill="none" stroke="black" d="M695.71,-251.19C738.78,-241.95 783.58,-228.96 797.81,-213 820.55,-187.5 822.23,-146.35 820.33,-119.23"/>
<polygon fill="black" stroke="black" points="823.81,-118.89 819.42,-109.25 816.84,-119.52 823.81,-118.89"/>
</g>
<!-- module.vpn_poc.google_compute_router_interface.if0&#45;&gt;module.vpn_poc.google_compute_vpn_tunnel.t0 -->
<g id="edge20" class="edge">
<title>module.vpn_poc.google_compute_router_interface.if0&#45;&gt;module.vpn_poc.google_compute_vpn_tunnel.t0</title>
<path fill="none" stroke="black" d="M593.05,-249.75C587.09,-239.23 579.36,-225.57 572.66,-213.73"/>
<polygon fill="black" stroke="black" points="575.53,-211.7 567.56,-204.72 569.44,-215.14 575.53,-211.7"/>
</g>
<!-- module.vpn_poc.google_compute_vpn_tunnel.t0&#45;&gt;module.vpn_poc.google_compute_ha_vpn_gateway.gw -->
<g id="edge10" class="edge">
<title>module.vpn_poc.google_compute_vpn_tunnel.t0&#45;&gt;module.vpn_poc.google_compute_ha_vpn_gateway.gw</title>
<path fill="none" stroke="black" d="M510.62,-168.78C465.8,-152.91 398.36,-129.03 350.62,-112.12"/>
<polygon fill="black" stroke="black" points="351.64,-108.77 341.05,-108.73 349.3,-115.37 351.64,-108.77"/>
</g>
<!-- module.vpn_poc.google_compute_vpn_tunnel.t0&#45;&gt;module.vpn_poc.google_compute_network.poc -->
<g id="edge11" class="edge">
<title>module.vpn_poc.google_compute_vpn_tunnel.t0&#45;&gt;module.vpn_poc.google_compute_network.poc</title>
<path fill="none" stroke="black" d="M558.62,-168.33C560.85,-142.76 569.13,-95.32 599.81,-73 754.52,39.52 838.64,-60.88 1029.81,-54 1392.45,-40.95 1813.98,-30.11 2065.67,-24.1"/>
<polygon fill="black" stroke="black" points="2066.13,-27.59 2076.04,-23.85 2065.96,-20.59 2066.13,-27.59"/>
</g>
<!-- module.vpn_poc.google_compute_vpn_tunnel.t0&#45;&gt;module.vpn_poc.google_compute_external_vpn_gateway.peer -->
<g id="edge9" class="edge">
<title>module.vpn_poc.google_compute_vpn_tunnel.t0&#45;&gt;module.vpn_poc.google_compute_external_vpn_gateway.peer</title>
<path fill="none" stroke="black" d="M622.1,-169.2C682.1,-154.87 774.36,-135.07 855.81,-127 1128.04,-100.03 5506.38,-117.16 5779.81,-109 5811.43,-108.06 5844.89,-106.62 5877.57,-104.97"/>
<polygon fill="black" stroke="black" points="5877.88,-108.46 5887.69,-104.46 5877.53,-101.47 5877.88,-108.46"/>
</g>
<!-- module.vpn_poc.google_compute_vpn_tunnel.t0&#45;&gt;module.vpn_poc.google_compute_router.cr -->
<g id="edge12" class="edge">
<title>module.vpn_poc.google_compute_vpn_tunnel.t0&#45;&gt;module.vpn_poc.google_compute_router.cr</title>
<path fill="none" stroke="black" d="M604.12,-168.78C648.13,-152.9 714.38,-128.98 761.22,-112.07"/>
<polygon fill="black" stroke="black" points="762.69,-115.26 770.91,-108.57 760.32,-108.67 762.69,-115.26"/>
</g>
<!-- module.spoke_shared[0].google_compute_subnetwork_iam_member.cloudservices_sa -->
<g id="node8" class="node">
<title>module.spoke_shared[0].google_compute_subnetwork_iam_member.cloudservices_sa</title>
<ellipse fill="none" stroke="black" cx="1484.81" cy="-91" rx="404.03" ry="18"/>
<text text-anchor="middle" x="1484.81" y="-87.3" font-family="Times,serif" font-size="14.00">module.spoke_shared[0].google_compute_subnetwork_iam_member.cloudservices_sa</text>
</g>
<!-- module.spoke_shared[0].google_compute_subnetwork_iam_member.cloudservices_sa&#45;&gt;module.vpn_poc.google_compute_network.poc -->
<g id="edge8" class="edge">
<title>module.spoke_shared[0].google_compute_subnetwork_iam_member.cloudservices_sa&#45;&gt;module.vpn_poc.google_compute_network.poc</title>
<path fill="none" stroke="black" d="M1657.79,-74.73C1799.28,-62.23 1997.57,-44.72 2133.92,-32.68"/>
<polygon fill="black" stroke="black" points="2134.38,-36.15 2144.03,-31.79 2133.76,-29.18 2134.38,-36.15"/>
</g>
<!-- module.spoke_shared[0].google_compute_subnetwork_iam_member.compute_sa -->
<g id="node9" class="node">
<title>module.spoke_shared[0].google_compute_subnetwork_iam_member.compute_sa</title>
<ellipse fill="none" stroke="black" cx="2288.81" cy="-91" rx="381.53" ry="18"/>
<text text-anchor="middle" x="2288.81" y="-87.3" font-family="Times,serif" font-size="14.00">module.spoke_shared[0].google_compute_subnetwork_iam_member.compute_sa</text>
</g>
<!-- module.spoke_shared[0].google_compute_subnetwork_iam_member.compute_sa&#45;&gt;module.vpn_poc.google_compute_network.poc -->
<g id="edge13" class="edge">
<title>module.spoke_shared[0].google_compute_subnetwork_iam_member.compute_sa&#45;&gt;module.vpn_poc.google_compute_network.poc</title>
<path fill="none" stroke="black" d="M2288.81,-72.81C2288.81,-64.79 2288.81,-55.05 2288.81,-46.07"/>
<polygon fill="black" stroke="black" points="2292.31,-46.03 2288.81,-36.03 2285.31,-46.03 2292.31,-46.03"/>
</g>
<!-- module.vpn_poc.google_compute_firewall.iap_ssh -->
<g id="node10" class="node">
<title>module.vpn_poc.google_compute_firewall.iap_ssh</title>
<polygon fill="none" stroke="black" points="3056.81,-109 2688.81,-109 2688.81,-73 3056.81,-73 3056.81,-109"/>
<text text-anchor="middle" x="2872.81" y="-87.3" font-family="Times,serif" font-size="14.00">module.vpn_poc.google_compute_firewall.iap_ssh</text>
</g>
<!-- module.vpn_poc.google_compute_firewall.iap_ssh&#45;&gt;module.vpn_poc.google_compute_network.poc -->
<g id="edge14" class="edge">
<title>module.vpn_poc.google_compute_firewall.iap_ssh&#45;&gt;module.vpn_poc.google_compute_network.poc</title>
<path fill="none" stroke="black" d="M2732.93,-72.99C2636.88,-61.32 2510.37,-45.94 2416.95,-34.58"/>
<polygon fill="black" stroke="black" points="2417.23,-31.09 2406.88,-33.35 2416.38,-38.03 2417.23,-31.09"/>
</g>
<!-- module.vpn_poc.google_compute_subnetwork.crosscloud -->
<g id="node11" class="node">
<title>module.vpn_poc.google_compute_subnetwork.crosscloud</title>
<ellipse fill="none" stroke="black" cx="3348.81" cy="-91" rx="274.05" ry="18"/>
<text text-anchor="middle" x="3348.81" y="-87.3" font-family="Times,serif" font-size="14.00">module.vpn_poc.google_compute_subnetwork.crosscloud</text>
</g>
<!-- module.vpn_poc.google_compute_subnetwork.crosscloud&#45;&gt;module.vpn_poc.google_compute_network.poc -->
<g id="edge15" class="edge">
<title>module.vpn_poc.google_compute_subnetwork.crosscloud&#45;&gt;module.vpn_poc.google_compute_network.poc</title>
<path fill="none" stroke="black" d="M3164.48,-77.65C2967.9,-64.49 2658.81,-43.78 2465.3,-30.82"/>
<polygon fill="black" stroke="black" points="2465.52,-27.33 2455.31,-30.15 2465.06,-34.31 2465.52,-27.33"/>
</g>
<!-- module.vpn_poc.google_compute_subnetwork.hub -->
<g id="node12" class="node">
<title>module.vpn_poc.google_compute_subnetwork.hub</title>
<ellipse fill="none" stroke="black" cx="3883.81" cy="-91" rx="243.16" ry="18"/>
<text text-anchor="middle" x="3883.81" y="-87.3" font-family="Times,serif" font-size="14.00">module.vpn_poc.google_compute_subnetwork.hub</text>
</g>
<!-- module.vpn_poc.google_compute_subnetwork.hub&#45;&gt;module.vpn_poc.google_compute_network.poc -->
<g id="edge21" class="edge">
<title>module.vpn_poc.google_compute_subnetwork.hub&#45;&gt;module.vpn_poc.google_compute_network.poc</title>
<path fill="none" stroke="black" d="M3715.43,-78C3687.51,-76.2 3658.85,-74.46 3631.81,-73 3233.68,-51.57 2768.73,-34.69 2503.52,-25.83"/>
<polygon fill="black" stroke="black" points="2503.49,-22.33 2493.38,-25.5 2503.26,-29.33 2503.49,-22.33"/>
</g>
<!-- module.spoke_shared[0].google_compute_instance.spoke_test -->
<g id="node13" class="node">
<title>module.spoke_shared[0].google_compute_instance.spoke_test</title>
<ellipse fill="none" stroke="black" cx="4441.81" cy="-91" rx="297.05" ry="18"/>
<text text-anchor="middle" x="4441.81" y="-87.3" font-family="Times,serif" font-size="14.00">module.spoke_shared[0].google_compute_instance.spoke_test</text>
</g>
<!-- module.spoke_shared[0].google_compute_instance.spoke_test&#45;&gt;module.vpn_poc.google_compute_network.poc -->
<g id="edge22" class="edge">
<title>module.spoke_shared[0].google_compute_instance.spoke_test&#45;&gt;module.vpn_poc.google_compute_network.poc</title>
<path fill="none" stroke="black" d="M4237.75,-77.92C4203.71,-76.11 4168.77,-74.4 4135.81,-73 3550.84,-48.2 2861.17,-31.32 2513.42,-23.66"/>
<polygon fill="black" stroke="black" points="2513.31,-20.16 2503.23,-23.44 2513.15,-27.16 2513.31,-20.16"/>
</g>
<!-- module.vpn_poc.google_compute_firewall.from_lan -->
<g id="node14" class="node">
<title>module.vpn_poc.google_compute_firewall.from_lan</title>
<polygon fill="none" stroke="black" points="5134.81,-109 4756.81,-109 4756.81,-73 5134.81,-73 5134.81,-109"/>
<text text-anchor="middle" x="4945.81" y="-87.3" font-family="Times,serif" font-size="14.00">module.vpn_poc.google_compute_firewall.from_lan</text>
</g>
<!-- module.vpn_poc.google_compute_firewall.from_lan&#45;&gt;module.vpn_poc.google_compute_network.poc -->
<g id="edge24" class="edge">
<title>module.vpn_poc.google_compute_firewall.from_lan&#45;&gt;module.vpn_poc.google_compute_network.poc</title>
<path fill="none" stroke="black" d="M4756.67,-73.5C4753.69,-73.32 4750.74,-73.16 4747.81,-73 3931.83,-29.06 2961.69,-20.64 2523.85,-19.18"/>
<polygon fill="black" stroke="black" points="2523.62,-15.68 2513.61,-19.15 2523.59,-22.68 2523.62,-15.68"/>
</g>
<!-- module.spoke_shared[0].google_compute_subnetwork.lakehouse -->
<g id="node15" class="node">
<title>module.spoke_shared[0].google_compute_subnetwork.lakehouse</title>
<ellipse fill="none" stroke="black" cx="5461.81" cy="-91" rx="309.25" ry="18"/>
<text text-anchor="middle" x="5461.81" y="-87.3" font-family="Times,serif" font-size="14.00">module.spoke_shared[0].google_compute_subnetwork.lakehouse</text>
</g>
<!-- module.spoke_shared[0].google_compute_subnetwork.lakehouse&#45;&gt;module.vpn_poc.google_compute_network.poc -->
<g id="edge25" class="edge">
<title>module.spoke_shared[0].google_compute_subnetwork.lakehouse&#45;&gt;module.vpn_poc.google_compute_network.poc</title>
<path fill="none" stroke="black" d="M5250.6,-77.84C5214.96,-76.04 5178.34,-74.34 5143.81,-73 4170.84,-35.21 3010.27,-23.62 2522.71,-20.27"/>
<polygon fill="black" stroke="black" points="2522.4,-16.77 2512.38,-20.2 2522.36,-23.77 2522.4,-16.77"/>
</g>
<!-- onprem -->
<g id="node16" class="node">
<title>onprem</title>
<path fill="#faece7" stroke="black" d="M6189.81,-213C6189.81,-213 5975.81,-213 5975.81,-213 5969.81,-213 5963.81,-207 5963.81,-201 5963.81,-201 5963.81,-172 5963.81,-172 5963.81,-166 5969.81,-160 5975.81,-160 5975.81,-160 6189.81,-160 6189.81,-160 6195.81,-160 6201.81,-166 6201.81,-172 6201.81,-172 6201.81,-201 6201.81,-201 6201.81,-207 6195.81,-213 6189.81,-213"/>
<text text-anchor="middle" x="6082.81" y="-197.8" font-family="Times,serif" font-size="14.00">On&#45;prem LAN</text>
<text text-anchor="middle" x="6082.81" y="-182.8" font-family="Times,serif" font-size="14.00">192.168.1.0/24</text>
<text text-anchor="middle" x="6082.81" y="-167.8" font-family="Times,serif" font-size="14.00">strongSwan + FRR (AS 65000)</text>
</g>
<!-- onprem&#45;&gt;module.vpn_poc.google_compute_external_vpn_gateway.peer -->
<g id="edge26" class="edge">
<title>onprem&#45;&gt;module.vpn_poc.google_compute_external_vpn_gateway.peer</title>
<path fill="none" stroke="#993c1d" stroke-width="2" d="M6082.81,-159.95C6082.81,-147.36 6082.81,-132.17 6082.81,-119.35"/>
<polygon fill="#993c1d" stroke="#993c1d" stroke-width="2" points="6086.31,-119.24 6082.81,-109.24 6079.31,-119.24 6086.31,-119.24"/>
<text text-anchor="middle" x="6128.31" y="-130.8" font-family="Times,serif" font-size="14.00">IPsec + BGP</text>
</g>
</g>
</svg>
