<?xml version="1.0" encoding="UTF-8" standalone="no"?>
<!DOCTYPE svg PUBLIC "-//W3C//DTD SVG 1.1//EN"
 "http://www.w3.org/Graphics/SVG/1.1/DTD/svg11.dtd">
<!-- Generated by graphviz version 2.43.0 (0)
 -->
<!-- Title: G Pages: 1 -->
<svg width="5776pt" height="367pt"
 viewBox="0.00 0.00 5776.29 367.00" xmlns="http://www.w3.org/2000/svg" xmlns:xlink="http://www.w3.org/1999/xlink">
<g id="graph0" class="graph" transform="scale(1 1) rotate(0) translate(4 363)">
<title>G</title>
<polygon fill="white" stroke="transparent" points="-4,4 -4,-363 5772.29,-363 5772.29,4 -4,4"/>
<!-- module.spoke_shared[0].google_compute_subnetwork_iam_member.compute_sa -->
<g id="node1" class="node">
<title>module.spoke_shared[0].google_compute_subnetwork_iam_member.compute_sa</title>
<ellipse fill="none" stroke="black" cx="381.52" cy="-91" rx="381.53" ry="18"/>
<text text-anchor="middle" x="381.52" y="-87.3" font-family="Times,serif" font-size="14.00">module.spoke_shared[0].google_compute_subnetwork_iam_member.compute_sa</text>
</g>
<!-- module.vpn_poc.google_compute_network.poc -->
<g id="node2" class="node">
<title>module.vpn_poc.google_compute_network.poc</title>
<ellipse fill="none" stroke="black" cx="1943.52" cy="-18" rx="224.76" ry="18"/>
<text text-anchor="middle" x="1943.52" y="-14.3" font-family="Times,serif" font-size="14.00">module.vpn_poc.google_compute_network.poc</text>
</g>
<!-- module.spoke_shared[0].google_compute_subnetwork_iam_member.compute_sa&#45;&gt;module.vpn_poc.google_compute_network.poc -->
<g id="edge1" class="edge">
<title>module.spoke_shared[0].google_compute_subnetwork_iam_member.compute_sa&#45;&gt;module.vpn_poc.google_compute_network.poc</title>
<path fill="none" stroke="black" d="M529.44,-74.41C603.8,-67.11 695.34,-58.96 777.52,-54 1101.86,-34.41 1477.65,-25.63 1713,-21.8"/>
<polygon fill="black" stroke="black" points="1713.11,-25.3 1723.06,-21.64 1713,-18.3 1713.11,-25.3"/>
</g>
<!-- module.vpn_poc.google_compute_router_peer.peer0 -->
<g id="node3" class="node">
<title>module.vpn_poc.google_compute_router_peer.peer0</title>
<ellipse fill="none" stroke="black" cx="1492.52" cy="-341" rx="250.76" ry="18"/>
<text text-anchor="middle" x="1492.52" y="-337.3" font-family="Times,serif" font-size="14.00">module.vpn_poc.google_compute_router_peer.peer0</text>
</g>
<!-- module.vpn_poc.google_compute_router_peer.peer0&#45;&gt;module.vpn_poc.google_compute_network.poc -->
<g id="edge4" class="edge">
<title>module.vpn_poc.google_compute_router_peer.peer0&#45;&gt;module.vpn_poc.google_compute_network.poc</title>
<path fill="none" stroke="black" d="M1245.86,-337.56C1043.96,-332.14 791.52,-315.98 791.52,-269 791.52,-269 791.52,-269 791.52,-90 791.52,-78.67 800.03,-77.29 810.52,-73 891.43,-39.86 1405.42,-26.71 1712.62,-21.77"/>
<polygon fill="black" stroke="black" points="1713.06,-25.26 1723.01,-21.6 1712.95,-18.26 1713.06,-25.26"/>
</g>
<!-- module.vpn_poc.google_compute_external_vpn_gateway.peer -->
<g id="node4" class="node">
<title>module.vpn_poc.google_compute_external_vpn_gateway.peer</title>
<ellipse fill="none" stroke="black" cx="5474.52" cy="-91" rx="293.55" ry="18"/>
<text text-anchor="middle" x="5474.52" y="-87.3" font-family="Times,serif" font-size="14.00">module.vpn_poc.google_compute_external_vpn_gateway.peer</text>
</g>
<!-- module.vpn_poc.google_compute_router_peer.peer0&#45;&gt;module.vpn_poc.google_compute_external_vpn_gateway.peer -->
<g id="edge2" class="edge">
<title>module.vpn_poc.google_compute_router_peer.peer0&#45;&gt;module.vpn_poc.google_compute_external_vpn_gateway.peer</title>
<path fill="none" stroke="black" d="M1674.95,-328.64C2331.36,-287.76 4570.88,-148.28 5266.59,-104.95"/>
<polygon fill="black" stroke="black" points="5266.96,-108.43 5276.72,-104.32 5266.53,-101.45 5266.96,-108.43"/>
</g>
<!-- module.vpn_poc.google_compute_ha_vpn_gateway.gw -->
<g id="node5" class="node">
<title>module.vpn_poc.google_compute_ha_vpn_gateway.gw</title>
<ellipse fill="none" stroke="black" cx="1078.52" cy="-91" rx="258.85" ry="18"/>
<text text-anchor="middle" x="1078.52" y="-87.3" font-family="Times,serif" font-size="14.00">module.vpn_poc.google_compute_ha_vpn_gateway.gw</text>
</g>
<!-- module.vpn_poc.google_compute_router_peer.peer0&#45;&gt;module.vpn_poc.google_compute_ha_vpn_gateway.gw -->
<g id="edge3" class="edge">
<title>module.vpn_poc.google_compute_router_peer.peer0&#45;&gt;module.vpn_poc.google_compute_ha_vpn_gateway.gw</title>
<path fill="none" stroke="black" d="M1325.94,-327.53C1244.27,-312.51 1151.47,-280.49 1094.52,-213 1072.66,-187.1 1071.87,-146.32 1074.35,-119.37"/>
<polygon fill="black" stroke="black" points="1077.87,-119.43 1075.52,-109.1 1070.91,-118.64 1077.87,-119.43"/>
</g>
<!-- module.vpn_poc.google_compute_router.cr -->
<g id="node6" class="node">
<title>module.vpn_poc.google_compute_router.cr</title>
<ellipse fill="none" stroke="black" cx="1601.52" cy="-91" rx="207.96" ry="18"/>
<text text-anchor="middle" x="1601.52" y="-87.3" font-family="Times,serif" font-size="14.00">module.vpn_poc.google_compute_router.cr</text>
</g>
<!-- module.vpn_poc.google_compute_router_peer.peer0&#45;&gt;module.vpn_poc.google_compute_router.cr -->
<g id="edge5" class="edge">
<title>module.vpn_poc.google_compute_router_peer.peer0&#45;&gt;module.vpn_poc.google_compute_router.cr</title>
<path fill="none" stroke="black" d="M1506.96,-322.89C1522.46,-304.64 1547.89,-274.98 1570.52,-250 1585.71,-233.22 1597.14,-234.03 1605.52,-213 1617.62,-182.58 1613.52,-144.39 1608.45,-119.14"/>
<polygon fill="black" stroke="black" points="1611.82,-118.19 1606.26,-109.17 1604.98,-119.69 1611.82,-118.19"/>
</g>
<!-- module.vpn_poc.google_compute_router_interface.if0 -->
<g id="node7" class="node">
<title>module.vpn_poc.google_compute_router_interface.if0</title>
<ellipse fill="none" stroke="black" cx="1837.52" cy="-268" rx="258.05" ry="18"/>
<text text-anchor="middle" x="1837.52" y="-264.3" font-family="Times,serif" font-size="14.00">module.vpn_poc.google_compute_router_interface.if0</text>
</g>
<!-- module.vpn_poc.google_compute_router_peer.peer0&#45;&gt;module.vpn_poc.google_compute_router_interface.if0 -->
<g id="edge6" class="edge">
<title>module.vpn_poc.google_compute_router_peer.peer0&#45;&gt;module.vpn_poc.google_compute_router_interface.if0</title>
<path fill="none" stroke="black" d="M1570.8,-323.89C1623.77,-312.99 1693.83,-298.57 1748.85,-287.25"/>
<polygon fill="black" stroke="black" points="1749.85,-290.61 1758.94,-285.17 1748.44,-283.76 1749.85,-290.61"/>
</g>
<!-- module.vpn_poc.google_compute_vpn_tunnel.t0 -->
<g id="node8" class="node">
<title>module.vpn_poc.google_compute_vpn_tunnel.t0</title>
<ellipse fill="none" stroke="black" cx="1365.52" cy="-186.5" rx="231.26" ry="18"/>
<text text-anchor="middle" x="1365.52" y="-182.8" font-family="Times,serif" font-size="14.00">module.vpn_poc.google_compute_vpn_tunnel.t0</text>
</g>
<!-- module.vpn_poc.google_compute_router_peer.peer0&#45;&gt;module.vpn_poc.google_compute_vpn_tunnel.t0 -->
<g id="edge7" class="edge">
<title>module.vpn_poc.google_compute_router_peer.peer0&#45;&gt;module.vpn_poc.google_compute_vpn_tunnel.t0</title>
<path fill="none" stroke="black" d="M1478.19,-322.8C1455.8,-295.92 1412.39,-243.79 1386.48,-212.67"/>
<polygon fill="black" stroke="black" points="1389.07,-210.31 1379.98,-204.87 1383.69,-214.79 1389.07,-210.31"/>
</g>
<!-- module.vpn_poc.google_compute_ha_vpn_gateway.gw&#45;&gt;module.vpn_poc.google_compute_network.poc -->
<g id="edge18" class="edge">
<title>module.vpn_poc.google_compute_ha_vpn_gateway.gw&#45;&gt;module.vpn_poc.google_compute_network.poc</title>
<path fill="none" stroke="black" d="M1182.67,-74.47C1233.5,-67.35 1295.6,-59.33 1351.52,-54 1479.86,-41.76 1624.29,-33.12 1738.36,-27.49"/>
<polygon fill="black" stroke="black" points="1738.79,-30.97 1748.6,-26.99 1738.44,-23.98 1738.79,-30.97"/>
</g>
<!-- module.vpn_poc.google_compute_router.cr&#45;&gt;module.vpn_poc.google_compute_network.poc -->
<g id="edge19" class="edge">
<title>module.vpn_poc.google_compute_router.cr&#45;&gt;module.vpn_poc.google_compute_network.poc</title>
<path fill="none" stroke="black" d="M1677.84,-74.15C1730.75,-63.17 1801.33,-48.52 1856.43,-37.08"/>
<polygon fill="black" stroke="black" points="1857.46,-40.44 1866.54,-34.98 1856.03,-33.59 1857.46,-40.44"/>
</g>
<!-- module.vpn_poc.google_compute_router_interface.if0&#45;&gt;module.vpn_poc.google_compute_network.poc -->
<g id="edge22" class="edge">
<title>module.vpn_poc.google_compute_router_interface.if0&#45;&gt;module.vpn_poc.google_compute_network.poc</title>
<path fill="none" stroke="black" d="M1834.47,-249.86C1829.03,-213.98 1821.3,-129.61 1856.52,-73 1864.91,-59.5 1878.06,-48.85 1891.61,-40.69"/>
<polygon fill="black" stroke="black" points="1893.52,-43.64 1900.53,-35.69 1890.09,-37.53 1893.52,-43.64"/>
</g>
<!-- module.vpn_poc.google_compute_router_interface.if0&#45;&gt;module.vpn_poc.google_compute_external_vpn_gateway.peer -->
<g id="edge20" class="edge">
<title>module.vpn_poc.google_compute_router_interface.if0&#45;&gt;module.vpn_poc.google_compute_external_vpn_gateway.peer</title>
<path fill="none" stroke="black" d="M1982.53,-253.07C2297.07,-223.55 3065.74,-155.08 3711.52,-127 4359.84,-98.81 4522.96,-131.18 5171.52,-109 5202.28,-107.95 5234.79,-106.49 5266.63,-104.87"/>
<polygon fill="black" stroke="black" points="5267.14,-108.35 5276.95,-104.34 5266.78,-101.36 5267.14,-108.35"/>
</g>
<!-- module.vpn_poc.google_compute_router_interface.if0&#45;&gt;module.vpn_poc.google_compute_ha_vpn_gateway.gw -->
<g id="edge21" class="edge">
<title>module.vpn_poc.google_compute_router_interface.if0&#45;&gt;module.vpn_poc.google_compute_ha_vpn_gateway.gw</title>
<path fill="none" stroke="black" d="M1597.31,-261.33C1405.67,-254.74 1163.23,-240.96 1125.52,-213 1110,-201.49 1094.19,-151.13 1085.43,-119.12"/>
<polygon fill="black" stroke="black" points="1088.81,-118.2 1082.85,-109.44 1082.05,-120 1088.81,-118.2"/>
</g>
<!-- module.vpn_poc.google_compute_router_interface.if0&#45;&gt;module.vpn_poc.google_compute_router.cr -->
<g id="edge23" class="edge">
<title>module.vpn_poc.google_compute_router_interface.if0&#45;&gt;module.vpn_poc.google_compute_router.cr</title>
<path fill="none" stroke="black" d="M1814.46,-249.9C1771.79,-218.26 1680.49,-150.56 1632.48,-114.96"/>
<polygon fill="black" stroke="black" points="1634.44,-112.06 1624.32,-108.91 1630.27,-117.68 1634.44,-112.06"/>
</g>
<!-- module.vpn_poc.google_compute_router_interface.if0&#45;&gt;module.vpn_poc.google_compute_vpn_tunnel.t0 -->
<g id="edge24" class="edge">
<title>module.vpn_poc.google_compute_router_interface.if0&#45;&gt;module.vpn_poc.google_compute_vpn_tunnel.t0</title>
<path fill="none" stroke="black" d="M1743.7,-251.2C1664.08,-237.79 1550.04,-218.58 1468.04,-204.77"/>
<polygon fill="black" stroke="black" points="1468.39,-201.28 1457.95,-203.07 1467.23,-208.18 1468.39,-201.28"/>
</g>
<!-- module.vpn_poc.google_compute_vpn_tunnel.t0&#45;&gt;module.vpn_poc.google_compute_network.poc -->
<g id="edge16" class="edge">
<title>module.vpn_poc.google_compute_vpn_tunnel.t0&#45;&gt;module.vpn_poc.google_compute_network.poc</title>
<path fill="none" stroke="black" d="M1362.7,-168.48C1359.65,-143.56 1358.28,-97.44 1384.52,-73 1410.43,-48.86 1586.98,-34.73 1734.83,-27.02"/>
<polygon fill="black" stroke="black" points="1735.17,-30.51 1744.98,-26.5 1734.81,-23.52 1735.17,-30.51"/>
</g>
<!-- module.vpn_poc.google_compute_vpn_tunnel.t0&#45;&gt;module.vpn_poc.google_compute_external_vpn_gateway.peer -->
<g id="edge14" class="edge">
<title>module.vpn_poc.google_compute_vpn_tunnel.t0&#45;&gt;module.vpn_poc.google_compute_external_vpn_gateway.peer</title>
<path fill="none" stroke="black" d="M1576.49,-179.03C1976.1,-167.01 2870.91,-141.14 3624.52,-127 4312,-114.1 4484.31,-132.26 5171.52,-109 5202.28,-107.96 5234.79,-106.51 5266.64,-104.89"/>
<polygon fill="black" stroke="black" points="5267.14,-108.37 5276.95,-104.35 5266.78,-101.37 5267.14,-108.37"/>
</g>
<!-- module.vpn_poc.google_compute_vpn_tunnel.t0&#45;&gt;module.vpn_poc.google_compute_ha_vpn_gateway.gw -->
<g id="edge15" class="edge">
<title>module.vpn_poc.google_compute_vpn_tunnel.t0&#45;&gt;module.vpn_poc.google_compute_ha_vpn_gateway.gw</title>
<path fill="none" stroke="black" d="M1314.54,-168.89C1265.66,-152.97 1191.81,-128.91 1139.77,-111.95"/>
<polygon fill="black" stroke="black" points="1140.58,-108.54 1129.99,-108.77 1138.41,-115.19 1140.58,-108.54"/>
</g>
<!-- module.vpn_poc.google_compute_vpn_tunnel.t0&#45;&gt;module.vpn_poc.google_compute_router.cr -->
<g id="edge17" class="edge">
<title>module.vpn_poc.google_compute_vpn_tunnel.t0&#45;&gt;module.vpn_poc.google_compute_router.cr</title>
<path fill="none" stroke="black" d="M1407.71,-168.78C1447.52,-153.01 1507.3,-129.33 1549.93,-112.44"/>
<polygon fill="black" stroke="black" points="1551.28,-115.67 1559.29,-108.73 1548.71,-109.16 1551.28,-115.67"/>
</g>
<!-- module.vpn_poc.google_compute_firewall.iap_ssh -->
<g id="node9" class="node">
<title>module.vpn_poc.google_compute_firewall.iap_ssh</title>
<polygon fill="none" stroke="black" points="2233.52,-109 1865.52,-109 1865.52,-73 2233.52,-73 2233.52,-109"/>
<text text-anchor="middle" x="2049.52" y="-87.3" font-family="Times,serif" font-size="14.00">module.vpn_poc.google_compute_firewall.iap_ssh</text>
</g>
<!-- module.vpn_poc.google_compute_firewall.iap_ssh&#45;&gt;module.vpn_poc.google_compute_network.poc -->
<g id="edge8" class="edge">
<title>module.vpn_poc.google_compute_firewall.iap_ssh&#45;&gt;module.vpn_poc.google_compute_network.poc</title>
<path fill="none" stroke="black" d="M2024.13,-72.99C2010.2,-63.67 1992.75,-51.97 1977.64,-41.86"/>
<polygon fill="black" stroke="black" points="1979.32,-38.77 1969.07,-36.11 1975.43,-44.59 1979.32,-38.77"/>
</g>
<!-- module.vpn_poc.google_compute_subnetwork.hub -->
<g id="node10" class="node">
<title>module.vpn_poc.google_compute_subnetwork.hub</title>
<ellipse fill="none" stroke="black" cx="2494.52" cy="-91" rx="243.16" ry="18"/>
<text text-anchor="middle" x="2494.52" y="-87.3" font-family="Times,serif" font-size="14.00">module.vpn_poc.google_compute_subnetwork.hub</text>
</g>
<!-- module.vpn_poc.google_compute_subnetwork.hub&#45;&gt;module.vpn_poc.google_compute_network.poc -->
<g id="edge9" class="edge">
<title>module.vpn_poc.google_compute_subnetwork.hub&#45;&gt;module.vpn_poc.google_compute_network.poc</title>
<path fill="none" stroke="black" d="M2379.01,-75.12C2287.67,-63.35 2160.42,-46.95 2067.05,-34.92"/>
<polygon fill="black" stroke="black" points="2067.35,-31.43 2056.98,-33.62 2066.45,-38.37 2067.35,-31.43"/>
</g>
<!-- module.spoke_shared[0].google_compute_subnetwork_iam_member.cloudservices_sa -->
<g id="node11" class="node">
<title>module.spoke_shared[0].google_compute_subnetwork_iam_member.cloudservices_sa</title>
<ellipse fill="none" stroke="black" cx="3159.52" cy="-91" rx="404.03" ry="18"/>
<text text-anchor="middle" x="3159.52" y="-87.3" font-family="Times,serif" font-size="14.00">module.spoke_shared[0].google_compute_subnetwork_iam_member.cloudservices_sa</text>
</g>
<!-- module.spoke_shared[0].google_compute_subnetwork_iam_member.cloudservices_sa&#45;&gt;module.vpn_poc.google_compute_network.poc -->
<g id="edge10" class="edge">
<title>module.spoke_shared[0].google_compute_subnetwork_iam_member.cloudservices_sa&#45;&gt;module.vpn_poc.google_compute_network.poc</title>
<path fill="none" stroke="black" d="M2925.06,-76.31C2693.06,-62.76 2342.58,-42.3 2129.21,-29.84"/>
<polygon fill="black" stroke="black" points="2129.34,-26.34 2119.16,-29.26 2128.93,-33.33 2129.34,-26.34"/>
</g>
<!-- module.spoke_shared[0].google_compute_subnetwork.lakehouse -->
<g id="node12" class="node">
<title>module.spoke_shared[0].google_compute_subnetwork.lakehouse</title>
<ellipse fill="none" stroke="black" cx="3891.52" cy="-91" rx="309.25" ry="18"/>
<text text-anchor="middle" x="3891.52" y="-87.3" font-family="Times,serif" font-size="14.00">module.spoke_shared[0].google_compute_subnetwork.lakehouse</text>
</g>
<!-- module.spoke_shared[0].google_compute_subnetwork.lakehouse&#45;&gt;module.vpn_poc.google_compute_network.poc -->
<g id="edge11" class="edge">
<title>module.spoke_shared[0].google_compute_subnetwork.lakehouse&#45;&gt;module.vpn_poc.google_compute_network.poc</title>
<path fill="none" stroke="black" d="M3677.48,-78C3642.41,-76.2 3606.45,-74.47 3572.52,-73 3068.24,-51.21 2475.82,-33.57 2162.92,-24.87"/>
<polygon fill="black" stroke="black" points="2162.92,-21.37 2152.82,-24.59 2162.72,-28.37 2162.92,-21.37"/>
</g>
<!-- module.vpn_poc.google_compute_firewall.from_lan -->
<g id="node13" class="node">
<title>module.vpn_poc.google_compute_firewall.from_lan</title>
<polygon fill="none" stroke="black" points="4596.52,-109 4218.52,-109 4218.52,-73 4596.52,-73 4596.52,-109"/>
<text text-anchor="middle" x="4407.52" y="-87.3" font-family="Times,serif" font-size="14.00">module.vpn_poc.google_compute_firewall.from_lan</text>
</g>
<!-- module.vpn_poc.google_compute_firewall.from_lan&#45;&gt;module.vpn_poc.google_compute_network.poc -->
<g id="edge12" class="edge">
<title>module.vpn_poc.google_compute_firewall.from_lan&#45;&gt;module.vpn_poc.google_compute_network.poc</title>
<path fill="none" stroke="black" d="M4218.37,-73.5C4215.4,-73.33 4212.44,-73.16 4209.52,-73 3468.42,-32.39 2589.34,-22.31 2177.86,-19.81"/>
<polygon fill="black" stroke="black" points="2177.65,-16.31 2167.63,-19.75 2177.61,-23.31 2177.65,-16.31"/>
</g>
<!-- module.vpn_poc.google_compute_subnetwork.crosscloud -->
<g id="node14" class="node">
<title>module.vpn_poc.google_compute_subnetwork.crosscloud</title>
<ellipse fill="none" stroke="black" cx="4888.52" cy="-91" rx="274.05" ry="18"/>
<text text-anchor="middle" x="4888.52" y="-87.3" font-family="Times,serif" font-size="14.00">module.vpn_poc.google_compute_subnetwork.crosscloud</text>
</g>
<!-- module.vpn_poc.google_compute_subnetwork.crosscloud&#45;&gt;module.vpn_poc.google_compute_network.poc -->
<g id="edge13" class="edge">
<title>module.vpn_poc.google_compute_subnetwork.crosscloud&#45;&gt;module.vpn_poc.google_compute_network.poc</title>
<path fill="none" stroke="black" d="M4701.32,-77.81C4669.37,-76 4636.5,-74.31 4605.52,-73 3708.38,-35.18 2640,-23.66 2176.82,-20.31"/>
<polygon fill="black" stroke="black" points="2176.7,-16.81 2166.67,-20.24 2176.65,-23.81 2176.7,-16.81"/>
</g>
<!-- onprem -->
<g id="node15" class="node">
<title>onprem</title>
<path fill="#faece7" stroke="black" d="M5581.52,-213C5581.52,-213 5367.52,-213 5367.52,-213 5361.52,-213 5355.52,-207 5355.52,-201 5355.52,-201 5355.52,-172 5355.52,-172 5355.52,-166 5361.52,-160 5367.52,-160 5367.52,-160 5581.52,-160 5581.52,-160 5587.52,-160 5593.52,-166 5593.52,-172 5593.52,-172 5593.52,-201 5593.52,-201 5593.52,-207 5587.52,-213 5581.52,-213"/>
<text text-anchor="middle" x="5474.52" y="-197.8" font-family="Times,serif" font-size="14.00">On&#45;prem LAN</text>
<text text-anchor="middle" x="5474.52" y="-182.8" font-family="Times,serif" font-size="14.00">192.168.1.0/24</text>
<text text-anchor="middle" x="5474.52" y="-167.8" font-family="Times,serif" font-size="14.00">strongSwan + FRR (AS 65000)</text>
</g>
<!-- onprem&#45;&gt;module.vpn_poc.google_compute_external_vpn_gateway.peer -->
<g id="edge25" class="edge">
<title>onprem&#45;&gt;module.vpn_poc.google_compute_external_vpn_gateway.peer</title>
<path fill="none" stroke="#993c1d" stroke-width="2" d="M5474.52,-159.95C5474.52,-147.36 5474.52,-132.17 5474.52,-119.35"/>
<polygon fill="#993c1d" stroke="#993c1d" stroke-width="2" points="5478.02,-119.24 5474.52,-109.24 5471.02,-119.24 5478.02,-119.24"/>
<text text-anchor="middle" x="5520.02" y="-130.8" font-family="Times,serif" font-size="14.00">IPsec + BGP</text>
</g>
</g>
</svg>
