<?xml version="1.0" encoding="UTF-8" standalone="no"?>
<!DOCTYPE svg PUBLIC "-//W3C//DTD SVG 1.1//EN"
 "http://www.w3.org/Graphics/SVG/1.1/DTD/svg11.dtd">
<!-- Generated by graphviz version 2.43.0 (0)
 -->
<!-- Title: G Pages: 1 -->
<svg width="5766pt" height="367pt"
 viewBox="0.00 0.00 5766.28 367.00" xmlns="http://www.w3.org/2000/svg" xmlns:xlink="http://www.w3.org/1999/xlink">
<g id="graph0" class="graph" transform="scale(1 1) rotate(0) translate(4 363)">
<title>G</title>
<polygon fill="white" stroke="transparent" points="-4,4 -4,-363 5762.28,-363 5762.28,4 -4,4"/>
<!-- module.vpn_poc.google_compute_subnetwork.crosscloud -->
<g id="node1" class="node">
<title>module.vpn_poc.google_compute_subnetwork.crosscloud</title>
<ellipse fill="none" stroke="black" cx="274.28" cy="-91" rx="274.05" ry="18"/>
<text text-anchor="middle" x="274.28" y="-87.3" font-family="Times,serif" font-size="14.00">module.vpn_poc.google_compute_subnetwork.crosscloud</text>
</g>
<!-- module.vpn_poc.google_compute_network.poc -->
<g id="node2" class="node">
<title>module.vpn_poc.google_compute_network.poc</title>
<ellipse fill="none" stroke="black" cx="2412.28" cy="-18" rx="224.76" ry="18"/>
<text text-anchor="middle" x="2412.28" y="-14.3" font-family="Times,serif" font-size="14.00">module.vpn_poc.google_compute_network.poc</text>
</g>
<!-- module.vpn_poc.google_compute_subnetwork.crosscloud&#45;&gt;module.vpn_poc.google_compute_network.poc -->
<g id="edge1" class="edge">
<title>module.vpn_poc.google_compute_subnetwork.crosscloud&#45;&gt;module.vpn_poc.google_compute_network.poc</title>
<path fill="none" stroke="black" d="M462.61,-77.87C494.21,-76.07 526.67,-74.36 557.28,-73 1144.52,-46.82 1836.94,-30.53 2186.33,-23.33"/>
<polygon fill="black" stroke="black" points="2186.64,-26.82 2196.56,-23.12 2186.49,-19.82 2186.64,-26.82"/>
</g>
<!-- module.vpn_poc.google_compute_subnetwork.hub -->
<g id="node3" class="node">
<title>module.vpn_poc.google_compute_subnetwork.hub</title>
<ellipse fill="none" stroke="black" cx="809.28" cy="-91" rx="243.16" ry="18"/>
<text text-anchor="middle" x="809.28" y="-87.3" font-family="Times,serif" font-size="14.00">module.vpn_poc.google_compute_subnetwork.hub</text>
</g>
<!-- module.vpn_poc.google_compute_subnetwork.hub&#45;&gt;module.vpn_poc.google_compute_network.poc -->
<g id="edge2" class="edge">
<title>module.vpn_poc.google_compute_subnetwork.hub&#45;&gt;module.vpn_poc.google_compute_network.poc</title>
<path fill="none" stroke="black" d="M977.66,-78C1005.58,-76.19 1034.24,-74.45 1061.28,-73 1462.21,-51.47 1930.51,-34.6 2197.16,-25.78"/>
<polygon fill="black" stroke="black" points="2197.47,-29.27 2207.35,-25.44 2197.24,-22.27 2197.47,-29.27"/>
</g>
<!-- module.vpn_poc.google_compute_firewall.from_lan -->
<g id="node4" class="node">
<title>module.vpn_poc.google_compute_firewall.from_lan</title>
<polygon fill="none" stroke="black" points="1448.28,-109 1070.28,-109 1070.28,-73 1448.28,-73 1448.28,-109"/>
<text text-anchor="middle" x="1259.28" y="-87.3" font-family="Times,serif" font-size="14.00">module.vpn_poc.google_compute_firewall.from_lan</text>
</g>
<!-- module.vpn_poc.google_compute_firewall.from_lan&#45;&gt;module.vpn_poc.google_compute_network.poc -->
<g id="edge3" class="edge">
<title>module.vpn_poc.google_compute_firewall.from_lan&#45;&gt;module.vpn_poc.google_compute_network.poc</title>
<path fill="none" stroke="black" d="M1448.43,-73.64C1451.4,-73.42 1454.35,-73.21 1457.28,-73 1718.87,-54.38 2021.14,-38.18 2214.36,-28.5"/>
<polygon fill="black" stroke="black" points="2214.81,-31.99 2224.62,-27.99 2214.46,-25 2214.81,-31.99"/>
</g>
<!-- module.vpn_poc.google_compute_router_interface.if0 -->
<g id="node5" class="node">
<title>module.vpn_poc.google_compute_router_interface.if0</title>
<ellipse fill="none" stroke="black" cx="2080.28" cy="-268" rx="258.05" ry="18"/>
<text text-anchor="middle" x="2080.28" y="-264.3" font-family="Times,serif" font-size="14.00">module.vpn_poc.google_compute_router_interface.if0</text>
</g>
<!-- module.vpn_poc.google_compute_router_interface.if0&#45;&gt;module.vpn_poc.google_compute_network.poc -->
<g id="edge6" class="edge">
<title>module.vpn_poc.google_compute_router_interface.if0&#45;&gt;module.vpn_poc.google_compute_network.poc</title>
<path fill="none" stroke="black" d="M2049.64,-250.04C1991.05,-215.54 1873.65,-135.19 1929.28,-73 1948.91,-51.05 2090.74,-36.98 2215.68,-28.73"/>
<polygon fill="black" stroke="black" points="2216.03,-32.21 2225.79,-28.07 2215.58,-25.23 2216.03,-32.21"/>
</g>
<!-- module.vpn_poc.google_compute_external_vpn_gateway.peer -->
<g id="node6" class="node">
<title>module.vpn_poc.google_compute_external_vpn_gateway.peer</title>
<ellipse fill="none" stroke="black" cx="3632.28" cy="-91" rx="293.55" ry="18"/>
<text text-anchor="middle" x="3632.28" y="-87.3" font-family="Times,serif" font-size="14.00">module.vpn_poc.google_compute_external_vpn_gateway.peer</text>
</g>
<!-- module.vpn_poc.google_compute_router_interface.if0&#45;&gt;module.vpn_poc.google_compute_external_vpn_gateway.peer -->
<g id="edge4" class="edge">
<title>module.vpn_poc.google_compute_router_interface.if0&#45;&gt;module.vpn_poc.google_compute_external_vpn_gateway.peer</title>
<path fill="none" stroke="black" d="M2209.6,-252.42C2497.24,-219.98 3188.25,-142.07 3488.71,-108.19"/>
<polygon fill="black" stroke="black" points="3489.25,-111.65 3498.8,-107.05 3488.47,-104.69 3489.25,-111.65"/>
</g>
<!-- module.vpn_poc.google_compute_ha_vpn_gateway.gw -->
<g id="node7" class="node">
<title>module.vpn_poc.google_compute_ha_vpn_gateway.gw</title>
<ellipse fill="none" stroke="black" cx="2197.28" cy="-91" rx="258.85" ry="18"/>
<text text-anchor="middle" x="2197.28" y="-87.3" font-family="Times,serif" font-size="14.00">module.vpn_poc.google_compute_ha_vpn_gateway.gw</text>
</g>
<!-- module.vpn_poc.google_compute_router_interface.if0&#45;&gt;module.vpn_poc.google_compute_ha_vpn_gateway.gw -->
<g id="edge5" class="edge">
<title>module.vpn_poc.google_compute_router_interface.if0&#45;&gt;module.vpn_poc.google_compute_ha_vpn_gateway.gw</title>
<path fill="none" stroke="black" d="M2071.15,-249.68C2060.74,-227.29 2047.22,-187.88 2064.28,-160 2077.78,-137.93 2100.95,-122.74 2124.21,-112.41"/>
<polygon fill="black" stroke="black" points="2125.58,-115.63 2133.46,-108.55 2122.88,-109.17 2125.58,-115.63"/>
</g>
<!-- module.vpn_poc.google_compute_router.cr -->
<g id="node8" class="node">
<title>module.vpn_poc.google_compute_router.cr</title>
<ellipse fill="none" stroke="black" cx="1674.28" cy="-91" rx="207.96" ry="18"/>
<text text-anchor="middle" x="1674.28" y="-87.3" font-family="Times,serif" font-size="14.00">module.vpn_poc.google_compute_router.cr</text>
</g>
<!-- module.vpn_poc.google_compute_router_interface.if0&#45;&gt;module.vpn_poc.google_compute_router.cr -->
<g id="edge7" class="edge">
<title>module.vpn_poc.google_compute_router_interface.if0&#45;&gt;module.vpn_poc.google_compute_router.cr</title>
<path fill="none" stroke="black" d="M1964,-251.85C1941.1,-246.94 1917.58,-240.48 1896.28,-232 1815.86,-200 1805.78,-172.7 1732.28,-127 1725.53,-122.81 1718.31,-118.39 1711.34,-114.17"/>
<polygon fill="black" stroke="black" points="1713.06,-111.11 1702.69,-108.94 1709.44,-117.11 1713.06,-111.11"/>
</g>
<!-- module.vpn_poc.google_compute_vpn_tunnel.t0 -->
<g id="node9" class="node">
<title>module.vpn_poc.google_compute_vpn_tunnel.t0</title>
<ellipse fill="none" stroke="black" cx="2304.28" cy="-186.5" rx="231.26" ry="18"/>
<text text-anchor="middle" x="2304.28" y="-182.8" font-family="Times,serif" font-size="14.00">module.vpn_poc.google_compute_vpn_tunnel.t0</text>
</g>
<!-- module.vpn_poc.google_compute_router_interface.if0&#45;&gt;module.vpn_poc.google_compute_vpn_tunnel.t0 -->
<g id="edge8" class="edge">
<title>module.vpn_poc.google_compute_router_interface.if0&#45;&gt;module.vpn_poc.google_compute_vpn_tunnel.t0</title>
<path fill="none" stroke="black" d="M2127.51,-250.24C2162.5,-237.82 2210.35,-220.84 2247.44,-207.67"/>
<polygon fill="black" stroke="black" points="2248.86,-210.88 2257.11,-204.24 2246.51,-204.29 2248.86,-210.88"/>
</g>
<!-- module.vpn_poc.google_compute_ha_vpn_gateway.gw&#45;&gt;module.vpn_poc.google_compute_network.poc -->
<g id="edge19" class="edge">
<title>module.vpn_poc.google_compute_ha_vpn_gateway.gw&#45;&gt;module.vpn_poc.google_compute_network.poc</title>
<path fill="none" stroke="black" d="M2247.96,-73.26C2279.25,-62.93 2319.57,-49.61 2352.44,-38.76"/>
<polygon fill="black" stroke="black" points="2353.54,-42.08 2361.94,-35.62 2351.34,-35.44 2353.54,-42.08"/>
</g>
<!-- module.vpn_poc.google_compute_router.cr&#45;&gt;module.vpn_poc.google_compute_network.poc -->
<g id="edge10" class="edge">
<title>module.vpn_poc.google_compute_router.cr&#45;&gt;module.vpn_poc.google_compute_network.poc</title>
<path fill="none" stroke="black" d="M1758.09,-74.52C1799.54,-67.35 1850.41,-59.26 1896.28,-54 2000.2,-42.08 2116.4,-33.76 2212.18,-28.23"/>
<polygon fill="black" stroke="black" points="2212.49,-31.72 2222.27,-27.65 2212.09,-24.73 2212.49,-31.72"/>
</g>
<!-- module.vpn_poc.google_compute_vpn_tunnel.t0&#45;&gt;module.vpn_poc.google_compute_network.poc -->
<g id="edge22" class="edge">
<title>module.vpn_poc.google_compute_vpn_tunnel.t0&#45;&gt;module.vpn_poc.google_compute_network.poc</title>
<path fill="none" stroke="black" d="M2378.02,-169.4C2410.64,-158.22 2445.93,-139.61 2465.28,-109 2473.82,-95.47 2471.33,-87.81 2465.28,-73 2460.62,-61.62 2452.29,-51.34 2443.59,-42.89"/>
<polygon fill="black" stroke="black" points="2445.69,-40.06 2435.93,-35.94 2440.99,-45.25 2445.69,-40.06"/>
</g>
<!-- module.vpn_poc.google_compute_vpn_tunnel.t0&#45;&gt;module.vpn_poc.google_compute_external_vpn_gateway.peer -->
<g id="edge20" class="edge">
<title>module.vpn_poc.google_compute_vpn_tunnel.t0&#45;&gt;module.vpn_poc.google_compute_external_vpn_gateway.peer</title>
<path fill="none" stroke="black" d="M2381.03,-169.5C2416.8,-161.74 2459.85,-151.95 2498.28,-142 2521.15,-136.08 2525.93,-130.64 2549.28,-127 2720.59,-100.31 3156.03,-115.86 3329.28,-109 3359.2,-107.82 3390.78,-106.32 3421.8,-104.71"/>
<polygon fill="black" stroke="black" points="3422.05,-108.2 3431.85,-104.18 3421.68,-101.21 3422.05,-108.2"/>
</g>
<!-- module.vpn_poc.google_compute_vpn_tunnel.t0&#45;&gt;module.vpn_poc.google_compute_ha_vpn_gateway.gw -->
<g id="edge21" class="edge">
<title>module.vpn_poc.google_compute_vpn_tunnel.t0&#45;&gt;module.vpn_poc.google_compute_ha_vpn_gateway.gw</title>
<path fill="none" stroke="black" d="M2284.65,-168.35C2267.76,-153.59 2243.21,-132.14 2224.43,-115.73"/>
<polygon fill="black" stroke="black" points="2226.61,-112.99 2216.78,-109.04 2222,-118.26 2226.61,-112.99"/>
</g>
<!-- module.vpn_poc.google_compute_vpn_tunnel.t0&#45;&gt;module.vpn_poc.google_compute_router.cr -->
<g id="edge23" class="edge">
<title>module.vpn_poc.google_compute_vpn_tunnel.t0&#45;&gt;module.vpn_poc.google_compute_router.cr</title>
<path fill="none" stroke="black" d="M2202,-170.32C2087.31,-153.3 1901.97,-125.79 1784.23,-108.32"/>
<polygon fill="black" stroke="black" points="1784.52,-104.82 1774.11,-106.82 1783.49,-111.75 1784.52,-104.82"/>
</g>
<!-- module.spoke_shared[0].google_compute_subnetwork_iam_member.cloudservices_sa -->
<g id="node10" class="node">
<title>module.spoke_shared[0].google_compute_subnetwork_iam_member.cloudservices_sa</title>
<ellipse fill="none" stroke="black" cx="2916.28" cy="-91" rx="404.03" ry="18"/>
<text text-anchor="middle" x="2916.28" y="-87.3" font-family="Times,serif" font-size="14.00">module.spoke_shared[0].google_compute_subnetwork_iam_member.cloudservices_sa</text>
</g>
<!-- module.spoke_shared[0].google_compute_subnetwork_iam_member.cloudservices_sa&#45;&gt;module.vpn_poc.google_compute_network.poc -->
<g id="edge9" class="edge">
<title>module.spoke_shared[0].google_compute_subnetwork_iam_member.cloudservices_sa&#45;&gt;module.vpn_poc.google_compute_network.poc</title>
<path fill="none" stroke="black" d="M2800.65,-73.71C2719.13,-62.23 2610.36,-46.9 2528.67,-35.4"/>
<polygon fill="black" stroke="black" points="2528.73,-31.87 2518.34,-33.94 2527.76,-38.8 2528.73,-31.87"/>
</g>
<!-- module.vpn_poc.google_compute_router_peer.peer0 -->
<g id="node11" class="node">
<title>module.vpn_poc.google_compute_router_peer.peer0</title>
<ellipse fill="none" stroke="black" cx="2607.28" cy="-341" rx="250.76" ry="18"/>
<text text-anchor="middle" x="2607.28" y="-337.3" font-family="Times,serif" font-size="14.00">module.vpn_poc.google_compute_router_peer.peer0</text>
</g>
<!-- module.vpn_poc.google_compute_router_peer.peer0&#45;&gt;module.vpn_poc.google_compute_network.poc -->
<g id="edge13" class="edge">
<title>module.vpn_poc.google_compute_router_peer.peer0&#45;&gt;module.vpn_poc.google_compute_network.poc</title>
<path fill="none" stroke="black" d="M2853.87,-337.65C3596.07,-330.17 5758.28,-305.26 5758.28,-269 5758.28,-269 5758.28,-269 5758.28,-90 5758.28,-78.67 5749.83,-77.13 5739.28,-73 5667.31,-44.83 3389.51,-26.01 2645.11,-20.61"/>
<polygon fill="black" stroke="black" points="2645.1,-17.1 2635.07,-20.53 2645.05,-24.1 2645.1,-17.1"/>
</g>
<!-- module.vpn_poc.google_compute_router_peer.peer0&#45;&gt;module.vpn_poc.google_compute_router_interface.if0 -->
<g id="edge15" class="edge">
<title>module.vpn_poc.google_compute_router_peer.peer0&#45;&gt;module.vpn_poc.google_compute_router_interface.if0</title>
<path fill="none" stroke="black" d="M2494.87,-324.86C2409.29,-313.33 2291.6,-297.47 2203.47,-285.6"/>
<polygon fill="black" stroke="black" points="2203.8,-282.11 2193.42,-284.24 2202.86,-289.05 2203.8,-282.11"/>
</g>
<!-- module.vpn_poc.google_compute_router_peer.peer0&#45;&gt;module.vpn_poc.google_compute_external_vpn_gateway.peer -->
<g id="edge11" class="edge">
<title>module.vpn_poc.google_compute_router_peer.peer0&#45;&gt;module.vpn_poc.google_compute_external_vpn_gateway.peer</title>
<path fill="none" stroke="black" d="M2790.53,-328.69C3064.57,-310.02 3555.38,-269.18 3613.28,-213 3637.93,-189.08 3639.03,-147.16 3636.49,-119.49"/>
<polygon fill="black" stroke="black" points="3639.94,-118.84 3635.33,-109.3 3632.99,-119.63 3639.94,-118.84"/>
</g>
<!-- module.vpn_poc.google_compute_router_peer.peer0&#45;&gt;module.vpn_poc.google_compute_ha_vpn_gateway.gw -->
<g id="edge12" class="edge">
<title>module.vpn_poc.google_compute_router_peer.peer0&#45;&gt;module.vpn_poc.google_compute_ha_vpn_gateway.gw</title>
<path fill="none" stroke="black" d="M2606.65,-322.8C2604.36,-286.7 2593.7,-202.81 2544.28,-160 2515.07,-134.71 2430.7,-117.85 2352.47,-107.24"/>
<polygon fill="black" stroke="black" points="2352.85,-103.76 2342.48,-105.91 2351.93,-110.7 2352.85,-103.76"/>
</g>
<!-- module.vpn_poc.google_compute_router_peer.peer0&#45;&gt;module.vpn_poc.google_compute_router.cr -->
<g id="edge14" class="edge">
<title>module.vpn_poc.google_compute_router_peer.peer0&#45;&gt;module.vpn_poc.google_compute_router.cr</title>
<path fill="none" stroke="black" d="M2374.89,-334.22C2158.24,-327.21 1861.44,-312.84 1813.28,-286 1745.62,-248.29 1702.65,-162.21 1684.39,-118.51"/>
<polygon fill="black" stroke="black" points="1687.58,-117.06 1680.58,-109.11 1681.1,-119.69 1687.58,-117.06"/>
</g>
<!-- module.vpn_poc.google_compute_router_peer.peer0&#45;&gt;module.vpn_poc.google_compute_vpn_tunnel.t0 -->
<g id="edge16" class="edge">
<title>module.vpn_poc.google_compute_router_peer.peer0&#45;&gt;module.vpn_poc.google_compute_vpn_tunnel.t0</title>
<path fill="none" stroke="black" d="M2573.69,-323.1C2518.29,-295.21 2407.84,-239.63 2346.98,-208.99"/>
<polygon fill="black" stroke="black" points="2348.52,-205.85 2338.01,-204.48 2345.37,-212.1 2348.52,-205.85"/>
</g>
<!-- module.vpn_poc.google_compute_firewall.iap_ssh -->
<g id="node12" class="node">
<title>module.vpn_poc.google_compute_firewall.iap_ssh</title>
<polygon fill="none" stroke="black" points="4312.28,-109 3944.28,-109 3944.28,-73 4312.28,-73 4312.28,-109"/>
<text text-anchor="middle" x="4128.28" y="-87.3" font-family="Times,serif" font-size="14.00">module.vpn_poc.google_compute_firewall.iap_ssh</text>
</g>
<!-- module.vpn_poc.google_compute_firewall.iap_ssh&#45;&gt;module.vpn_poc.google_compute_network.poc -->
<g id="edge17" class="edge">
<title>module.vpn_poc.google_compute_firewall.iap_ssh&#45;&gt;module.vpn_poc.google_compute_network.poc</title>
<path fill="none" stroke="black" d="M3944.16,-73.57C3941.18,-73.37 3938.21,-73.18 3935.28,-73 3475.07,-44.59 2935.65,-29.84 2638.13,-23.31"/>
<polygon fill="black" stroke="black" points="2638.16,-19.81 2628.09,-23.09 2638.01,-26.81 2638.16,-19.81"/>
</g>
<!-- module.spoke_shared[0].google_compute_subnetwork_iam_member.compute_sa -->
<g id="node13" class="node">
<title>module.spoke_shared[0].google_compute_subnetwork_iam_member.compute_sa</title>
<ellipse fill="none" stroke="black" cx="4712.28" cy="-91" rx="381.53" ry="18"/>
<text text-anchor="middle" x="4712.28" y="-87.3" font-family="Times,serif" font-size="14.00">module.spoke_shared[0].google_compute_subnetwork_iam_member.compute_sa</text>
</g>
<!-- module.spoke_shared[0].google_compute_subnetwork_iam_member.compute_sa&#45;&gt;module.vpn_poc.google_compute_network.poc -->
<g id="edge18" class="edge">
<title>module.spoke_shared[0].google_compute_subnetwork_iam_member.compute_sa&#45;&gt;module.vpn_poc.google_compute_network.poc</title>
<path fill="none" stroke="black" d="M4448.61,-77.99C4406.04,-76.21 4362.44,-74.48 4321.28,-73 3711.05,-51.1 2990.84,-32.77 2634.7,-24.2"/>
<polygon fill="black" stroke="black" points="2634.61,-20.69 2624.53,-23.95 2634.45,-27.69 2634.61,-20.69"/>
</g>
<!-- module.spoke_shared[0].google_compute_subnetwork.lakehouse -->
<g id="node14" class="node">
<title>module.spoke_shared[0].google_compute_subnetwork.lakehouse</title>
<ellipse fill="none" stroke="black" cx="5421.28" cy="-91" rx="309.25" ry="18"/>
<text text-anchor="middle" x="5421.28" y="-87.3" font-family="Times,serif" font-size="14.00">module.spoke_shared[0].google_compute_subnetwork.lakehouse</text>
</g>
<!-- module.spoke_shared[0].google_compute_subnetwork.lakehouse&#45;&gt;module.vpn_poc.google_compute_network.poc -->
<g id="edge24" class="edge">
<title>module.spoke_shared[0].google_compute_subnetwork.lakehouse&#45;&gt;module.vpn_poc.google_compute_network.poc</title>
<path fill="none" stroke="black" d="M5210.92,-77.76C5175.02,-75.96 5138.08,-74.28 5103.28,-73 4193.86,-39.58 3110.74,-25.75 2644.52,-21.05"/>
<polygon fill="black" stroke="black" points="2644.33,-17.55 2634.3,-20.95 2644.26,-24.55 2644.33,-17.55"/>
</g>
<!-- onprem -->
<g id="node15" class="node">
<title>onprem</title>
<path fill="#faece7" stroke="black" d="M3592.28,-213C3592.28,-213 3378.28,-213 3378.28,-213 3372.28,-213 3366.28,-207 3366.28,-201 3366.28,-201 3366.28,-172 3366.28,-172 3366.28,-166 3372.28,-160 3378.28,-160 3378.28,-160 3592.28,-160 3592.28,-160 3598.28,-160 3604.28,-166 3604.28,-172 3604.28,-172 3604.28,-201 3604.28,-201 3604.28,-207 3598.28,-213 3592.28,-213"/>
<text text-anchor="middle" x="3485.28" y="-197.8" font-family="Times,serif" font-size="14.00">On&#45;prem LAN</text>
<text text-anchor="middle" x="3485.28" y="-182.8" font-family="Times,serif" font-size="14.00">192.168.1.0/24</text>
<text text-anchor="middle" x="3485.28" y="-167.8" font-family="Times,serif" font-size="14.00">strongSwan + FRR (AS 65000)</text>
</g>
<!-- onprem&#45;&gt;module.vpn_poc.google_compute_external_vpn_gateway.peer -->
<g id="edge25" class="edge">
<title>onprem&#45;&gt;module.vpn_poc.google_compute_external_vpn_gateway.peer</title>
<path fill="none" stroke="#993c1d" stroke-width="2" d="M3498.74,-159.87C3505.88,-148.42 3515.6,-135.6 3527.28,-127 3534.97,-121.33 3543.63,-116.55 3552.61,-112.51"/>
<polygon fill="#993c1d" stroke="#993c1d" stroke-width="2" points="3554.16,-115.66 3562.04,-108.58 3551.46,-109.2 3554.16,-115.66"/>
<text text-anchor="middle" x="3572.78" y="-130.8" font-family="Times,serif" font-size="14.00">IPsec + BGP</text>
</g>
</g>
</svg>
