<?xml version="1.0" encoding="UTF-8" standalone="no"?>
<!DOCTYPE svg PUBLIC "-//W3C//DTD SVG 1.1//EN"
 "http://www.w3.org/Graphics/SVG/1.1/DTD/svg11.dtd">
<!-- Generated by graphviz version 2.43.0 (0)
 -->
<!-- Title: G Pages: 1 -->
<svg width="5765pt" height="367pt"
 viewBox="0.00 0.00 5765.28 367.00" xmlns="http://www.w3.org/2000/svg" xmlns:xlink="http://www.w3.org/1999/xlink">
<g id="graph0" class="graph" transform="scale(1 1) rotate(0) translate(4 363)">
<title>G</title>
<polygon fill="white" stroke="transparent" points="-4,4 -4,-363 5761.28,-363 5761.28,4 -4,4"/>
<!-- module.vpn_poc.google_compute_subnetwork.crosscloud -->
<g id="node1" class="node">
<title>module.vpn_poc.google_compute_subnetwork.crosscloud</title>
<ellipse fill="none" stroke="black" cx="274.28" cy="-91" rx="274.05" ry="18"/>
<text text-anchor="middle" x="274.28" y="-87.3" font-family="Times,serif" font-size="14.00">module.vpn_poc.google_compute_subnetwork.crosscloud</text>
</g>
<!-- module.vpn_poc.google_compute_network.poc -->
<g id="node2" class="node">
<title>module.vpn_poc.google_compute_network.poc</title>
<ellipse fill="none" stroke="black" cx="3009.28" cy="-18" rx="224.76" ry="18"/>
<text text-anchor="middle" x="3009.28" y="-14.3" font-family="Times,serif" font-size="14.00">module.vpn_poc.google_compute_network.poc</text>
</g>
<!-- module.vpn_poc.google_compute_subnetwork.crosscloud&#45;&gt;module.vpn_poc.google_compute_network.poc -->
<g id="edge1" class="edge">
<title>module.vpn_poc.google_compute_subnetwork.crosscloud&#45;&gt;module.vpn_poc.google_compute_network.poc</title>
<path fill="none" stroke="black" d="M460.7,-77.79C492.9,-75.97 526.05,-74.28 557.28,-73 1372.75,-39.54 2341.69,-25.91 2777.12,-21.18"/>
<polygon fill="black" stroke="black" points="2777.35,-24.67 2787.31,-21.07 2777.27,-17.68 2777.35,-24.67"/>
</g>
<!-- module.vpn_poc.google_compute_subnetwork.hub -->
<g id="node3" class="node">
<title>module.vpn_poc.google_compute_subnetwork.hub</title>
<ellipse fill="none" stroke="black" cx="809.28" cy="-91" rx="243.16" ry="18"/>
<text text-anchor="middle" x="809.28" y="-87.3" font-family="Times,serif" font-size="14.00">module.vpn_poc.google_compute_subnetwork.hub</text>
</g>
<!-- module.vpn_poc.google_compute_subnetwork.hub&#45;&gt;module.vpn_poc.google_compute_network.poc -->
<g id="edge2" class="edge">
<title>module.vpn_poc.google_compute_subnetwork.hub&#45;&gt;module.vpn_poc.google_compute_network.poc</title>
<path fill="none" stroke="black" d="M975.61,-77.84C1004.18,-76.02 1033.57,-74.32 1061.28,-73 1682.55,-43.44 2416.12,-28.49 2780.3,-22.41"/>
<polygon fill="black" stroke="black" points="2780.49,-25.91 2790.43,-22.24 2780.37,-18.91 2780.49,-25.91"/>
</g>
<!-- module.spoke_shared[0].google_compute_subnetwork.lakehouse -->
<g id="node4" class="node">
<title>module.spoke_shared[0].google_compute_subnetwork.lakehouse</title>
<ellipse fill="none" stroke="black" cx="1379.28" cy="-91" rx="309.25" ry="18"/>
<text text-anchor="middle" x="1379.28" y="-87.3" font-family="Times,serif" font-size="14.00">module.spoke_shared[0].google_compute_subnetwork.lakehouse</text>
</g>
<!-- module.spoke_shared[0].google_compute_subnetwork.lakehouse&#45;&gt;module.vpn_poc.google_compute_network.poc -->
<g id="edge3" class="edge">
<title>module.spoke_shared[0].google_compute_subnetwork.lakehouse&#45;&gt;module.vpn_poc.google_compute_network.poc</title>
<path fill="none" stroke="black" d="M1595.22,-78.1C1629.36,-76.32 1664.28,-74.56 1697.28,-73 2086.59,-54.58 2541.07,-36.68 2800.03,-26.82"/>
<polygon fill="black" stroke="black" points="2800.45,-30.31 2810.31,-26.43 2800.18,-23.31 2800.45,-30.31"/>
</g>
<!-- module.spoke_shared[0].google_compute_subnetwork_iam_member.compute_sa -->
<g id="node5" class="node">
<title>module.spoke_shared[0].google_compute_subnetwork_iam_member.compute_sa</title>
<ellipse fill="none" stroke="black" cx="2088.28" cy="-91" rx="381.53" ry="18"/>
<text text-anchor="middle" x="2088.28" y="-87.3" font-family="Times,serif" font-size="14.00">module.spoke_shared[0].google_compute_subnetwork_iam_member.compute_sa</text>
</g>
<!-- module.spoke_shared[0].google_compute_subnetwork_iam_member.compute_sa&#45;&gt;module.vpn_poc.google_compute_network.poc -->
<g id="edge4" class="edge">
<title>module.spoke_shared[0].google_compute_subnetwork_iam_member.compute_sa&#45;&gt;module.vpn_poc.google_compute_network.poc</title>
<path fill="none" stroke="black" d="M2277.99,-75.37C2444.42,-62.54 2684.04,-44.07 2843.07,-31.81"/>
<polygon fill="black" stroke="black" points="2843.73,-35.27 2853.43,-31.01 2843.19,-28.29 2843.73,-35.27"/>
</g>
<!-- module.vpn_poc.google_compute_router_interface.if0 -->
<g id="node6" class="node">
<title>module.vpn_poc.google_compute_router_interface.if0</title>
<ellipse fill="none" stroke="black" cx="3098.28" cy="-268" rx="258.05" ry="18"/>
<text text-anchor="middle" x="3098.28" y="-264.3" font-family="Times,serif" font-size="14.00">module.vpn_poc.google_compute_router_interface.if0</text>
</g>
<!-- module.vpn_poc.google_compute_router_interface.if0&#45;&gt;module.vpn_poc.google_compute_network.poc -->
<g id="edge7" class="edge">
<title>module.vpn_poc.google_compute_router_interface.if0&#45;&gt;module.vpn_poc.google_compute_network.poc</title>
<path fill="none" stroke="black" d="M3073.05,-249.96C3037.59,-224.28 2974.63,-171.92 2950.28,-109 2944.5,-94.08 2943.83,-87.64 2950.28,-73 2955.43,-61.28 2964.53,-51 2974.06,-42.64"/>
<polygon fill="black" stroke="black" points="2976.55,-45.12 2982.08,-36.09 2972.12,-39.7 2976.55,-45.12"/>
</g>
<!-- module.vpn_poc.google_compute_external_vpn_gateway.peer -->
<g id="node7" class="node">
<title>module.vpn_poc.google_compute_external_vpn_gateway.peer</title>
<ellipse fill="none" stroke="black" cx="3827.28" cy="-91" rx="293.55" ry="18"/>
<text text-anchor="middle" x="3827.28" y="-87.3" font-family="Times,serif" font-size="14.00">module.vpn_poc.google_compute_external_vpn_gateway.peer</text>
</g>
<!-- module.vpn_poc.google_compute_router_interface.if0&#45;&gt;module.vpn_poc.google_compute_external_vpn_gateway.peer -->
<g id="edge5" class="edge">
<title>module.vpn_poc.google_compute_router_interface.if0&#45;&gt;module.vpn_poc.google_compute_external_vpn_gateway.peer</title>
<path fill="none" stroke="black" d="M3315.65,-258.27C3387.36,-250.66 3466.57,-237.06 3536.28,-213 3579.43,-198.1 3582.83,-179.14 3624.28,-160 3666.83,-140.35 3716.71,-123.56 3756.39,-111.58"/>
<polygon fill="black" stroke="black" points="3757.4,-114.93 3765.98,-108.71 3755.4,-108.22 3757.4,-114.93"/>
</g>
<!-- module.vpn_poc.google_compute_ha_vpn_gateway.gw -->
<g id="node8" class="node">
<title>module.vpn_poc.google_compute_ha_vpn_gateway.gw</title>
<ellipse fill="none" stroke="black" cx="3218.28" cy="-91" rx="258.85" ry="18"/>
<text text-anchor="middle" x="3218.28" y="-87.3" font-family="Times,serif" font-size="14.00">module.vpn_poc.google_compute_ha_vpn_gateway.gw</text>
</g>
<!-- module.vpn_poc.google_compute_router_interface.if0&#45;&gt;module.vpn_poc.google_compute_ha_vpn_gateway.gw -->
<g id="edge6" class="edge">
<title>module.vpn_poc.google_compute_router_interface.if0&#45;&gt;module.vpn_poc.google_compute_ha_vpn_gateway.gw</title>
<path fill="none" stroke="black" d="M3080.1,-249.85C3071.06,-240.03 3061.06,-226.93 3056.28,-213 3048.63,-190.72 3043.24,-179.62 3056.28,-160 3071.62,-136.92 3096.47,-121.66 3122.15,-111.58"/>
<polygon fill="black" stroke="black" points="3123.46,-114.82 3131.63,-108.09 3121.04,-108.25 3123.46,-114.82"/>
</g>
<!-- module.vpn_poc.google_compute_router.cr -->
<g id="node9" class="node">
<title>module.vpn_poc.google_compute_router.cr</title>
<ellipse fill="none" stroke="black" cx="2695.28" cy="-91" rx="207.96" ry="18"/>
<text text-anchor="middle" x="2695.28" y="-87.3" font-family="Times,serif" font-size="14.00">module.vpn_poc.google_compute_router.cr</text>
</g>
<!-- module.vpn_poc.google_compute_router_interface.if0&#45;&gt;module.vpn_poc.google_compute_router.cr -->
<g id="edge8" class="edge">
<title>module.vpn_poc.google_compute_router_interface.if0&#45;&gt;module.vpn_poc.google_compute_router.cr</title>
<path fill="none" stroke="black" d="M2982.29,-251.8C2960.23,-246.9 2937.67,-240.46 2917.28,-232 2840.42,-200.12 2833.71,-169.67 2762.28,-127 2754.66,-122.45 2746.4,-117.87 2738.36,-113.58"/>
<polygon fill="black" stroke="black" points="2739.91,-110.44 2729.43,-108.89 2736.65,-116.64 2739.91,-110.44"/>
</g>
<!-- module.vpn_poc.google_compute_vpn_tunnel.t0 -->
<g id="node10" class="node">
<title>module.vpn_poc.google_compute_vpn_tunnel.t0</title>
<ellipse fill="none" stroke="black" cx="3296.28" cy="-186.5" rx="231.26" ry="18"/>
<text text-anchor="middle" x="3296.28" y="-182.8" font-family="Times,serif" font-size="14.00">module.vpn_poc.google_compute_vpn_tunnel.t0</text>
</g>
<!-- module.vpn_poc.google_compute_router_interface.if0&#45;&gt;module.vpn_poc.google_compute_vpn_tunnel.t0 -->
<g id="edge9" class="edge">
<title>module.vpn_poc.google_compute_router_interface.if0&#45;&gt;module.vpn_poc.google_compute_vpn_tunnel.t0</title>
<path fill="none" stroke="black" d="M3140.27,-250.14C3170.85,-237.86 3212.44,-221.16 3244.99,-208.09"/>
<polygon fill="black" stroke="black" points="3246.37,-211.31 3254.35,-204.34 3243.76,-204.81 3246.37,-211.31"/>
</g>
<!-- module.vpn_poc.google_compute_ha_vpn_gateway.gw&#45;&gt;module.vpn_poc.google_compute_network.poc -->
<g id="edge22" class="edge">
<title>module.vpn_poc.google_compute_ha_vpn_gateway.gw&#45;&gt;module.vpn_poc.google_compute_network.poc</title>
<path fill="none" stroke="black" d="M3169.01,-73.26C3138.72,-62.97 3099.73,-49.73 3067.86,-38.9"/>
<polygon fill="black" stroke="black" points="3068.8,-35.53 3058.21,-35.62 3066.55,-42.15 3068.8,-35.53"/>
</g>
<!-- module.vpn_poc.google_compute_router.cr&#45;&gt;module.vpn_poc.google_compute_network.poc -->
<g id="edge23" class="edge">
<title>module.vpn_poc.google_compute_router.cr&#45;&gt;module.vpn_poc.google_compute_network.poc</title>
<path fill="none" stroke="black" d="M2766.13,-73.98C2814.29,-63.09 2878.12,-48.66 2928.29,-37.31"/>
<polygon fill="black" stroke="black" points="2929.15,-40.71 2938.13,-35.09 2927.61,-33.88 2929.15,-40.71"/>
</g>
<!-- module.vpn_poc.google_compute_vpn_tunnel.t0&#45;&gt;module.vpn_poc.google_compute_network.poc -->
<g id="edge19" class="edge">
<title>module.vpn_poc.google_compute_vpn_tunnel.t0&#45;&gt;module.vpn_poc.google_compute_network.poc</title>
<path fill="none" stroke="black" d="M3372.66,-169.45C3441.91,-151.56 3527.33,-118.96 3486.28,-73 3466.95,-51.37 3327.59,-37.29 3204.46,-28.95"/>
<polygon fill="black" stroke="black" points="3204.32,-25.44 3194.11,-28.27 3203.86,-32.42 3204.32,-25.44"/>
</g>
<!-- module.vpn_poc.google_compute_vpn_tunnel.t0&#45;&gt;module.vpn_poc.google_compute_external_vpn_gateway.peer -->
<g id="edge17" class="edge">
<title>module.vpn_poc.google_compute_vpn_tunnel.t0&#45;&gt;module.vpn_poc.google_compute_external_vpn_gateway.peer</title>
<path fill="none" stroke="black" d="M3405.14,-170.57C3441.14,-163.9 3480.99,-154.62 3516.28,-142 3529.57,-137.25 3530.82,-131.27 3544.28,-127 3572.04,-118.18 3602,-111.57 3631.67,-106.62"/>
<polygon fill="black" stroke="black" points="3632.4,-110.04 3641.72,-105 3631.29,-103.13 3632.4,-110.04"/>
</g>
<!-- module.vpn_poc.google_compute_vpn_tunnel.t0&#45;&gt;module.vpn_poc.google_compute_ha_vpn_gateway.gw -->
<g id="edge18" class="edge">
<title>module.vpn_poc.google_compute_vpn_tunnel.t0&#45;&gt;module.vpn_poc.google_compute_ha_vpn_gateway.gw</title>
<path fill="none" stroke="black" d="M3281.97,-168.35C3269.98,-153.98 3252.71,-133.28 3239.18,-117.06"/>
<polygon fill="black" stroke="black" points="3241.58,-114.48 3232.49,-109.04 3236.21,-118.96 3241.58,-114.48"/>
</g>
<!-- module.vpn_poc.google_compute_vpn_tunnel.t0&#45;&gt;module.vpn_poc.google_compute_router.cr -->
<g id="edge20" class="edge">
<title>module.vpn_poc.google_compute_vpn_tunnel.t0&#45;&gt;module.vpn_poc.google_compute_router.cr</title>
<path fill="none" stroke="black" d="M3197.71,-170.17C3088.77,-153.22 2913.93,-126.02 2801.88,-108.58"/>
<polygon fill="black" stroke="black" points="2802.33,-105.11 2791.91,-107.03 2801.25,-112.03 2802.33,-105.11"/>
</g>
<!-- module.vpn_poc.google_compute_router_peer.peer0 -->
<g id="node11" class="node">
<title>module.vpn_poc.google_compute_router_peer.peer0</title>
<ellipse fill="none" stroke="black" cx="3586.28" cy="-341" rx="250.76" ry="18"/>
<text text-anchor="middle" x="3586.28" y="-337.3" font-family="Times,serif" font-size="14.00">module.vpn_poc.google_compute_router_peer.peer0</text>
</g>
<!-- module.vpn_poc.google_compute_router_peer.peer0&#45;&gt;module.vpn_poc.google_compute_network.poc -->
<g id="edge12" class="edge">
<title>module.vpn_poc.google_compute_router_peer.peer0&#45;&gt;module.vpn_poc.google_compute_network.poc</title>
<path fill="none" stroke="black" d="M3834.26,-338.22C4403.9,-333.31 5757.28,-316.64 5757.28,-269 5757.28,-269 5757.28,-269 5757.28,-90 5757.28,-3.91 5069.35,-55.85 4983.28,-54 4351.37,-40.45 3605.61,-28.26 3237.87,-22.5"/>
<polygon fill="black" stroke="black" points="3237.69,-19 3227.63,-22.34 3237.58,-26 3237.69,-19"/>
</g>
<!-- module.vpn_poc.google_compute_router_peer.peer0&#45;&gt;module.vpn_poc.google_compute_router_interface.if0 -->
<g id="edge14" class="edge">
<title>module.vpn_poc.google_compute_router_peer.peer0&#45;&gt;module.vpn_poc.google_compute_router_interface.if0</title>
<path fill="none" stroke="black" d="M3480.69,-324.64C3402.34,-313.24 3295.55,-297.7 3214.73,-285.94"/>
<polygon fill="black" stroke="black" points="3214.91,-282.43 3204.51,-284.46 3213.9,-289.36 3214.91,-282.43"/>
</g>
<!-- module.vpn_poc.google_compute_router_peer.peer0&#45;&gt;module.vpn_poc.google_compute_external_vpn_gateway.peer -->
<g id="edge10" class="edge">
<title>module.vpn_poc.google_compute_router_peer.peer0&#45;&gt;module.vpn_poc.google_compute_external_vpn_gateway.peer</title>
<path fill="none" stroke="black" d="M3685.29,-324.43C3751.85,-308.42 3835.34,-276.39 3880.28,-213 3902.42,-181.77 3904.1,-160.34 3885.28,-127 3882.84,-122.68 3879.63,-118.84 3875.97,-115.43"/>
<polygon fill="black" stroke="black" points="3877.94,-112.52 3867.94,-109.02 3873.58,-117.99 3877.94,-112.52"/>
</g>
<!-- module.vpn_poc.google_compute_router_peer.peer0&#45;&gt;module.vpn_poc.google_compute_ha_vpn_gateway.gw -->
<g id="edge11" class="edge">
<title>module.vpn_poc.google_compute_router_peer.peer0&#45;&gt;module.vpn_poc.google_compute_ha_vpn_gateway.gw</title>
<path fill="none" stroke="black" d="M3586.94,-322.98C3587.35,-287.2 3582.91,-203.91 3536.28,-160 3510.41,-135.65 3433.15,-118.81 3361.26,-107.98"/>
<polygon fill="black" stroke="black" points="3361.56,-104.49 3351.15,-106.49 3360.54,-111.41 3361.56,-104.49"/>
</g>
<!-- module.vpn_poc.google_compute_router_peer.peer0&#45;&gt;module.vpn_poc.google_compute_router.cr -->
<g id="edge13" class="edge">
<title>module.vpn_poc.google_compute_router_peer.peer0&#45;&gt;module.vpn_poc.google_compute_router.cr</title>
<path fill="none" stroke="black" d="M3357.94,-333.53C3152.57,-326.11 2876.37,-311.54 2831.28,-286 2764.37,-248.1 2722.66,-162.11 2705.02,-118.46"/>
<polygon fill="black" stroke="black" points="2708.25,-117.11 2701.34,-109.08 2701.73,-119.67 2708.25,-117.11"/>
</g>
<!-- module.vpn_poc.google_compute_router_peer.peer0&#45;&gt;module.vpn_poc.google_compute_vpn_tunnel.t0 -->
<g id="edge15" class="edge">
<title>module.vpn_poc.google_compute_router_peer.peer0&#45;&gt;module.vpn_poc.google_compute_vpn_tunnel.t0</title>
<path fill="none" stroke="black" d="M3554.13,-323.1C3501.22,-295.27 3395.83,-239.85 3337.5,-209.18"/>
<polygon fill="black" stroke="black" points="3339.04,-206.04 3328.56,-204.48 3335.78,-212.23 3339.04,-206.04"/>
</g>
<!-- module.vpn_poc.google_compute_firewall.from_lan -->
<g id="node12" class="node">
<title>module.vpn_poc.google_compute_firewall.from_lan</title>
<polygon fill="none" stroke="black" points="4517.28,-109 4139.28,-109 4139.28,-73 4517.28,-73 4517.28,-109"/>
<text text-anchor="middle" x="4328.28" y="-87.3" font-family="Times,serif" font-size="14.00">module.vpn_poc.google_compute_firewall.from_lan</text>
</g>
<!-- module.vpn_poc.google_compute_firewall.from_lan&#45;&gt;module.vpn_poc.google_compute_network.poc -->
<g id="edge16" class="edge">
<title>module.vpn_poc.google_compute_firewall.from_lan&#45;&gt;module.vpn_poc.google_compute_network.poc</title>
<path fill="none" stroke="black" d="M4139.12,-73.6C4136.15,-73.4 4133.2,-73.2 4130.28,-73 3812.8,-51.73 3444.21,-35.62 3218.9,-26.75"/>
<polygon fill="black" stroke="black" points="3218.74,-23.24 3208.61,-26.34 3218.47,-30.23 3218.74,-23.24"/>
</g>
<!-- module.spoke_shared[0].google_compute_subnetwork_iam_member.cloudservices_sa -->
<g id="node13" class="node">
<title>module.spoke_shared[0].google_compute_subnetwork_iam_member.cloudservices_sa</title>
<ellipse fill="none" stroke="black" cx="4939.28" cy="-91" rx="404.03" ry="18"/>
<text text-anchor="middle" x="4939.28" y="-87.3" font-family="Times,serif" font-size="14.00">module.spoke_shared[0].google_compute_subnetwork_iam_member.cloudservices_sa</text>
</g>
<!-- module.spoke_shared[0].google_compute_subnetwork_iam_member.cloudservices_sa&#45;&gt;module.vpn_poc.google_compute_network.poc -->
<g id="edge21" class="edge">
<title>module.spoke_shared[0].google_compute_subnetwork_iam_member.cloudservices_sa&#45;&gt;module.vpn_poc.google_compute_network.poc</title>
<path fill="none" stroke="black" d="M4656.3,-78.14C4612.76,-76.38 4568.32,-74.61 4526.28,-73 4061.07,-55.15 3515.54,-36.22 3222.06,-26.2"/>
<polygon fill="black" stroke="black" points="3221.84,-22.69 3211.72,-25.85 3221.6,-29.69 3221.84,-22.69"/>
</g>
<!-- module.vpn_poc.google_compute_firewall.iap_ssh -->
<g id="node14" class="node">
<title>module.vpn_poc.google_compute_firewall.iap_ssh</title>
<polygon fill="none" stroke="black" points="5729.28,-109 5361.28,-109 5361.28,-73 5729.28,-73 5729.28,-109"/>
<text text-anchor="middle" x="5545.28" y="-87.3" font-family="Times,serif" font-size="14.00">module.vpn_poc.google_compute_firewall.iap_ssh</text>
</g>
<!-- module.vpn_poc.google_compute_firewall.iap_ssh&#45;&gt;module.vpn_poc.google_compute_network.poc -->
<g id="edge24" class="edge">
<title>module.vpn_poc.google_compute_firewall.iap_ssh&#45;&gt;module.vpn_poc.google_compute_network.poc</title>
<path fill="none" stroke="black" d="M5361.16,-73.51C5358.18,-73.33 5355.21,-73.16 5352.28,-73 4581.32,-30.21 3665.86,-21.18 3243.78,-19.38"/>
<polygon fill="black" stroke="black" points="3243.61,-15.88 3233.6,-19.34 3243.58,-22.88 3243.61,-15.88"/>
</g>
<!-- onprem -->
<g id="node15" class="node">
<title>onprem</title>
<path fill="#faece7" stroke="black" d="M3859.28,-213C3859.28,-213 3645.28,-213 3645.28,-213 3639.28,-213 3633.28,-207 3633.28,-201 3633.28,-201 3633.28,-172 3633.28,-172 3633.28,-166 3639.28,-160 3645.28,-160 3645.28,-160 3859.28,-160 3859.28,-160 3865.28,-160 3871.28,-166 3871.28,-172 3871.28,-172 3871.28,-201 3871.28,-201 3871.28,-207 3865.28,-213 3859.28,-213"/>
<text text-anchor="middle" x="3752.28" y="-197.8" font-family="Times,serif" font-size="14.00">On&#45;prem LAN</text>
<text text-anchor="middle" x="3752.28" y="-182.8" font-family="Times,serif" font-size="14.00">192.168.1.0/24</text>
<text text-anchor="middle" x="3752.28" y="-167.8" font-family="Times,serif" font-size="14.00">strongSwan + FRR (AS 65000)</text>
</g>
<!-- onprem&#45;&gt;module.vpn_poc.google_compute_external_vpn_gateway.peer -->
<g id="edge25" class="edge">
<title>onprem&#45;&gt;module.vpn_poc.google_compute_external_vpn_gateway.peer</title>
<path fill="none" stroke="#993c1d" stroke-width="2" d="M3769.55,-159.9C3776.87,-149.46 3785.69,-137.42 3794.28,-127 3797.16,-123.5 3800.31,-119.91 3803.48,-116.42"/>
<polygon fill="#993c1d" stroke="#993c1d" stroke-width="2" points="3806.1,-118.74 3810.35,-109.03 3800.98,-113.97 3806.1,-118.74"/>
<text text-anchor="middle" x="3839.78" y="-130.8" font-family="Times,serif" font-size="14.00">IPsec + BGP</text>
</g>
</g>
</svg>
